<svg width="25" height="25" viewBox="0 0 25 25" fill="none" xmlns="http://www.w3.org/2000/svg">
<path d="M22.714 10.4605H21.875V10.4173H12.5V14.584H18.387C17.5281 17.0095 15.2203 18.7507 12.5 18.7507C9.04842 18.7507 6.24998 15.9522 6.24998 12.5007C6.24998 9.04909 9.04842 6.25065 12.5 6.25065C14.0932 6.25065 15.5427 6.85169 16.6463 7.83346L19.5927 4.88711C17.7323 3.15326 15.2437 2.08398 12.5 2.08398C6.74738 2.08398 2.08331 6.74805 2.08331 12.5007C2.08331 18.2533 6.74738 22.9173 12.5 22.9173C18.2526 22.9173 22.9166 18.2533 22.9166 12.5007C22.9166 11.8022 22.8448 11.1204 22.714 10.4605Z" fill="#FFC107"/>
<path d="M3.28436 7.65221L6.70676 10.1621C7.6328 7.8694 9.87551 6.25065 12.5 6.25065C14.0932 6.25065 15.5427 6.85169 16.6463 7.83346L19.5927 4.88711C17.7323 3.15326 15.2437 2.08398 12.5 2.08398C8.49895 2.08398 5.02915 4.34284 3.28436 7.65221Z" fill="#FF3D00"/>
<path d="M12.5 22.9165C15.1906 22.9165 17.6354 21.8868 19.4839 20.2124L16.2599 17.4842C15.1789 18.3063 13.8581 18.7509 12.5 18.7499C9.79062 18.7499 7.4901 17.0223 6.62344 14.6113L3.22656 17.2285C4.95052 20.602 8.45156 22.9165 12.5 22.9165Z" fill="#4CAF50"/>
<path d="M22.7141 10.4592H21.875V10.416H12.5V14.5827H18.387C17.9761 15.7371 17.2361 16.7458 16.2583 17.4842L16.2599 17.4832L19.4839 20.2113C19.2557 20.4186 22.9167 17.7077 22.9167 12.4993C22.9167 11.8009 22.8448 11.1191 22.7141 10.4592Z" fill="#1976D2"/>
</svg>
