<svg width="21" height="21" viewBox="0 0 21 21" fill="none" xmlns="http://www.w3.org/2000/svg">
<path d="M19.6663 17.8334V10.6596C19.6664 10.1605 19.5646 9.66663 19.3671 9.20827C19.1696 8.74991 18.8806 8.33669 18.5178 7.99393L11.7592 1.6066C11.4188 1.28478 10.9681 1.10547 10.4997 1.10547C10.0312 1.10547 9.58057 1.28478 9.24018 1.6066L2.48159 7.99393C2.1188 8.33669 1.8298 8.74991 1.6323 9.20827C1.4348 9.66663 1.33295 10.1605 1.33301 10.6596V17.8334C1.33301 18.3197 1.52616 18.786 1.86998 19.1298C2.2138 19.4736 2.68011 19.6668 3.16634 19.6668H17.833C18.3192 19.6668 18.7856 19.4736 19.1294 19.1298C19.4732 18.786 19.6663 18.3197 19.6663 17.8334Z" stroke="white" stroke-width="1.5" stroke-linecap="round" stroke-linejoin="round"/>
</svg>
