<svg width="184" height="29" viewBox="0 0 184 29" fill="none" xmlns="http://www.w3.org/2000/svg">
<path d="M6.07547 24.8452V11.5972L12.7955 24.8452H16.9555L23.6755 11.5972V24.8452H28.7955V1.80521H23.8035L14.8755 18.6052L5.94747 1.80521H0.955469V24.8452H6.07547ZM35.7947 0.333214C34.2587 0.333214 33.0427 1.58121 33.0427 3.08521C33.0427 4.62121 34.2587 5.83721 35.7947 5.83721C37.2987 5.83721 38.5467 4.62121 38.5467 3.08521C38.5467 1.58121 37.2987 0.333214 35.7947 0.333214ZM33.3947 24.8452H38.1947V7.56521H33.3947V24.8452ZM42.6292 7.56521V16.2052C42.6292 21.2612 46.0852 25.3572 51.3972 25.3572C56.7092 25.3572 60.1652 21.2612 60.1652 16.2052V7.56521H55.3652V16.2052C55.3652 18.8612 54.0532 21.0052 51.3972 21.0052C48.7412 21.0052 47.4292 18.8612 47.4292 16.2052V7.56521H42.6292ZM63.843 16.2052V24.8452H68.643V16.2052C68.643 13.5492 70.787 11.4052 73.443 11.4052V7.05321H72.803C67.491 7.05321 63.843 11.1492 63.843 16.2052ZM85.1982 7.05321C79.9502 7.05321 75.6942 11.1492 75.6942 16.2052C75.6942 21.2612 79.9502 25.3572 85.1982 25.3572C87.2782 25.3572 89.1342 24.3012 90.2222 22.7012V24.8452H94.7022V16.2052C94.7022 11.1492 90.4462 7.05321 85.1982 7.05321ZM85.2942 21.0052C82.6382 21.0052 80.4942 18.8612 80.4942 16.2052C80.4942 13.5492 82.6382 11.4052 85.2942 11.4052C87.9502 11.4052 90.0942 13.5492 90.0942 16.2052C90.0942 18.8612 87.9502 21.0052 85.2942 21.0052ZM107.508 11.4052C109.364 11.4052 110.932 12.4292 111.764 13.9652H116.82C115.764 9.99721 111.988 7.05321 107.508 7.05321C102.196 7.05321 97.908 11.1492 97.908 16.2052C97.908 21.2612 102.196 25.3572 107.508 25.3572C111.956 25.3572 115.668 22.4772 116.756 18.5732H111.604C110.804 20.0132 109.3 21.0052 107.508 21.0052C104.852 21.0052 102.708 18.8612 102.708 16.2052C102.708 13.5492 104.852 11.4052 107.508 11.4052Z" fill="url(#paint0_linear_0_1)"/>
<path d="M125.195 27.8452V19.2052H127.817C127.909 19.2052 128.065 19.2072 128.285 19.2112C128.509 19.2152 128.723 19.2312 128.927 19.2592C129.583 19.3512 130.131 19.5952 130.571 19.9912C131.011 20.3872 131.341 20.8912 131.561 21.5032C131.781 22.1152 131.891 22.7892 131.891 23.5252C131.891 24.2612 131.781 24.9352 131.561 25.5472C131.341 26.1592 131.011 26.6632 130.571 27.0592C130.131 27.4552 129.583 27.6992 128.927 27.7912C128.727 27.8152 128.513 27.8312 128.285 27.8392C128.057 27.8432 127.901 27.8452 127.817 27.8452H125.195ZM126.107 26.9992H127.817C127.981 26.9992 128.157 26.9952 128.345 26.9872C128.537 26.9752 128.701 26.9552 128.837 26.9272C129.341 26.8392 129.747 26.6352 130.055 26.3152C130.367 25.9952 130.595 25.5952 130.739 25.1152C130.883 24.6312 130.955 24.1012 130.955 23.5252C130.955 22.9452 130.883 22.4132 130.739 21.9292C130.595 21.4452 130.367 21.0452 130.055 20.7292C129.743 20.4132 129.337 20.2112 128.837 20.1232C128.701 20.0952 128.535 20.0772 128.339 20.0692C128.147 20.0572 127.973 20.0512 127.817 20.0512H126.107V26.9992ZM135.112 28.0252C134.624 28.0252 134.214 27.9372 133.882 27.7612C133.554 27.5852 133.308 27.3512 133.144 27.0592C132.98 26.7672 132.898 26.4492 132.898 26.1052C132.898 25.7532 132.968 25.4532 133.108 25.2052C133.252 24.9532 133.446 24.7472 133.69 24.5872C133.938 24.4272 134.224 24.3052 134.548 24.2212C134.876 24.1412 135.238 24.0712 135.634 24.0112C136.034 23.9472 136.424 23.8932 136.804 23.8492C137.188 23.8012 137.524 23.7552 137.812 23.7112L137.5 23.9032C137.512 23.2632 137.388 22.7892 137.128 22.4812C136.868 22.1732 136.416 22.0192 135.772 22.0192C135.328 22.0192 134.952 22.1192 134.644 22.3192C134.34 22.5192 134.126 22.8352 134.002 23.2672L133.144 23.0152C133.292 22.4352 133.59 21.9852 134.038 21.6652C134.486 21.3452 135.068 21.1852 135.784 21.1852C136.376 21.1852 136.878 21.2972 137.29 21.5212C137.706 21.7412 138 22.0612 138.172 22.4812C138.252 22.6692 138.304 22.8792 138.328 23.1112C138.352 23.3432 138.364 23.5792 138.364 23.8192V27.8452H137.578V26.2192L137.806 26.3152C137.586 26.8712 137.244 27.2952 136.78 27.5872C136.316 27.8792 135.76 28.0252 135.112 28.0252ZM135.214 27.2632C135.626 27.2632 135.986 27.1892 136.294 27.0412C136.602 26.8932 136.85 26.6912 137.038 26.4352C137.226 26.1752 137.348 25.8832 137.404 25.5592C137.452 25.3512 137.478 25.1232 137.482 24.8752C137.486 24.6232 137.488 24.4352 137.488 24.3112L137.824 24.4852C137.524 24.5252 137.198 24.5652 136.846 24.6052C136.498 24.6452 136.154 24.6912 135.814 24.7432C135.478 24.7952 135.174 24.8572 134.902 24.9292C134.718 24.9812 134.54 25.0552 134.368 25.1512C134.196 25.2432 134.054 25.3672 133.942 25.5232C133.834 25.6792 133.78 25.8732 133.78 26.1052C133.78 26.2932 133.826 26.4752 133.918 26.6512C134.014 26.8272 134.166 26.9732 134.374 27.0892C134.586 27.2052 134.866 27.2632 135.214 27.2632ZM142.344 28.0192C141.584 28.0192 140.958 27.8552 140.466 27.5272C139.978 27.1992 139.678 26.7432 139.566 26.1592L140.466 26.0092C140.562 26.3772 140.78 26.6712 141.12 26.8912C141.464 27.1072 141.888 27.2152 142.392 27.2152C142.884 27.2152 143.272 27.1132 143.556 26.9092C143.84 26.7012 143.982 26.4192 143.982 26.0632C143.982 25.8632 143.936 25.7012 143.844 25.5772C143.756 25.4492 143.574 25.3312 143.298 25.2232C143.022 25.1152 142.61 24.9872 142.062 24.8392C141.474 24.6792 141.014 24.5192 140.682 24.3592C140.35 24.1992 140.114 24.0152 139.974 23.8072C139.834 23.5952 139.764 23.3372 139.764 23.0332C139.764 22.6652 139.868 22.3432 140.076 22.0672C140.284 21.7872 140.572 21.5712 140.94 21.4192C141.308 21.2632 141.736 21.1852 142.224 21.1852C142.712 21.1852 143.148 21.2652 143.532 21.4252C143.92 21.5812 144.232 21.8012 144.468 22.0852C144.704 22.3692 144.844 22.6992 144.888 23.0752L143.988 23.2372C143.928 22.8572 143.738 22.5572 143.418 22.3372C143.102 22.1132 142.7 21.9972 142.212 21.9892C141.752 21.9772 141.378 22.0652 141.09 22.2532C140.802 22.4372 140.658 22.6832 140.658 22.9912C140.658 23.1632 140.71 23.3112 140.814 23.4352C140.918 23.5552 141.106 23.6692 141.378 23.7772C141.654 23.8852 142.046 24.0032 142.554 24.1312C143.15 24.2832 143.618 24.4432 143.958 24.6112C144.298 24.7792 144.54 24.9772 144.684 25.2052C144.828 25.4332 144.9 25.7152 144.9 26.0512C144.9 26.6632 144.672 27.1452 144.216 27.4972C143.764 27.8452 143.14 28.0192 142.344 28.0192ZM150.911 27.8452V24.5392C150.911 24.1792 150.877 23.8492 150.809 23.5492C150.741 23.2452 150.631 22.9812 150.479 22.7572C150.331 22.5292 150.137 22.3532 149.897 22.2292C149.661 22.1052 149.373 22.0432 149.033 22.0432C148.721 22.0432 148.445 22.0972 148.205 22.2052C147.969 22.3132 147.769 22.4692 147.605 22.6732C147.445 22.8732 147.323 23.1172 147.239 23.4052C147.155 23.6932 147.113 24.0212 147.113 24.3892L146.489 24.2512C146.489 23.5872 146.605 23.0292 146.837 22.5772C147.069 22.1252 147.389 21.7832 147.797 21.5512C148.205 21.3192 148.673 21.2032 149.201 21.2032C149.589 21.2032 149.927 21.2632 150.215 21.3832C150.507 21.5032 150.753 21.6652 150.953 21.8692C151.157 22.0732 151.321 22.3072 151.445 22.5712C151.569 22.8312 151.659 23.1092 151.715 23.4052C151.771 23.6972 151.799 23.9892 151.799 24.2812V27.8452H150.911ZM146.225 27.8452V19.2052H147.023V24.0832H147.113V27.8452H146.225ZM156.266 28.0252C155.67 28.0252 155.166 27.8752 154.754 27.5752C154.342 27.2712 154.03 26.8612 153.818 26.3452C153.606 25.8252 153.5 25.2432 153.5 24.5992C153.5 23.9432 153.606 23.3592 153.818 22.8472C154.034 22.3312 154.35 21.9252 154.766 21.6292C155.182 21.3332 155.694 21.1852 156.302 21.1852C156.894 21.1852 157.402 21.3352 157.826 21.6352C158.25 21.9352 158.574 22.3432 158.798 22.8592C159.026 23.3752 159.14 23.9552 159.14 24.5992C159.14 25.2472 159.026 25.8292 158.798 26.3452C158.57 26.8612 158.242 27.2712 157.814 27.5752C157.386 27.8752 156.87 28.0252 156.266 28.0252ZM153.35 27.8452V19.2052H154.238V22.9672H154.142V27.8452H153.35ZM156.176 27.2032C156.628 27.2032 157.004 27.0892 157.304 26.8612C157.604 26.6332 157.828 26.3232 157.976 25.9312C158.128 25.5352 158.204 25.0912 158.204 24.5992C158.204 24.1112 158.13 23.6712 157.982 23.2792C157.834 22.8872 157.608 22.5772 157.304 22.3492C157.004 22.1212 156.622 22.0072 156.158 22.0072C155.706 22.0072 155.33 22.1172 155.03 22.3372C154.734 22.5572 154.512 22.8632 154.364 23.2552C154.216 23.6432 154.142 24.0912 154.142 24.5992C154.142 25.0992 154.216 25.5472 154.364 25.9432C154.512 26.3352 154.736 26.6432 155.036 26.8672C155.336 27.0912 155.716 27.2032 156.176 27.2032ZM163.163 28.0252C162.519 28.0252 161.969 27.8792 161.513 27.5872C161.057 27.2952 160.707 26.8912 160.463 26.3752C160.219 25.8592 160.097 25.2672 160.097 24.5992C160.097 23.9192 160.221 23.3232 160.469 22.8112C160.717 22.2992 161.069 21.9012 161.525 21.6172C161.985 21.3292 162.531 21.1852 163.163 21.1852C163.811 21.1852 164.363 21.3312 164.819 21.6232C165.279 21.9112 165.629 22.3132 165.869 22.8292C166.113 23.3412 166.235 23.9312 166.235 24.5992C166.235 25.2792 166.113 25.8772 165.869 26.3932C165.625 26.9052 165.273 27.3052 164.813 27.5932C164.353 27.8812 163.803 28.0252 163.163 28.0252ZM163.163 27.1792C163.883 27.1792 164.419 26.9412 164.771 26.4652C165.123 25.9852 165.299 25.3632 165.299 24.5992C165.299 23.8152 165.121 23.1912 164.765 22.7272C164.413 22.2632 163.879 22.0312 163.163 22.0312C162.679 22.0312 162.279 22.1412 161.963 22.3612C161.651 22.5772 161.417 22.8792 161.261 23.2672C161.109 23.6512 161.033 24.0952 161.033 24.5992C161.033 25.3792 161.213 26.0052 161.573 26.4772C161.933 26.9452 162.463 27.1792 163.163 27.1792ZM169.413 28.0252C168.925 28.0252 168.515 27.9372 168.183 27.7612C167.855 27.5852 167.609 27.3512 167.445 27.0592C167.281 26.7672 167.199 26.4492 167.199 26.1052C167.199 25.7532 167.269 25.4532 167.409 25.2052C167.553 24.9532 167.747 24.7472 167.991 24.5872C168.239 24.4272 168.525 24.3052 168.849 24.2212C169.177 24.1412 169.539 24.0712 169.935 24.0112C170.335 23.9472 170.725 23.8932 171.105 23.8492C171.489 23.8012 171.825 23.7552 172.113 23.7112L171.801 23.9032C171.813 23.2632 171.689 22.7892 171.429 22.4812C171.169 22.1732 170.717 22.0192 170.073 22.0192C169.629 22.0192 169.253 22.1192 168.945 22.3192C168.641 22.5192 168.427 22.8352 168.303 23.2672L167.445 23.0152C167.593 22.4352 167.891 21.9852 168.339 21.6652C168.787 21.3452 169.369 21.1852 170.085 21.1852C170.677 21.1852 171.179 21.2972 171.591 21.5212C172.007 21.7412 172.301 22.0612 172.473 22.4812C172.553 22.6692 172.605 22.8792 172.629 23.1112C172.653 23.3432 172.665 23.5792 172.665 23.8192V27.8452H171.879V26.2192L172.107 26.3152C171.887 26.8712 171.545 27.2952 171.081 27.5872C170.617 27.8792 170.061 28.0252 169.413 28.0252ZM169.515 27.2632C169.927 27.2632 170.287 27.1892 170.595 27.0412C170.903 26.8932 171.151 26.6912 171.339 26.4352C171.527 26.1752 171.649 25.8832 171.705 25.5592C171.753 25.3512 171.779 25.1232 171.783 24.8752C171.787 24.6232 171.789 24.4352 171.789 24.3112L172.125 24.4852C171.825 24.5252 171.499 24.5652 171.147 24.6052C170.799 24.6452 170.455 24.6912 170.115 24.7432C169.779 24.7952 169.475 24.8572 169.203 24.9292C169.019 24.9812 168.841 25.0552 168.669 25.1512C168.497 25.2432 168.355 25.3672 168.243 25.5232C168.135 25.6792 168.081 25.8732 168.081 26.1052C168.081 26.2932 168.127 26.4752 168.219 26.6512C168.315 26.8272 168.467 26.9732 168.675 27.0892C168.887 27.2052 169.167 27.2632 169.515 27.2632ZM174.227 27.8452V21.3652H175.019V22.9252L174.863 22.7212C174.935 22.5292 175.029 22.3532 175.145 22.1932C175.261 22.0292 175.387 21.8952 175.523 21.7912C175.691 21.6432 175.887 21.5312 176.111 21.4552C176.335 21.3752 176.561 21.3292 176.789 21.3172C177.017 21.3012 177.225 21.3172 177.413 21.3652V22.1932C177.177 22.1332 176.919 22.1192 176.639 22.1512C176.359 22.1832 176.101 22.2952 175.865 22.4872C175.649 22.6552 175.487 22.8572 175.379 23.0932C175.271 23.3252 175.199 23.5732 175.163 23.8372C175.127 24.0972 175.109 24.3552 175.109 24.6112V27.8452H174.227ZM180.948 28.0252C180.344 28.0252 179.828 27.8752 179.4 27.5752C178.972 27.2712 178.644 26.8612 178.416 26.3452C178.188 25.8292 178.074 25.2472 178.074 24.5992C178.074 23.9552 178.186 23.3752 178.41 22.8592C178.638 22.3432 178.964 21.9352 179.388 21.6352C179.812 21.3352 180.32 21.1852 180.912 21.1852C181.52 21.1852 182.032 21.3332 182.448 21.6292C182.864 21.9252 183.178 22.3312 183.39 22.8472C183.606 23.3592 183.714 23.9432 183.714 24.5992C183.714 25.2432 183.608 25.8252 183.396 26.3452C183.184 26.8612 182.872 27.2712 182.46 27.5752C182.048 27.8752 181.544 28.0252 180.948 28.0252ZM181.038 27.2032C181.498 27.2032 181.878 27.0912 182.178 26.8672C182.478 26.6432 182.702 26.3352 182.85 25.9432C182.998 25.5472 183.072 25.0992 183.072 24.5992C183.072 24.0912 182.998 23.6432 182.85 23.2552C182.702 22.8632 182.478 22.5572 182.178 22.3372C181.882 22.1172 181.508 22.0072 181.056 22.0072C180.592 22.0072 180.208 22.1212 179.904 22.3492C179.6 22.5772 179.374 22.8872 179.226 23.2792C179.082 23.6712 179.01 24.1112 179.01 24.5992C179.01 25.0912 179.084 25.5352 179.232 25.9312C179.384 26.3232 179.61 26.6332 179.91 26.8612C180.21 27.0892 180.586 27.2032 181.038 27.2032ZM183.072 27.8452V22.9672H182.976V19.2052H183.864V27.8452H183.072Z" fill="#CDCED0"/>
<defs>
<linearGradient id="paint0_linear_0_1" x1="-0.644531" y1="8.60995" x2="117.36" y2="22.1942" gradientUnits="userSpaceOnUse">
<stop stop-color="#FBFBFB"/>
<stop offset="0.458333" stop-color="#F4F4F4"/>
<stop offset="1" stop-color="#E1E1E1"/>
</linearGradient>
</defs>
</svg>
