<svg width="141" height="36" viewBox="0 0 141 36" fill="none" xmlns="http://www.w3.org/2000/svg">
<path d="M2.94165 9.8193L17.135 1.66528L31.3282 9.8193V26.1273L17.135 34.2814L2.94165 26.1273V9.8193Z" fill="url(#paint0_linear_32_204)"/>
<path d="M24.1241 17.959L20.6217 23.996L17.1194 17.959H24.1241Z" fill="url(#paint1_linear_32_204)"/>
<path d="M17.1308 17.9768L13.6285 24.0136L10.1261 17.9768H17.1308Z" fill="url(#paint2_linear_32_204)"/>
<path d="M20.6372 24.0147H13.6326L17.1349 17.9783L20.6372 24.0147Z" fill="url(#paint3_linear_32_204)"/>
<path d="M24.1452 17.9733L20.6427 11.9363L17.1404 17.9733H24.1452Z" fill="url(#paint4_linear_32_204)"/>
<path d="M17.1347 17.9765L13.6324 11.9395L10.13 17.9765H17.1347Z" fill="url(#paint5_linear_32_204)"/>
<path d="M20.6387 11.9387H13.6339L17.1362 17.975L20.6387 11.9387Z" fill="url(#paint6_linear_32_204)"/>
<path d="M20.639 11.9387L27.584 11.969V17.9795L20.639 11.9387Z" fill="url(#paint7_linear_32_204)"/>
<path d="M27.584 23.9778V17.9795L20.639 11.9387L27.584 23.9778Z" fill="url(#paint8_linear_32_204)"/>
<path d="M6.68152 23.9775L13.6308 24.0142L6.68152 17.9792V23.9775Z" fill="url(#paint9_linear_32_204)"/>
<path d="M6.68152 17.9795V11.969L13.6308 24.0145L6.68152 17.9795Z" fill="url(#paint10_linear_32_204)"/>
<path d="M13.6339 11.9386L17.1323 5.9646L22.358 8.96676L13.6339 11.9386Z" fill="url(#paint11_linear_32_204)"/>
<path d="M13.6339 11.9389L22.358 8.96704L27.5835 11.9692L13.6339 11.9389Z" fill="url(#paint12_linear_32_204)"/>
<path d="M20.6375 24.0142L17.1348 29.9816L11.9413 26.9979L20.6375 24.0142Z" fill="url(#paint13_linear_32_204)"/>
<path d="M6.68152 23.9773L11.9393 26.9977L20.6355 24.014L6.68152 23.9773Z" fill="url(#paint14_linear_32_204)"/>
<path d="M24.1399 17.9792L27.5851 23.9775L22.3594 26.9796L24.1399 17.9792Z" fill="url(#paint15_linear_32_204)"/>
<path d="M24.1388 17.9792L22.3583 26.9796L17.1326 29.9816L24.1388 17.9792Z" fill="url(#paint16_linear_32_204)"/>
<path d="M10.1256 17.9769L6.68152 11.9692L11.9072 8.96704L10.1256 17.9769Z" fill="url(#paint17_linear_32_204)"/>
<path d="M17.1334 5.9646L11.9077 8.96676L10.1261 17.9767L17.1334 5.9646Z" fill="url(#paint18_linear_32_204)"/>
<path d="M6.68152 11.969L11.0988 7.57349L11.9072 8.96679L6.68152 11.969Z" fill="url(#paint19_linear_32_204)"/>
<path d="M11.1002 7.57346L17.1343 5.9646L11.9086 8.96676L11.1002 7.57346Z" fill="url(#paint20_linear_32_204)"/>
<path d="M17.1326 5.9646L23.1666 7.57346L22.3583 8.96676L17.1326 5.9646Z" fill="url(#paint21_linear_32_204)"/>
<path d="M23.1679 7.57349L27.5851 11.969L22.3594 8.96679L23.1679 7.57349Z" fill="url(#paint22_linear_32_204)"/>
<path d="M27.5835 11.969L29.2005 17.9733L27.5835 17.9795V11.969Z" fill="url(#paint23_linear_32_204)"/>
<path d="M29.2005 17.9731L27.5835 23.9776V17.9794L29.2005 17.9731Z" fill="url(#paint24_linear_32_204)"/>
<path d="M17.1326 29.9823L23.1666 28.3735L22.3583 26.9802L17.1326 29.9823Z" fill="url(#paint25_linear_32_204)"/>
<path d="M27.5851 23.9773L23.1679 28.3727L22.3594 26.9794L27.5851 23.9773Z" fill="url(#paint26_linear_32_204)"/>
<path d="M6.68152 23.9773L11.0988 28.3727L11.9392 26.9977L6.68152 23.9773Z" fill="url(#paint27_linear_32_204)"/>
<path d="M11.1002 28.3727L17.1343 29.9815L11.9407 26.9978L11.1002 28.3727Z" fill="url(#paint28_linear_32_204)"/>
<path d="M6.6821 11.969L5.06531 17.9733L6.6821 17.9795V11.969Z" fill="url(#paint29_linear_32_204)"/>
<path d="M5.06531 17.9731L6.6821 23.9776V17.9794L5.06531 17.9731Z" fill="url(#paint30_linear_32_204)"/>
<path d="M2.94165 9.81929L10.405 6.37434L17.1349 1.66528L2.94165 9.81929Z" fill="#3B424E"/>
<path d="M2.93896 9.81958L3.67239 17.9736L2.93896 26.1276V9.81958Z" fill="#0D0D11"/>
<path d="M2.93896 26.1274L10.4023 29.5725L17.1322 34.2814L2.93896 26.1274Z" fill="#5D6475"/>
<path d="M17.1326 34.2814L23.8625 29.5725L31.3258 26.1274L17.1326 34.2814Z" fill="#555D6B"/>
<path d="M31.3279 26.1276L30.5944 17.9736L31.3279 9.81958V26.1276Z" fill="#747C8F"/>
<path d="M17.1326 1.66528L23.8625 6.3743L31.3258 9.81929L17.1326 1.66528Z" fill="#737A8B"/>
<path d="M11.0988 7.57357L17.1329 1.66528L10.403 6.37433L6.68152 11.969L11.0988 7.57357Z" fill="url(#paint31_linear_32_204)"/>
<path d="M2.93896 9.81946L5.06404 17.9735L6.68085 11.9692L10.4023 6.37451L2.93896 9.81946Z" fill="url(#paint32_linear_32_204)"/>
<path d="M3.67239 17.9736L6.68085 23.978L2.93896 9.81958L3.67239 17.9736Z" fill="url(#paint33_linear_32_204)"/>
<path d="M3.67239 17.9731L2.93896 26.1272L11.0981 28.373L6.68085 23.9776L3.67239 17.9731Z" fill="url(#paint34_linear_32_204)"/>
<path d="M10.4023 29.5725L17.1322 29.982L2.93896 26.1274L10.4023 29.5725Z" fill="url(#paint35_linear_32_204)"/>
<path d="M10.4055 29.5723L17.1354 34.2812L23.1695 28.373L17.1354 29.9818L10.4055 29.5723Z" fill="url(#paint36_linear_32_204)"/>
<path d="M23.1666 28.3727L17.1326 34.2808L23.8625 29.5719L27.5838 23.9773L23.1666 28.3727Z" fill="url(#paint37_linear_32_204)"/>
<path d="M27.5847 23.9776L23.8634 29.5723L31.3268 26.1272L29.2017 17.9731L27.5847 23.9776Z" fill="url(#paint38_linear_32_204)"/>
<path d="M29.2005 17.9733L31.3254 26.1273L30.592 17.9733L27.5835 11.969L29.2005 17.9733Z" fill="url(#paint39_linear_32_204)"/>
<path d="M27.5872 11.969L30.5957 17.9732L31.3292 9.81921L23.17 7.57349L27.5872 11.969Z" fill="url(#paint40_linear_32_204)"/>
<path d="M17.1326 5.9646L23.8625 6.3742L31.3259 9.81918L23.1666 7.57346L17.1326 5.9646Z" fill="url(#paint41_linear_32_204)"/>
<path d="M11.1002 7.57357L17.1343 5.9647L23.8642 6.3743L17.1343 1.66528L11.1002 7.57357Z" fill="url(#paint42_linear_32_204)"/>
<path d="M60.3002 9.36956V27.9419H56.9082V16.5374C56.9082 16.2985 56.9125 16.0425 56.921 15.7694C56.9381 15.4963 56.9637 15.219 56.9978 14.9374L51.686 25.0108C51.3958 25.5654 50.9479 25.8427 50.342 25.8427H49.8044C49.5058 25.8427 49.2412 25.7745 49.0108 25.638C48.7804 25.4929 48.597 25.2838 48.4605 25.0108L43.123 14.899C43.1486 15.1977 43.1699 15.4878 43.187 15.7694C43.2041 16.0425 43.2126 16.2985 43.2126 16.5374V27.9419H39.8207V9.36956H42.739C42.9011 9.36956 43.0462 9.37383 43.1742 9.38236C43.3022 9.39089 43.4131 9.41649 43.507 9.45916C43.6094 9.49329 43.699 9.55302 43.7758 9.63835C43.8611 9.71515 43.9422 9.82608 44.019 9.97115L49.2156 19.8781C49.3778 20.1768 49.5271 20.4839 49.6636 20.7997C49.8087 21.1154 49.9452 21.4397 50.0732 21.7724C50.2012 21.4311 50.3335 21.0983 50.47 20.7741C50.6151 20.4498 50.7687 20.1384 50.9308 19.8397L56.0891 9.97115C56.1659 9.82608 56.2469 9.71515 56.3323 9.63835C56.4176 9.55302 56.5072 9.49329 56.6011 9.45916C56.7034 9.41649 56.8144 9.39089 56.9338 9.38236C57.0618 9.37383 57.2112 9.36956 57.3818 9.36956H60.3002ZM68.0356 27.9419H64.1701V9.36956H68.0356V27.9419ZM79.5229 24.87C80.1458 24.87 80.7047 24.7676 81.1996 24.5628C81.6946 24.3495 82.1127 24.0508 82.454 23.6668C82.7953 23.2828 83.0556 22.8178 83.2348 22.2716C83.414 21.7255 83.5036 21.1111 83.5036 20.4285V9.36956H87.3435V20.4285C87.3435 21.5549 87.16 22.5916 86.7931 23.5388C86.4347 24.4774 85.9184 25.2881 85.2443 25.9707C84.5702 26.6534 83.751 27.1867 82.7868 27.5707C81.8225 27.9547 80.7346 28.1467 79.5229 28.1467C78.3112 28.1467 77.2189 27.9547 76.2462 27.5707C75.2819 27.1867 74.4627 26.6534 73.7886 25.9707C73.1145 25.2881 72.594 24.4774 72.2271 23.5388C71.8687 22.5916 71.6895 21.5549 71.6895 20.4285V9.36956H75.5294V20.4285C75.5294 21.1111 75.619 21.7255 75.7982 22.2716C75.9774 22.8178 76.2376 23.2828 76.5789 23.6668C76.9203 24.0508 77.3384 24.3495 77.8333 24.5628C78.3282 24.7676 78.8914 24.87 79.5229 24.87ZM96.8054 18.1629C97.4284 18.1629 97.9659 18.0861 98.4182 17.9325C98.8705 17.7704 99.2416 17.5528 99.5318 17.2798C99.8219 16.9982 100.035 16.6696 100.172 16.2942C100.308 15.9187 100.377 15.5091 100.377 15.0654C100.377 14.1865 100.082 13.5039 99.4934 13.0175C98.9131 12.5311 98.0257 12.2879 96.831 12.2879H94.8343V18.1629H96.8054ZM105.804 27.9419H102.335C101.686 27.9419 101.217 27.6944 100.927 27.1995L97.3942 21.5037C97.2492 21.2818 97.087 21.1197 96.9078 21.0173C96.7372 20.9149 96.4812 20.8637 96.1399 20.8637H94.8343V27.9419H90.9944V9.36956H96.831C98.1281 9.36956 99.2374 9.50609 100.159 9.77915C101.081 10.0437 101.836 10.4149 102.424 10.8927C103.013 11.3706 103.444 11.9423 103.717 12.6079C103.99 13.2649 104.127 13.9902 104.127 14.7838C104.127 15.3982 104.037 15.9827 103.858 16.5374C103.687 17.0835 103.436 17.5827 103.103 18.0349C102.77 18.4872 102.36 18.8883 101.874 19.2381C101.388 19.588 100.833 19.8696 100.21 20.0829C100.458 20.2194 100.688 20.3858 100.901 20.5821C101.115 20.7698 101.307 20.9959 101.477 21.2605L105.804 27.9419ZM117.424 20.8893L115.414 15.2062C115.295 14.9076 115.167 14.5577 115.03 14.1566C114.902 13.7556 114.778 13.3204 114.659 12.8511C114.539 13.3289 114.411 13.7727 114.275 14.1822C114.147 14.5833 114.023 14.9332 113.904 15.2318L111.907 20.8893H117.424ZM123.875 27.9419H120.892C120.559 27.9419 120.286 27.8651 120.073 27.7115C119.868 27.5494 119.715 27.3446 119.612 27.0971L118.358 23.5516H110.96L109.705 27.0971C109.62 27.3104 109.471 27.5067 109.257 27.6859C109.044 27.8566 108.775 27.9419 108.451 27.9419H105.443L112.7 9.36956H116.63L123.875 27.9419ZM137.665 23.3724C137.878 23.3724 138.057 23.4492 138.202 23.6028L139.725 25.2284C138.974 26.1841 138.04 26.9094 136.922 27.4043C135.813 27.8992 134.49 28.1467 132.954 28.1467C131.563 28.1467 130.313 27.912 129.204 27.4427C128.095 26.9649 127.152 26.3035 126.375 25.4588C125.599 24.614 125.001 23.6113 124.583 22.4508C124.165 21.2903 123.956 20.0232 123.956 18.6493C123.956 17.7278 124.054 16.8531 124.251 16.0254C124.455 15.1891 124.75 14.4212 125.134 13.7215C125.518 13.0217 125.979 12.3903 126.516 11.8271C127.062 11.2639 127.677 10.7861 128.359 10.3935C129.042 9.99248 129.784 9.68955 130.586 9.48476C131.397 9.27143 132.259 9.16477 133.172 9.16477C133.855 9.16477 134.499 9.2245 135.105 9.34396C135.719 9.46343 136.291 9.62982 136.82 9.84315C137.349 10.0565 137.835 10.3167 138.279 10.6239C138.731 10.9226 139.137 11.2511 139.495 11.6095L138.202 13.3759C138.125 13.4868 138.027 13.5849 137.908 13.6703C137.788 13.7556 137.626 13.7983 137.421 13.7983C137.217 13.7983 137.008 13.7257 136.794 13.5807C136.589 13.4356 136.333 13.2735 136.026 13.0943C135.728 12.9151 135.348 12.7529 134.887 12.6079C134.435 12.4628 133.859 12.3903 133.159 12.3903C132.383 12.3903 131.67 12.5311 131.022 12.8127C130.373 13.0943 129.814 13.5039 129.345 14.0414C128.884 14.5705 128.526 15.2233 128.27 15.9998C128.014 16.7763 127.886 17.6595 127.886 18.6493C127.886 19.6477 128.022 20.5394 128.295 21.3245C128.577 22.101 128.957 22.758 129.434 23.2956C129.921 23.8332 130.484 24.2428 131.124 24.5244C131.772 24.7974 132.464 24.934 133.198 24.934C133.633 24.934 134.025 24.9126 134.375 24.87C134.733 24.8273 135.062 24.7548 135.361 24.6524C135.668 24.55 135.954 24.4177 136.218 24.2556C136.491 24.0935 136.764 23.8887 137.037 23.6412C137.131 23.5644 137.229 23.5004 137.332 23.4492C137.434 23.398 137.545 23.3724 137.665 23.3724Z" fill="#4A4A68"/>
<defs>
<linearGradient id="paint0_linear_32_204" x1="2.94165" y1="17.9733" x2="31.3282" y2="17.9733" gradientUnits="userSpaceOnUse">
<stop offset="1" stop-color="#3B3F4C"/>
</linearGradient>
<linearGradient id="paint1_linear_32_204" x1="20.6217" y1="17.959" x2="20.6217" y2="23.996" gradientUnits="userSpaceOnUse">
<stop stop-color="#58606D"/>
<stop offset="1" stop-color="#484D59"/>
</linearGradient>
<linearGradient id="paint2_linear_32_204" x1="15.788" y1="22.412" x2="13.6517" y2="17.9807" gradientUnits="userSpaceOnUse">
<stop stop-color="#141419"/>
<stop offset="1" stop-color="#0F0F13"/>
</linearGradient>
<linearGradient id="paint3_linear_32_204" x1="17.5673" y1="19.424" x2="17.1133" y2="24.2927" gradientUnits="userSpaceOnUse">
<stop stop-color="#0C0D10"/>
<stop offset="1" stop-color="#1D2630"/>
</linearGradient>
<linearGradient id="paint4_linear_32_204" x1="20.6427" y1="11.9363" x2="20.6427" y2="17.9733" gradientUnits="userSpaceOnUse">
<stop stop-color="#434954"/>
<stop offset="1" stop-color="#5A626F"/>
</linearGradient>
<linearGradient id="paint5_linear_32_204" x1="12.1606" y1="12.5131" x2="13.5829" y2="17.8455" gradientUnits="userSpaceOnUse">
<stop stop-color="#0D0D11"/>
<stop offset="1" stop-color="#121216"/>
</linearGradient>
<linearGradient id="paint6_linear_32_204" x1="18.3446" y1="17.6222" x2="17.2428" y2="12.3882" gradientUnits="userSpaceOnUse">
<stop stop-color="#191C20"/>
<stop offset="1" stop-color="#222933"/>
</linearGradient>
<linearGradient id="paint7_linear_32_204" x1="28.385" y1="15.2509" x2="21.5496" y2="12.8675" gradientUnits="userSpaceOnUse">
<stop stop-color="#21292F"/>
<stop offset="1" stop-color="#1A2229"/>
</linearGradient>
<linearGradient id="paint8_linear_32_204" x1="20.9263" y1="11.7338" x2="27.8168" y2="21.397" gradientUnits="userSpaceOnUse">
<stop stop-color="#0C0E10"/>
<stop offset="1" stop-color="#0C0D10"/>
</linearGradient>
<linearGradient id="paint9_linear_32_204" x1="5.18844" y1="19.682" x2="12.1086" y2="25.7501" gradientUnits="userSpaceOnUse">
<stop stop-color="#313A42"/>
<stop offset="1" stop-color="#262C32"/>
</linearGradient>
<linearGradient id="paint10_linear_32_204" x1="5.7115" y1="12.9229" x2="11.9194" y2="24.3122" gradientUnits="userSpaceOnUse">
<stop stop-color="#6C747F"/>
<stop offset="1" stop-color="#79828D"/>
</linearGradient>
<linearGradient id="paint11_linear_32_204" x1="19.6773" y1="7.52039" x2="14.0407" y2="12.11" gradientUnits="userSpaceOnUse">
<stop stop-color="#101219"/>
<stop offset="1" stop-color="#363D48"/>
</linearGradient>
<linearGradient id="paint12_linear_32_204" x1="24.542" y1="10.5268" x2="13.6355" y2="12.0338" gradientUnits="userSpaceOnUse">
<stop stop-color="#262D36"/>
<stop offset="1" stop-color="#38414B"/>
</linearGradient>
<linearGradient id="paint13_linear_32_204" x1="14.3846" y1="28.6903" x2="18.8307" y2="22.8218" gradientUnits="userSpaceOnUse">
<stop stop-color="#535B64"/>
<stop offset="1" stop-color="#4D535C"/>
</linearGradient>
<linearGradient id="paint14_linear_32_204" x1="11.6209" y1="27.1715" x2="13.7868" y2="23.762" gradientUnits="userSpaceOnUse">
<stop stop-color="#252B35"/>
<stop offset="1" stop-color="#2B323C"/>
</linearGradient>
<linearGradient id="paint15_linear_32_204" x1="24.6157" y1="17.9762" x2="24.97" y2="25.5068" gradientUnits="userSpaceOnUse">
<stop stop-color="#454C57"/>
<stop offset="1" stop-color="#3B424C"/>
</linearGradient>
<linearGradient id="paint16_linear_32_204" x1="25.3335" y1="18.6518" x2="18.626" y2="30.5668" gradientUnits="userSpaceOnUse">
<stop stop-color="#0C0C0F"/>
<stop offset="1" stop-color="#0D0D10"/>
</linearGradient>
<linearGradient id="paint17_linear_32_204" x1="11.9925" y1="9.25227" x2="8.4217" y2="15.0008" gradientUnits="userSpaceOnUse">
<stop stop-color="#050608"/>
<stop offset="1" stop-color="#101822"/>
</linearGradient>
<linearGradient id="paint18_linear_32_204" x1="15.7254" y1="5.38833" x2="8.89036" y2="17.29" gradientUnits="userSpaceOnUse">
<stop stop-color="#8C959E"/>
<stop offset="1" stop-color="#666E7A"/>
</linearGradient>
<linearGradient id="paint19_linear_32_204" x1="11.5237" y1="8.26527" x2="6.28687" y2="11.2896" gradientUnits="userSpaceOnUse">
<stop stop-color="#343944"/>
<stop offset="0.37292"/>
</linearGradient>
<linearGradient id="paint20_linear_32_204" x1="12.407" y1="9.21429" x2="15.4164" y2="4.86878" gradientUnits="userSpaceOnUse">
<stop stop-color="#3A3E49"/>
<stop offset="1" stop-color="#0E1520"/>
</linearGradient>
<linearGradient id="paint21_linear_32_204" x1="22.8128" y1="8.29683" x2="17.7446" y2="5.57931" gradientUnits="userSpaceOnUse">
<stop stop-color="#2D353E"/>
<stop offset="1" stop-color="#2B333C"/>
</linearGradient>
<linearGradient id="paint22_linear_32_204" x1="22.7514" y1="8.26092" x2="27.5744" y2="11.9473" gradientUnits="userSpaceOnUse">
<stop stop-color="#6A7280"/>
<stop offset="1" stop-color="#4F5662"/>
</linearGradient>
<linearGradient id="paint23_linear_32_204" x1="27.5675" y1="11.9551" x2="28.3844" y2="17.9805" gradientUnits="userSpaceOnUse">
<stop stop-color="#666D7A"/>
<stop offset="1" stop-color="#6E7681"/>
</linearGradient>
<linearGradient id="paint24_linear_32_204" x1="28.3924" y1="17.9732" x2="27.5754" y2="23.9641" gradientUnits="userSpaceOnUse">
<stop stop-color="#707887"/>
<stop offset="1" stop-color="#707887"/>
</linearGradient>
<linearGradient id="paint25_linear_32_204" x1="22.8634" y1="27.6404" x2="17.3304" y2="29.6593" gradientUnits="userSpaceOnUse">
<stop stop-color="#384048"/>
<stop offset="1" stop-color="#383F48"/>
</linearGradient>
<linearGradient id="paint26_linear_32_204" x1="22.4768" y1="28.3352" x2="26.7589" y2="23.3841" gradientUnits="userSpaceOnUse">
<stop stop-color="#686F7C"/>
<stop offset="1" stop-color="#585C67"/>
</linearGradient>
<linearGradient id="paint27_linear_32_204" x1="6.7324" y1="23.9133" x2="11.4612" y2="27.6767" gradientUnits="userSpaceOnUse">
<stop stop-color="#121216"/>
<stop offset="1" stop-color="#10141B"/>
</linearGradient>
<linearGradient id="paint28_linear_32_204" x1="16.6402" y1="28.4837" x2="11.8238" y2="28.4988" gradientUnits="userSpaceOnUse">
<stop stop-color="#2E3641"/>
<stop offset="1" stop-color="#272E39"/>
</linearGradient>
<linearGradient id="paint29_linear_32_204" x1="4.47812" y1="15.5451" x2="7.37589" y2="14.7871" gradientUnits="userSpaceOnUse">
<stop stop-color="#101015"/>
<stop offset="1" stop-color="#07080B"/>
</linearGradient>
<linearGradient id="paint30_linear_32_204" x1="5.27365" y1="21.3208" x2="7.74671" y2="19.883" gradientUnits="userSpaceOnUse">
<stop stop-color="#0E0F13"/>
<stop offset="1" stop-color="#11151C"/>
</linearGradient>
<linearGradient id="paint31_linear_32_204" x1="16.1405" y1="1.62478" x2="6.77909" y2="11.1689" gradientUnits="userSpaceOnUse">
<stop stop-color="#6D7487"/>
<stop offset="1" stop-color="#7B8296"/>
</linearGradient>
<linearGradient id="paint32_linear_32_204" x1="3.91237" y1="14.0328" x2="8.9564" y2="6.24213" gradientUnits="userSpaceOnUse">
<stop stop-color="#131821"/>
<stop offset="1" stop-color="#111924"/>
</linearGradient>
<linearGradient id="paint33_linear_32_204" x1="2.26525" y1="9.99758" x2="5.94674" y2="23.9312" gradientUnits="userSpaceOnUse">
<stop stop-color="#6E778A"/>
<stop offset="1" stop-color="#6E7588"/>
</linearGradient>
<linearGradient id="paint34_linear_32_204" x1="3.6636" y1="26.4959" x2="6.80291" y2="23.6652" gradientUnits="userSpaceOnUse">
<stop stop-color="#262D36"/>
<stop offset="1" stop-color="#3E4651"/>
</linearGradient>
<linearGradient id="paint35_linear_32_204" x1="7.93228" y1="30.4567" x2="11.2045" y2="26.6826" gradientUnits="userSpaceOnUse">
<stop stop-color="#3E4652"/>
<stop offset="1" stop-color="#2C343E"/>
</linearGradient>
<linearGradient id="paint36_linear_32_204" x1="14.3752" y1="31.9708" x2="18.8632" y2="26.3374" gradientUnits="userSpaceOnUse">
<stop stop-color="#414955"/>
<stop offset="1" stop-color="#515963"/>
</linearGradient>
<linearGradient id="paint37_linear_32_204" x1="27.2406" y1="24.8232" x2="18.1992" y2="34.4422" gradientUnits="userSpaceOnUse">
<stop stop-color="#1F2223"/>
<stop offset="1" stop-color="#040707"/>
</linearGradient>
<linearGradient id="paint38_linear_32_204" x1="30.6013" y1="21.5903" x2="24.6233" y2="29.8273" gradientUnits="userSpaceOnUse">
<stop stop-color="#1F252C"/>
<stop offset="1" stop-color="#474E58"/>
</linearGradient>
<linearGradient id="paint39_linear_32_204" x1="28.1803" y1="11.8087" x2="31.898" y2="25.649" gradientUnits="userSpaceOnUse">
<stop stop-color="#0E0F11"/>
<stop offset="1" stop-color="#0E0F12"/>
</linearGradient>
<linearGradient id="paint40_linear_32_204" x1="27.7459" y1="12.2937" x2="31.5207" y2="10.1747" gradientUnits="userSpaceOnUse">
<stop stop-color="#1F2732"/>
<stop offset="1" stop-color="#373D48"/>
</linearGradient>
<linearGradient id="paint41_linear_32_204" x1="31.1907" y1="9.14545" x2="17.8545" y2="5.39691" gradientUnits="userSpaceOnUse">
<stop stop-color="#0F1521"/>
<stop offset="1" stop-color="#3B3F4C"/>
</linearGradient>
<linearGradient id="paint42_linear_32_204" x1="16.9503" y1="8.67567" x2="18.5493" y2="3.50879" gradientUnits="userSpaceOnUse">
<stop stop-color="#111929"/>
<stop offset="1" stop-color="#131721"/>
</linearGradient>
</defs>
</svg>
