<svg width="41" height="42" viewBox="0 0 41 42" fill="none" xmlns="http://www.w3.org/2000/svg">
<path d="M20.8584 41.2201C9.76036 41.2201 0.716797 32.1766 0.716797 21.0786C0.716797 9.98057 9.76036 0.937012 20.8584 0.937012C31.9564 0.937012 40.9999 9.0742 40.9999 19.0644C40.9999 25.7313 35.5818 31.1494 28.915 31.1494H25.3499C24.786 31.1494 24.3428 31.5925 24.3428 32.1564C24.3428 32.3981 24.4436 32.6197 24.6047 32.8211C25.4305 33.7678 25.8937 34.9561 25.8937 36.1847C25.8937 37.5202 25.3632 38.801 24.4189 39.7453C23.4746 40.6896 22.1938 41.2201 20.8584 41.2201ZM20.8584 4.96532C11.9759 4.96532 4.74511 12.1961 4.74511 21.0786C4.74511 29.961 11.9759 37.1918 20.8584 37.1918C21.4223 37.1918 21.8654 36.7487 21.8654 36.1847C21.8592 35.9235 21.7591 35.6733 21.5835 35.4798C20.7576 34.5533 20.3145 33.3649 20.3145 32.1564C20.3145 30.821 20.845 29.5402 21.7894 28.5959C22.7337 27.6516 24.0145 27.121 25.3499 27.121H28.915C33.3663 27.121 36.9716 23.5157 36.9716 19.0644C36.9716 11.2898 29.7408 4.96532 20.8584 4.96532Z" fill="white"/>
<path d="M9.78295 23.0928C11.4515 23.0928 12.8042 21.7401 12.8042 20.0715C12.8042 18.4029 11.4515 17.0503 9.78295 17.0503C8.11437 17.0503 6.76172 18.4029 6.76172 20.0715C6.76172 21.7401 8.11437 23.0928 9.78295 23.0928Z" fill="white"/>
<path d="M15.822 15.0359C17.4906 15.0359 18.8432 13.6832 18.8432 12.0146C18.8432 10.3461 17.4906 8.99341 15.822 8.99341C14.1534 8.99341 12.8008 10.3461 12.8008 12.0146C12.8008 13.6832 14.1534 15.0359 15.822 15.0359Z" fill="white"/>
<path d="M25.8943 15.0359C27.5629 15.0359 28.9155 13.6832 28.9155 12.0146C28.9155 10.3461 27.5629 8.99341 25.8943 8.99341C24.2257 8.99341 22.873 10.3461 22.873 12.0146C22.873 13.6832 24.2257 15.0359 25.8943 15.0359Z" fill="white"/>
<path d="M31.9392 23.0928C33.6078 23.0928 34.9604 21.7401 34.9604 20.0715C34.9604 18.4029 33.6078 17.0503 31.9392 17.0503C30.2706 17.0503 28.918 18.4029 28.918 20.0715C28.918 21.7401 30.2706 23.0928 31.9392 23.0928Z" fill="white"/>
</svg>
