<svg width="36" height="37" viewBox="0 0 36 37" fill="none" xmlns="http://www.w3.org/2000/svg">
<path d="M3.17969 9.73677L18.0763 1.17871L32.9728 9.73677V26.8529L18.0763 35.411L3.17969 26.8529V9.73677Z" fill="url(#paint0_linear_762_663)"/>
<path d="M25.4133 18.2793L21.7374 24.6155L18.0615 18.2793H25.4133Z" fill="url(#paint1_linear_762_663)"/>
<path d="M18.0715 18.2988L14.3957 24.6348L10.7197 18.2988H18.0715Z" fill="url(#paint2_linear_762_663)"/>
<path d="M21.7531 24.6353H14.4014L18.0773 18.2998L21.7531 24.6353Z" fill="url(#paint3_linear_762_663)"/>
<path d="M25.4332 18.2952L21.7572 11.959L18.0813 18.2952H25.4332Z" fill="url(#paint4_linear_762_663)"/>
<path d="M18.0764 18.2981L14.4005 11.9619L10.7246 18.2981H18.0764Z" fill="url(#paint5_linear_762_663)"/>
<path d="M21.7547 11.9609H14.4028L18.0787 18.2964L21.7547 11.9609Z" fill="url(#paint6_linear_762_663)"/>
<path d="M21.7546 11.9609L29.0437 11.9928V18.3011L21.7546 11.9609Z" fill="url(#paint7_linear_762_663)"/>
<path d="M29.0437 24.5965V18.3011L21.7546 11.9609L29.0437 24.5965Z" fill="url(#paint8_linear_762_663)"/>
<path d="M7.10547 24.5962L14.3991 24.6348L7.10547 18.3008V24.5962Z" fill="url(#paint9_linear_762_663)"/>
<path d="M7.10547 18.3015V11.9932L14.3991 24.6355L7.10547 18.3015Z" fill="url(#paint10_linear_762_663)"/>
<path d="M14.4028 11.9614L18.0745 5.69141L23.5592 8.84233L14.4028 11.9614Z" fill="url(#paint11_linear_762_663)"/>
<path d="M14.4028 11.9609L23.5592 8.8418L29.0437 11.9927L14.4028 11.9609Z" fill="url(#paint12_linear_762_663)"/>
<path d="M21.7523 24.6348L18.0761 30.8979L12.6252 27.7663L21.7523 24.6348Z" fill="url(#paint13_linear_762_663)"/>
<path d="M7.10547 24.5967L12.6238 27.7668L21.7509 24.6353L7.10547 24.5967Z" fill="url(#paint14_linear_762_663)"/>
<path d="M25.4288 18.3008L29.0447 24.5962L23.5601 27.7471L25.4288 18.3008Z" fill="url(#paint15_linear_762_663)"/>
<path d="M25.4281 18.3008L23.5593 27.7471L18.0747 30.8979L25.4281 18.3008Z" fill="url(#paint16_linear_762_663)"/>
<path d="M10.7202 18.2982L7.10547 11.9927L12.59 8.8418L10.7202 18.2982Z" fill="url(#paint17_linear_762_663)"/>
<path d="M18.0742 5.69141L12.5896 8.84233L10.7197 18.2987L18.0742 5.69141Z" fill="url(#paint18_linear_762_663)"/>
<path d="M7.10547 11.9932L11.7416 7.37988L12.59 8.84222L7.10547 11.9932Z" fill="url(#paint19_linear_762_663)"/>
<path d="M11.7429 7.37999L18.076 5.69141L12.5914 8.84233L11.7429 7.37999Z" fill="url(#paint20_linear_762_663)"/>
<path d="M18.0747 5.69141L24.4078 7.37999L23.5593 8.84233L18.0747 5.69141Z" fill="url(#paint21_linear_762_663)"/>
<path d="M24.4086 7.37988L29.0447 11.9932L23.5601 8.84222L24.4086 7.37988Z" fill="url(#paint22_linear_762_663)"/>
<path d="M29.0437 11.9932L30.7408 18.2949L29.0437 18.3015V11.9932Z" fill="url(#paint23_linear_762_663)"/>
<path d="M30.7408 18.2949L29.0437 24.5969V18.3015L30.7408 18.2949Z" fill="url(#paint24_linear_762_663)"/>
<path d="M18.0747 30.8989L24.4078 29.2104L23.5593 27.748L18.0747 30.8989Z" fill="url(#paint25_linear_762_663)"/>
<path d="M29.0447 24.5967L24.4086 29.2098L23.5601 27.7475L29.0447 24.5967Z" fill="url(#paint26_linear_762_663)"/>
<path d="M7.10547 24.5967L11.7416 29.2098L12.6237 27.7668L7.10547 24.5967Z" fill="url(#paint27_linear_762_663)"/>
<path d="M11.7429 29.2096L18.076 30.8982L12.625 27.7666L11.7429 29.2096Z" fill="url(#paint28_linear_762_663)"/>
<path d="M7.10511 11.9932L5.4082 18.2949L7.10511 18.3015V11.9932Z" fill="url(#paint29_linear_762_663)"/>
<path d="M5.4082 18.2949L7.10511 24.5969V18.3015L5.4082 18.2949Z" fill="url(#paint30_linear_762_663)"/>
<path d="M3.17969 9.73676L11.0128 6.1211L18.0762 1.17871L3.17969 9.73676Z" fill="#3B424E"/>
<path d="M3.17798 9.7373L3.94774 18.2953L3.17798 26.8534V9.7373Z" fill="#0D0D11"/>
<path d="M3.17798 26.8535L11.0111 30.4693L18.0745 35.4115L3.17798 26.8535Z" fill="#5D6475"/>
<path d="M18.0747 35.4115L25.1381 30.4693L32.9712 26.8535L18.0747 35.4115Z" fill="#555D6B"/>
<path d="M32.972 26.8534L32.2021 18.2953L32.972 9.7373V26.8534Z" fill="#747C8F"/>
<path d="M18.0747 1.17871L25.1381 6.12107L32.9712 9.73676L18.0747 1.17871Z" fill="#737A8B"/>
<path d="M11.7416 7.37977L18.0748 1.17871L11.0113 6.1211L7.10547 11.993L11.7416 7.37977Z" fill="url(#paint31_linear_762_663)"/>
<path d="M3.17798 9.73675L5.40836 18.2948L7.10528 11.993L11.0111 6.12109L3.17798 9.73675Z" fill="url(#paint32_linear_762_663)"/>
<path d="M3.94774 18.2953L7.10528 24.5973L3.17798 9.7373L3.94774 18.2953Z" fill="url(#paint33_linear_762_663)"/>
<path d="M3.94774 18.2949L3.17798 26.853L11.7414 29.2101L7.10528 24.5969L3.94774 18.2949Z" fill="url(#paint34_linear_762_663)"/>
<path d="M11.0111 30.4693L18.0745 30.8991L3.17798 26.8535L11.0111 30.4693Z" fill="url(#paint35_linear_762_663)"/>
<path d="M11.0132 30.4687L18.0766 35.4109L24.4096 29.21L18.0766 30.8985L11.0132 30.4687Z" fill="url(#paint36_linear_762_663)"/>
<path d="M24.4078 29.2098L18.0747 35.4108L25.1381 30.4686L29.0439 24.5967L24.4078 29.2098Z" fill="url(#paint37_linear_762_663)"/>
<path d="M29.0449 24.5969L25.1392 30.4688L32.9724 26.853L30.742 18.2949L29.0449 24.5969Z" fill="url(#paint38_linear_762_663)"/>
<path d="M30.7408 18.2949L32.9711 26.853L32.2013 18.2949L29.0437 11.9932L30.7408 18.2949Z" fill="url(#paint39_linear_762_663)"/>
<path d="M29.0455 11.9932L32.203 18.2949L32.9729 9.73689L24.4094 7.37988L29.0455 11.9932Z" fill="url(#paint40_linear_762_663)"/>
<path d="M18.0747 5.69141L25.1381 6.1213L32.9713 9.73699L24.4078 7.37999L18.0747 5.69141Z" fill="url(#paint41_linear_762_663)"/>
<path d="M11.7429 7.37977L18.076 5.69117L25.1394 6.12107L18.076 1.17871L11.7429 7.37977Z" fill="url(#paint42_linear_762_663)"/>
<defs>
<linearGradient id="paint0_linear_762_663" x1="3.17969" y1="18.2948" x2="32.9728" y2="18.2948" gradientUnits="userSpaceOnUse">
<stop offset="1" stop-color="#3B3F4C"/>
</linearGradient>
<linearGradient id="paint1_linear_762_663" x1="21.7374" y1="18.2793" x2="21.7374" y2="24.6155" gradientUnits="userSpaceOnUse">
<stop stop-color="#58606D"/>
<stop offset="1" stop-color="#484D59"/>
</linearGradient>
<linearGradient id="paint2_linear_762_663" x1="16.6622" y1="22.9538" x2="14.42" y2="18.3029" gradientUnits="userSpaceOnUse">
<stop stop-color="#141419"/>
<stop offset="1" stop-color="#0F0F13"/>
</linearGradient>
<linearGradient id="paint3_linear_762_663" x1="18.531" y1="19.8172" x2="18.0545" y2="24.9271" gradientUnits="userSpaceOnUse">
<stop stop-color="#0C0D10"/>
<stop offset="1" stop-color="#1D2630"/>
</linearGradient>
<linearGradient id="paint4_linear_762_663" x1="21.7572" y1="11.959" x2="21.7572" y2="18.2952" gradientUnits="userSpaceOnUse">
<stop stop-color="#434954"/>
<stop offset="1" stop-color="#5A626F"/>
</linearGradient>
<linearGradient id="paint5_linear_762_663" x1="12.8558" y1="12.564" x2="14.3486" y2="18.1606" gradientUnits="userSpaceOnUse">
<stop stop-color="#0D0D11"/>
<stop offset="1" stop-color="#121216"/>
</linearGradient>
<linearGradient id="paint6_linear_762_663" x1="19.347" y1="17.926" x2="18.1906" y2="12.4327" gradientUnits="userSpaceOnUse">
<stop stop-color="#191C20"/>
<stop offset="1" stop-color="#222933"/>
</linearGradient>
<linearGradient id="paint7_linear_762_663" x1="29.8844" y1="15.4372" x2="22.7103" y2="12.9357" gradientUnits="userSpaceOnUse">
<stop stop-color="#21292F"/>
<stop offset="1" stop-color="#1A2229"/>
</linearGradient>
<linearGradient id="paint8_linear_762_663" x1="22.0562" y1="11.7459" x2="29.288" y2="21.8879" gradientUnits="userSpaceOnUse">
<stop stop-color="#0C0E10"/>
<stop offset="1" stop-color="#0C0D10"/>
</linearGradient>
<linearGradient id="paint9_linear_762_663" x1="5.53841" y1="20.0879" x2="12.8015" y2="26.4567" gradientUnits="userSpaceOnUse">
<stop stop-color="#313A42"/>
<stop offset="1" stop-color="#262C32"/>
</linearGradient>
<linearGradient id="paint10_linear_762_663" x1="6.08739" y1="12.9943" x2="12.6029" y2="24.948" gradientUnits="userSpaceOnUse">
<stop stop-color="#6C747F"/>
<stop offset="1" stop-color="#79828D"/>
</linearGradient>
<linearGradient id="paint11_linear_762_663" x1="20.7456" y1="7.32429" x2="14.8297" y2="12.1414" gradientUnits="userSpaceOnUse">
<stop stop-color="#101219"/>
<stop offset="1" stop-color="#363D48"/>
</linearGradient>
<linearGradient id="paint12_linear_762_663" x1="25.8514" y1="10.4788" x2="14.4045" y2="12.0606" gradientUnits="userSpaceOnUse">
<stop stop-color="#262D36"/>
<stop offset="1" stop-color="#38414B"/>
</linearGradient>
<linearGradient id="paint13_linear_762_663" x1="15.1896" y1="29.5426" x2="19.856" y2="23.3833" gradientUnits="userSpaceOnUse">
<stop stop-color="#535B64"/>
<stop offset="1" stop-color="#4D535C"/>
</linearGradient>
<linearGradient id="paint14_linear_762_663" x1="12.2896" y1="27.9492" x2="14.5628" y2="24.3707" gradientUnits="userSpaceOnUse">
<stop stop-color="#252B35"/>
<stop offset="1" stop-color="#2B323C"/>
</linearGradient>
<linearGradient id="paint15_linear_762_663" x1="25.9281" y1="18.2976" x2="26.3001" y2="26.2013" gradientUnits="userSpaceOnUse">
<stop stop-color="#454C57"/>
<stop offset="1" stop-color="#3B424C"/>
</linearGradient>
<linearGradient id="paint16_linear_762_663" x1="26.682" y1="19.0067" x2="19.6421" y2="31.5121" gradientUnits="userSpaceOnUse">
<stop stop-color="#0C0C0F"/>
<stop offset="1" stop-color="#0D0D10"/>
</linearGradient>
<linearGradient id="paint17_linear_762_663" x1="12.6796" y1="9.14116" x2="8.93188" y2="15.1745" gradientUnits="userSpaceOnUse">
<stop stop-color="#050608"/>
<stop offset="1" stop-color="#101822"/>
</linearGradient>
<linearGradient id="paint18_linear_762_663" x1="16.5965" y1="5.08658" x2="9.42276" y2="17.578" gradientUnits="userSpaceOnUse">
<stop stop-color="#8C959E"/>
<stop offset="1" stop-color="#666E7A"/>
</linearGradient>
<linearGradient id="paint19_linear_762_663" x1="12.1876" y1="8.10594" x2="6.69127" y2="11.2802" gradientUnits="userSpaceOnUse">
<stop stop-color="#343944"/>
<stop offset="0.37292"/>
</linearGradient>
<linearGradient id="paint20_linear_762_663" x1="13.1145" y1="9.10212" x2="16.2729" y2="4.54129" gradientUnits="userSpaceOnUse">
<stop stop-color="#3A3E49"/>
<stop offset="1" stop-color="#0E1520"/>
</linearGradient>
<linearGradient id="paint21_linear_762_663" x1="24.0364" y1="8.1392" x2="18.7171" y2="5.28702" gradientUnits="userSpaceOnUse">
<stop stop-color="#2D353E"/>
<stop offset="1" stop-color="#2B333C"/>
</linearGradient>
<linearGradient id="paint22_linear_762_663" x1="23.9715" y1="8.10138" x2="29.0335" y2="11.9705" gradientUnits="userSpaceOnUse">
<stop stop-color="#6A7280"/>
<stop offset="1" stop-color="#4F5662"/>
</linearGradient>
<linearGradient id="paint23_linear_762_663" x1="29.0269" y1="11.9786" x2="29.8843" y2="18.3026" gradientUnits="userSpaceOnUse">
<stop stop-color="#666D7A"/>
<stop offset="1" stop-color="#6E7681"/>
</linearGradient>
<linearGradient id="paint24_linear_762_663" x1="29.8927" y1="18.295" x2="29.0352" y2="24.5828" gradientUnits="userSpaceOnUse">
<stop stop-color="#707887"/>
<stop offset="1" stop-color="#707887"/>
</linearGradient>
<linearGradient id="paint25_linear_762_663" x1="24.0895" y1="28.4409" x2="18.2824" y2="30.5599" gradientUnits="userSpaceOnUse">
<stop stop-color="#384048"/>
<stop offset="1" stop-color="#383F48"/>
</linearGradient>
<linearGradient id="paint26_linear_762_663" x1="23.6833" y1="29.1705" x2="28.1776" y2="23.9741" gradientUnits="userSpaceOnUse">
<stop stop-color="#686F7C"/>
<stop offset="1" stop-color="#585C67"/>
</linearGradient>
<linearGradient id="paint27_linear_762_663" x1="7.15887" y1="24.5295" x2="12.122" y2="28.4794" gradientUnits="userSpaceOnUse">
<stop stop-color="#121216"/>
<stop offset="1" stop-color="#10141B"/>
</linearGradient>
<linearGradient id="paint28_linear_762_663" x1="17.5574" y1="29.3261" x2="12.5023" y2="29.342" gradientUnits="userSpaceOnUse">
<stop stop-color="#2E3641"/>
<stop offset="1" stop-color="#272E39"/>
</linearGradient>
<linearGradient id="paint29_linear_762_663" x1="4.79192" y1="15.7465" x2="7.83328" y2="14.9509" gradientUnits="userSpaceOnUse">
<stop stop-color="#101015"/>
<stop offset="1" stop-color="#07080B"/>
</linearGradient>
<linearGradient id="paint30_linear_762_663" x1="5.62687" y1="21.8085" x2="8.22247" y2="20.2994" gradientUnits="userSpaceOnUse">
<stop stop-color="#0E0F13"/>
<stop offset="1" stop-color="#11151C"/>
</linearGradient>
<linearGradient id="paint31_linear_762_663" x1="17.0331" y1="1.1362" x2="7.20787" y2="11.1533" gradientUnits="userSpaceOnUse">
<stop stop-color="#6D7487"/>
<stop offset="1" stop-color="#7B8296"/>
</linearGradient>
<linearGradient id="paint32_linear_762_663" x1="4.19962" y1="14.1589" x2="9.49359" y2="5.98215" gradientUnits="userSpaceOnUse">
<stop stop-color="#131821"/>
<stop offset="1" stop-color="#111924"/>
</linearGradient>
<linearGradient id="paint33_linear_762_663" x1="2.47088" y1="9.92413" x2="6.33479" y2="24.5481" gradientUnits="userSpaceOnUse">
<stop stop-color="#6E778A"/>
<stop offset="1" stop-color="#6E7588"/>
</linearGradient>
<linearGradient id="paint34_linear_762_663" x1="3.93852" y1="27.24" x2="7.23339" y2="24.269" gradientUnits="userSpaceOnUse">
<stop stop-color="#262D36"/>
<stop offset="1" stop-color="#3E4651"/>
</linearGradient>
<linearGradient id="paint35_linear_762_663" x1="8.41872" y1="31.3973" x2="11.8531" y2="27.4362" gradientUnits="userSpaceOnUse">
<stop stop-color="#3E4652"/>
<stop offset="1" stop-color="#2C343E"/>
</linearGradient>
<linearGradient id="paint36_linear_762_663" x1="15.1796" y1="32.986" x2="19.8899" y2="27.0734" gradientUnits="userSpaceOnUse">
<stop stop-color="#414955"/>
<stop offset="1" stop-color="#515963"/>
</linearGradient>
<linearGradient id="paint37_linear_762_663" x1="28.6836" y1="25.4845" x2="19.1942" y2="35.5801" gradientUnits="userSpaceOnUse">
<stop stop-color="#1F2223"/>
<stop offset="1" stop-color="#040707"/>
</linearGradient>
<linearGradient id="paint38_linear_762_663" x1="32.2109" y1="22.0914" x2="25.9367" y2="30.7365" gradientUnits="userSpaceOnUse">
<stop stop-color="#1F252C"/>
<stop offset="1" stop-color="#474E58"/>
</linearGradient>
<linearGradient id="paint39_linear_762_663" x1="29.6701" y1="11.8249" x2="33.572" y2="26.351" gradientUnits="userSpaceOnUse">
<stop stop-color="#0E0F11"/>
<stop offset="1" stop-color="#0E0F12"/>
</linearGradient>
<linearGradient id="paint40_linear_762_663" x1="29.212" y1="12.334" x2="33.1739" y2="10.11" gradientUnits="userSpaceOnUse">
<stop stop-color="#1F2732"/>
<stop offset="1"/>
</linearGradient>
<linearGradient id="paint41_linear_762_663" x1="32.8295" y1="9.02988" x2="18.8324" y2="5.09558" gradientUnits="userSpaceOnUse">
<stop stop-color="#0F1521"/>
<stop offset="1" stop-color="#3B3F4C"/>
</linearGradient>
<linearGradient id="paint42_linear_762_663" x1="17.8829" y1="8.53647" x2="19.5611" y2="3.11356" gradientUnits="userSpaceOnUse">
<stop stop-color="#111929"/>
<stop offset="1" stop-color="#131721"/>
</linearGradient>
</defs>
</svg>
