<?xml version="1.0" standalone="no"?>
<!DOCTYPE svg PUBLIC "-//W3C//DTD SVG 1.1//EN" "http://www.w3.org/Graphics/SVG/1.1/DTD/svg11.dtd">
<svg xmlns="http://www.w3.org/2000/svg" width="500" height="500" viewBox="0 0 500 500" fill="none">
<path d="M86.0698 251.57H252.16C254.302 251.549 256.356 250.708 257.898 249.22C259.439 247.733 260.353 245.71 260.45 243.57L264.17 137.65C264.21 136.612 264.04 135.577 263.67 134.606C263.3 133.636 262.738 132.75 262.016 132.003C261.295 131.256 260.43 130.662 259.474 130.258C258.517 129.853 257.488 129.646 256.45 129.65H90.3498C88.2065 129.668 86.1518 130.508 84.6095 131.997C83.0671 133.485 82.1545 135.509 82.0598 137.65L78.3398 243.56C78.2994 244.599 78.4695 245.636 78.8401 246.607C79.2106 247.579 79.7739 248.466 80.4961 249.214C81.2182 249.962 82.0843 250.557 83.0422 250.962C84 251.367 85.0299 251.573 86.0698 251.57Z" fill="#407BFF"/>
<path opacity="0.4" d="M86.0698 251.57H252.16C254.302 251.549 256.356 250.708 257.898 249.22C259.439 247.733 260.353 245.71 260.45 243.57L264.17 137.65C264.21 136.612 264.04 135.577 263.67 134.606C263.3 133.636 262.738 132.75 262.016 132.003C261.295 131.256 260.43 130.662 259.474 130.258C258.517 129.853 257.488 129.646 256.45 129.65H90.3498C88.2065 129.668 86.1518 130.508 84.6095 131.997C83.0671 133.485 82.1545 135.509 82.0598 137.65L78.3398 243.56C78.2994 244.599 78.4695 245.636 78.8401 246.607C79.2106 247.579 79.7739 248.466 80.4961 249.214C81.2182 249.962 82.0843 250.557 83.0422 250.962C84 251.367 85.0299 251.573 86.0698 251.57Z" fill="black"/>
<path d="M87.6501 251.57H253.75C255.892 251.547 257.944 250.705 259.485 249.218C261.027 247.73 261.941 245.71 262.04 243.57L265.76 137.65C265.801 136.611 265.63 135.575 265.26 134.604C264.889 133.633 264.326 132.747 263.603 131.999C262.881 131.252 262.015 130.658 261.057 130.255C260.099 129.851 259.07 129.645 258.03 129.65H91.9301C89.7884 129.671 87.7363 130.512 86.1961 132C84.6558 133.488 83.7446 135.51 83.6501 137.65L79.9301 243.56C79.8882 244.599 80.0571 245.635 80.4265 246.607C80.796 247.578 81.3583 248.465 82.0797 249.213C82.801 249.962 83.6665 250.557 84.6238 250.962C85.5812 251.367 86.6106 251.574 87.6501 251.57Z" fill="#407BFF"/>
<path opacity="0.9" d="M252.16 244.9C253.005 244.891 253.815 244.558 254.423 243.97C255.031 243.383 255.391 242.585 255.43 241.74L259 139.46C259.021 139.053 258.96 138.645 258.819 138.263C258.678 137.88 258.46 137.53 258.18 137.235C257.899 136.939 257.561 136.703 257.186 136.543C256.811 136.382 256.407 136.299 256 136.3H93.5195C92.6747 136.312 91.8662 136.645 91.2586 137.232C90.651 137.819 90.2902 138.616 90.2495 139.46L86.6595 241.74C86.6378 242.147 86.6993 242.555 86.8403 242.937C86.9813 243.32 87.1988 243.67 87.4796 243.966C87.7604 244.261 88.0985 244.497 88.4733 244.657C88.8481 244.818 89.2517 244.901 89.6595 244.9H252.16Z" fill="white"/>
<path opacity="0.3" d="M203.139 217.22C208.392 210.604 211.454 202.516 211.899 194.08C212.333 185.884 210.055 177.773 205.419 171V170.88C205.341 170.764 205.254 170.654 205.159 170.55C201.72 165.703 197.16 161.759 191.87 159.052C186.579 156.344 180.713 154.954 174.769 155C168.626 155.047 162.57 156.467 157.045 159.155C151.521 161.844 146.667 165.734 142.839 170.54C142.759 170.63 142.679 170.71 142.609 170.8C142.595 170.834 142.578 170.868 142.559 170.9C137.301 177.518 134.235 185.609 133.789 194.05C133.338 202.275 135.62 210.417 140.279 217.21C140.276 217.24 140.276 217.27 140.279 217.3L140.369 217.41C143.804 222.301 148.375 226.285 153.69 229.02C159.004 231.754 164.903 233.158 170.879 233.11C177.013 233.062 183.059 231.646 188.576 228.964C194.093 226.283 198.942 222.404 202.769 217.61C202.861 217.511 202.948 217.408 203.029 217.3C203.068 217.276 203.105 217.249 203.139 217.22ZM171.139 228.49C165.549 228.49 160.839 221.96 158.449 212.33C162.91 211.436 167.45 210.99 171.999 211C176.507 210.99 181.003 211.439 185.419 212.34C182.079 222 176.729 228.49 171.149 228.49H171.139ZM172.229 206.34C167.293 206.33 162.368 206.819 157.529 207.8C156.936 204.034 156.675 200.222 156.749 196.41H188.699C188.386 200.253 187.75 204.063 186.799 207.8C182.009 206.815 177.13 206.326 172.239 206.34H172.229ZM138.399 196.41H152.099C152.002 200.597 152.283 204.784 152.939 208.92C149.529 209.879 146.238 211.221 143.129 212.92C140.113 207.936 138.483 202.236 138.409 196.41H138.399ZM144.999 175.25C147.965 176.961 151.129 178.304 154.419 179.25C153.365 183.355 152.672 187.544 152.349 191.77H138.649C139.35 185.819 141.534 180.138 144.999 175.25ZM174.549 159.68C180.139 159.68 184.839 166.21 187.239 175.84C182.774 176.729 178.232 177.174 173.679 177.17C169.173 177.178 164.677 176.732 160.259 175.84C163.599 166.21 168.999 159.68 174.539 159.68H174.549ZM173.459 181.82C178.396 181.829 183.321 181.34 188.159 180.36C188.749 184.13 189.01 187.945 188.939 191.76H156.999C157.307 187.913 157.943 184.099 158.899 180.36C163.686 181.345 168.562 181.834 173.449 181.82H173.459ZM207.289 191.76H193.589C193.682 187.57 193.401 183.38 192.749 179.24C196.159 178.277 199.449 176.936 202.559 175.24C205.574 180.229 207.203 185.932 207.279 191.76H207.289ZM193.359 196.41H207.059C206.349 202.354 204.163 208.027 200.699 212.91C197.732 211.202 194.569 209.858 191.279 208.91C192.337 204.813 193.03 200.63 193.349 196.41H193.359ZM199.909 171.52C197.329 172.856 194.618 173.925 191.819 174.71C190.786 170.053 188.865 165.639 186.159 161.71C191.528 163.704 196.27 167.089 199.899 171.52H199.909ZM162.729 161.73C159.668 165.62 157.319 170.022 155.789 174.73C153.093 173.948 150.488 172.878 148.019 171.54C152.055 167.131 157.099 163.765 162.719 161.73H162.729ZM145.799 216.65C148.379 215.316 151.086 214.244 153.879 213.45C154.915 218.106 156.837 222.52 159.539 226.45C154.168 224.46 149.423 221.078 145.789 216.65H145.799ZM182.999 226.43C186.067 222.544 188.418 218.142 189.939 213.43C192.637 214.214 195.242 215.287 197.709 216.63C193.672 221.04 188.624 224.403 182.999 226.43Z" fill="#407BFF"/>
<path opacity="0.6" d="M123.47 136.3L109.03 244.9H128.25L142.69 136.3H123.47Z" fill="white"/>
<path opacity="0.6" d="M149.25 136.3L134.81 244.9H142.69L157.14 136.3H149.25Z" fill="white"/>
<path opacity="0.3" d="M173.63 133.15C173.623 133.31 173.649 133.47 173.706 133.619C173.763 133.769 173.85 133.905 173.961 134.021C174.072 134.136 174.206 134.227 174.353 134.289C174.501 134.35 174.66 134.381 174.82 134.38C175.149 134.378 175.465 134.249 175.701 134.019C175.938 133.79 176.077 133.479 176.09 133.15C176.097 132.99 176.071 132.83 176.014 132.681C175.957 132.531 175.87 132.395 175.759 132.279C175.648 132.164 175.514 132.073 175.366 132.011C175.219 131.95 175.06 131.918 174.9 131.92C174.571 131.922 174.255 132.051 174.018 132.28C173.782 132.51 173.643 132.821 173.63 133.15Z" fill="white"/>
<path d="M278.11 362.12H112C109.72 362.011 107.536 361.176 105.765 359.737C103.995 358.297 102.731 356.329 102.16 354.12L80.8995 261.22C79.8995 256.82 82.6695 253.22 87.0695 253.22H253.17C255.448 253.33 257.632 254.166 259.402 255.605C261.173 257.044 262.437 259.012 263.01 261.22L284.27 354.12C285.29 358.52 282.51 362.12 278.11 362.12Z" fill="#407BFF"/>
<path opacity="0.4" d="M278.11 362.12H112C109.72 362.011 107.536 361.176 105.765 359.737C103.995 358.297 102.731 356.329 102.16 354.12L80.8995 261.22C79.8995 256.82 82.6695 253.22 87.0695 253.22H253.17C255.448 253.33 257.632 254.166 259.402 255.605C261.173 257.044 262.437 259.012 263.01 261.22L284.27 354.12C285.29 358.52 282.51 362.12 278.11 362.12Z" fill="black"/>
<path d="M279.7 362.12H113.6C111.32 362.013 109.135 361.178 107.364 359.739C105.593 358.299 104.33 356.33 103.76 354.12L82.5001 261.21C81.5001 256.81 84.2701 253.21 88.6701 253.21H254.77C257.049 253.32 259.233 254.156 261.003 255.595C262.773 257.034 264.037 259.002 264.61 261.21L285.87 354.11C286.88 358.52 284.1 362.12 279.7 362.12Z" fill="#407BFF"/>
<path opacity="0.2" d="M104.81 315.75C103.91 315.708 103.048 315.378 102.35 314.809C101.651 314.24 101.154 313.462 100.93 312.59L89.5901 263C89.4829 262.631 89.4643 262.242 89.5359 261.864C89.6075 261.487 89.7673 261.132 90.0022 260.827C90.2371 260.523 90.5404 260.279 90.8876 260.114C91.2348 259.95 91.616 259.869 92.0001 259.88H254.47C255.37 259.921 256.233 260.25 256.932 260.819C257.631 261.388 258.128 262.167 258.35 263.04L269.7 312.59C269.814 312.964 269.836 313.359 269.766 313.744C269.695 314.128 269.534 314.49 269.295 314.799C269.056 315.108 268.747 315.356 268.393 315.521C268.039 315.687 267.651 315.765 267.26 315.75H104.81Z" fill="black"/>
<path opacity="0.2" d="M171.75 354.73C171.225 354.705 170.722 354.513 170.314 354.182C169.905 353.851 169.613 353.398 169.48 352.89L162.87 324C162.805 323.782 162.792 323.552 162.833 323.329C162.875 323.106 162.969 322.895 163.107 322.715C163.246 322.536 163.426 322.391 163.632 322.295C163.837 322.198 164.063 322.152 164.29 322.16H210.71C211.239 322.18 211.747 322.369 212.16 322.701C212.572 323.032 212.867 323.488 213 324L219.62 352.89C219.685 353.108 219.698 353.338 219.656 353.561C219.615 353.784 219.521 353.995 219.382 354.174C219.243 354.354 219.064 354.499 218.858 354.595C218.653 354.692 218.427 354.738 218.2 354.73H171.75Z" fill="black"/>
<path d="M284.23 289.9L289.23 158.13C289.265 157.305 289.134 156.482 288.843 155.71C288.553 154.937 288.11 154.231 287.54 153.634C286.971 153.036 286.287 152.56 285.529 152.233C284.772 151.906 283.956 151.735 283.13 151.73L199.13 151.02C197.431 151.021 195.798 151.676 194.569 152.849C193.34 154.022 192.61 155.623 192.53 157.32L187.53 289.08C187.494 289.905 187.625 290.73 187.914 291.503C188.204 292.277 188.647 292.984 189.217 293.583C189.786 294.181 190.471 294.659 191.229 294.986C191.987 295.314 192.804 295.485 193.63 295.49L277.63 296.2C279.329 296.197 280.961 295.541 282.189 294.369C283.417 293.196 284.148 291.596 284.23 289.9Z" fill="#407BFF"/>
<path opacity="0.4" d="M284.23 289.9L289.23 158.13C289.265 157.305 289.134 156.482 288.843 155.71C288.553 154.937 288.11 154.231 287.54 153.634C286.971 153.036 286.287 152.56 285.529 152.233C284.772 151.906 283.956 151.735 283.13 151.73L199.13 151.02C197.431 151.021 195.798 151.676 194.569 152.849C193.34 154.022 192.61 155.623 192.53 157.32L187.53 289.08C187.494 289.905 187.625 290.73 187.914 291.503C188.204 292.277 188.647 292.984 189.217 293.583C189.786 294.181 190.471 294.659 191.229 294.986C191.987 295.314 192.804 295.485 193.63 295.49L277.63 296.2C279.329 296.197 280.961 295.541 282.189 294.369C283.417 293.196 284.148 291.596 284.23 289.9Z" fill="black"/>
<path d="M286.08 289.9L291.13 158.13C291.164 157.305 291.031 156.482 290.74 155.709C290.448 154.936 290.004 154.23 289.434 153.633C288.864 153.036 288.179 152.56 287.421 152.233C286.663 151.906 285.846 151.735 285.02 151.73L201 151C199.302 151.001 197.668 151.656 196.439 152.829C195.21 154.002 194.48 155.603 194.4 157.3L189.4 289.06C189.364 289.885 189.495 290.71 189.784 291.483C190.074 292.257 190.517 292.964 191.087 293.563C191.656 294.161 192.341 294.639 193.099 294.966C193.858 295.294 194.674 295.465 195.5 295.47L279.5 296.18C281.193 296.174 282.818 295.52 284.042 294.352C285.267 293.183 285.996 291.59 286.08 289.9Z" fill="#407BFF"/>
<path opacity="0.9" d="M285.781 159.53C285.794 159.205 285.742 158.88 285.627 158.576C285.512 158.271 285.337 157.993 285.112 157.757C284.887 157.522 284.617 157.335 284.317 157.206C284.018 157.078 283.696 157.011 283.371 157.01L202.261 156.32C201.591 156.322 200.947 156.582 200.463 157.045C199.979 157.509 199.692 158.141 199.661 158.81L194.721 287.68C194.707 288.006 194.76 288.331 194.874 288.636C194.989 288.941 195.164 289.22 195.389 289.456C195.614 289.692 195.884 289.881 196.183 290.01C196.483 290.14 196.805 290.208 197.131 290.21L278.241 290.89C278.91 290.891 279.554 290.633 280.038 290.171C280.522 289.71 280.81 289.079 280.841 288.41L285.781 159.53Z" fill="white"/>
<path opacity="0.3" d="M270.411 246.25C275.284 240.103 278.125 232.593 278.541 224.76C278.957 217.135 276.849 209.585 272.541 203.28V203.18C272.471 203.066 272.387 202.962 272.291 202.87C269.097 198.389 264.87 194.743 259.968 192.241C255.066 189.74 249.634 188.457 244.131 188.5C238.426 188.545 232.803 189.864 227.673 192.361C222.543 194.857 218.036 198.468 214.481 202.93C214.405 203.009 214.335 203.092 214.271 203.18L214.221 203.27C209.304 209.399 206.429 216.914 206.001 224.76C205.572 232.393 207.682 239.952 212.001 246.26C212.005 246.29 212.005 246.32 212.001 246.35L212.091 246.45C215.289 250.997 219.545 254.698 224.493 257.233C229.441 259.768 234.932 261.061 240.491 261C246.186 260.957 251.8 259.643 256.923 257.154C262.046 254.664 266.548 251.062 270.101 246.61C270.189 246.521 270.273 246.428 270.351 246.33L270.411 246.25ZM240.701 256.71C235.521 256.71 231.151 250.64 228.921 241.71C233.063 240.883 237.277 240.467 241.501 240.47C245.698 240.458 249.886 240.87 254.001 241.7C250.861 250.64 245.891 256.71 240.701 256.71ZM241.701 236.15C237.117 236.139 232.544 236.592 228.051 237.5C227.499 234.001 227.255 230.461 227.321 226.92H257.001C256.71 230.49 256.118 234.029 255.231 237.5C250.786 236.587 246.258 236.135 241.721 236.15H241.701ZM210.291 226.92H223.001C222.904 230.809 223.165 234.699 223.781 238.54C220.615 239.427 217.559 240.668 214.671 242.24C211.883 237.611 210.378 232.323 210.311 226.92H210.291ZM216.401 207.28C219.156 208.865 222.094 210.108 225.151 210.98C224.166 214.792 223.52 218.684 223.221 222.61H210.521C211.171 217.086 213.2 211.815 216.421 207.28H216.401ZM243.831 192.82C249.021 192.82 253.391 198.88 255.621 207.82C251.476 208.652 247.258 209.067 243.031 209.06C238.846 209.072 234.671 208.657 230.571 207.82C233.701 198.88 238.661 192.82 243.851 192.82H243.831ZM242.831 213.38C247.419 213.385 251.996 212.923 256.491 212C257.038 215.502 257.279 219.046 257.211 222.59H227.561C227.845 219.016 228.433 215.473 229.321 212C233.767 212.927 238.298 213.39 242.841 213.38H242.831ZM274.241 222.61H261.531C261.617 218.718 261.356 214.826 260.751 210.98C263.918 210.097 266.975 208.856 269.861 207.28C272.659 211.909 274.175 217.201 274.251 222.61H274.241ZM261.311 226.92H274.001C273.341 232.438 271.313 237.704 268.101 242.24C265.343 240.661 262.405 239.419 259.351 238.54C260.345 234.731 261.004 230.843 261.321 226.92H261.311ZM267.391 203.81C264.996 205.062 262.479 206.067 259.881 206.81C258.921 202.493 257.138 198.402 254.631 194.76C259.613 196.594 264.02 199.716 267.401 203.81H267.391ZM232.871 194.73C230.025 198.332 227.844 202.412 226.431 206.78C223.925 206.048 221.507 205.042 219.221 203.78C222.976 199.704 227.663 196.598 232.881 194.73H232.871ZM217.151 245.73C219.542 244.478 222.055 243.473 224.651 242.73C225.619 247.046 227.404 251.136 229.911 254.78C224.933 252.943 220.533 249.816 217.161 245.72L217.151 245.73ZM251.671 254.81C254.511 251.204 256.691 247.125 258.111 242.76C260.615 243.498 263.032 244.504 265.321 245.76C261.573 249.833 256.892 252.935 251.681 254.8L251.671 254.81Z" fill="#407BFF"/>
<path opacity="0.6" d="M219.791 156.47L205.381 290.28L224.581 290.44L238.991 156.63L219.791 156.47Z" fill="white"/>
<path opacity="0.6" d="M245.541 156.69L231.131 290.5L239.011 290.56L253.421 156.75L245.541 156.69Z" fill="white"/>
<path opacity="0.3" d="M241.121 154.74C241.386 154.74 241.64 154.635 241.828 154.447C242.015 154.26 242.121 154.005 242.121 153.74C242.129 153.612 242.111 153.483 242.067 153.362C242.024 153.241 241.956 153.13 241.867 153.036C241.779 152.942 241.673 152.868 241.555 152.817C241.437 152.766 241.309 152.74 241.181 152.74C240.915 152.74 240.661 152.845 240.474 153.033C240.286 153.22 240.181 153.475 240.181 153.74C240.172 153.868 240.191 153.997 240.234 154.118C240.278 154.239 240.346 154.35 240.434 154.444C240.522 154.538 240.628 154.612 240.746 154.663C240.865 154.714 240.992 154.74 241.121 154.74Z" fill="white"/>
<path d="M309.55 325.22L314.6 221.8C314.635 220.975 314.503 220.151 314.213 219.378C313.923 218.605 313.48 217.898 312.91 217.3C312.341 216.702 311.657 216.225 310.899 215.896C310.142 215.568 309.325 215.396 308.5 215.39L259.93 214.69C258.232 214.691 256.6 215.344 255.372 216.515C254.143 217.686 253.412 219.285 253.33 220.98L248.33 324.41C248.295 325.235 248.426 326.058 248.717 326.83C249.007 327.603 249.45 328.309 250.02 328.906C250.589 329.504 251.273 329.98 252.031 330.307C252.789 330.634 253.604 330.805 254.43 330.81L303 331.52C304.69 331.506 306.311 330.846 307.529 329.674C308.747 328.502 309.47 326.908 309.55 325.22Z" fill="#407BFF"/>
<path opacity="0.4" d="M309.55 325.22L314.6 221.8C314.635 220.975 314.503 220.151 314.213 219.378C313.923 218.605 313.48 217.898 312.91 217.3C312.341 216.702 311.657 216.225 310.899 215.896C310.142 215.568 309.325 215.396 308.5 215.39L259.93 214.69C258.232 214.691 256.6 215.344 255.372 216.515C254.143 217.686 253.412 219.285 253.33 220.98L248.33 324.41C248.295 325.235 248.426 326.058 248.717 326.83C249.007 327.603 249.45 328.309 250.02 328.906C250.589 329.504 251.273 329.98 252.031 330.307C252.789 330.634 253.604 330.805 254.43 330.81L303 331.52C304.69 331.506 306.311 330.846 307.529 329.674C308.747 328.502 309.47 326.908 309.55 325.22Z" fill="black"/>
<path d="M311.409 325.22L316.409 221.8C316.446 220.975 316.315 220.15 316.025 219.377C315.736 218.603 315.293 217.896 314.723 217.297C314.153 216.699 313.469 216.221 312.711 215.893C311.952 215.566 311.135 215.395 310.309 215.39L261.739 214.69C260.043 214.691 258.412 215.344 257.185 216.516C255.958 217.687 255.229 219.286 255.149 220.98L250.099 324.41C250.064 325.235 250.196 326.058 250.486 326.83C250.777 327.603 251.22 328.309 251.789 328.906C252.359 329.504 253.043 329.98 253.8 330.307C254.558 330.634 255.374 330.805 256.199 330.81L304.769 331.52C306.474 331.527 308.117 330.876 309.353 329.702C310.59 328.529 311.327 326.923 311.409 325.22Z" fill="#407BFF"/>
<path opacity="0.9" d="M311.11 223.2C311.122 222.875 311.068 222.55 310.953 222.246C310.838 221.941 310.663 221.663 310.438 221.427C310.213 221.191 309.944 221.003 309.645 220.873C309.347 220.743 309.025 220.674 308.7 220.67L263 220C262.329 220.002 261.686 220.261 261.202 220.725C260.718 221.189 260.43 221.821 260.4 222.49L255.48 323C255.466 323.326 255.518 323.651 255.633 323.956C255.748 324.261 255.923 324.54 256.148 324.776C256.373 325.012 256.643 325.201 256.942 325.33C257.241 325.46 257.564 325.528 257.89 325.53L303.57 326.21C304.239 326.211 304.883 325.953 305.367 325.491C305.851 325.029 306.139 324.399 306.17 323.73L311.11 223.2Z" fill="white"/>
<path opacity="0.3" d="M300.56 287C303.555 283.228 305.302 278.619 305.56 273.81C305.813 269.127 304.516 264.492 301.87 260.62C301.87 260.62 301.87 260.62 301.87 260.56C301.829 260.493 301.782 260.429 301.73 260.37C299.766 257.619 297.168 255.382 294.157 253.847C291.146 252.312 287.81 251.524 284.43 251.55C280.929 251.577 277.479 252.386 274.331 253.919C271.184 255.452 268.419 257.67 266.24 260.41L266.1 260.56V260.62C263.101 264.389 261.353 269 261.1 273.81C260.836 278.497 262.134 283.139 264.79 287.01V287.06C264.79 287.06 264.79 287.06 264.84 287.12C266.8 289.894 269.403 292.15 272.427 293.697C275.45 295.244 278.804 296.034 282.2 296C285.695 295.973 289.14 295.167 292.283 293.639C295.427 292.111 298.189 289.901 300.37 287.17C300.428 287.115 300.482 287.055 300.53 286.99L300.56 287ZM282.33 293.42C279.14 293.42 276.46 289.7 275.1 284.21C277.642 283.703 280.228 283.448 282.82 283.45C285.389 283.446 287.952 283.7 290.47 284.21C288.56 289.65 285.51 293.37 282.33 293.37V293.42ZM282.95 280.8C280.136 280.794 277.328 281.072 274.57 281.63C274.236 279.483 274.088 277.312 274.13 275.14H292.33C292.157 277.33 291.796 279.502 291.25 281.63C288.537 281.056 285.773 280.761 283 280.75L282.95 280.8ZM263.67 275.14H271.48C271.425 277.526 271.586 279.913 271.96 282.27C270.014 282.813 268.135 283.575 266.36 284.54C264.637 281.686 263.708 278.423 263.67 275.09V275.14ZM267.42 263C269.113 263.969 270.916 264.731 272.79 265.27C272.187 267.61 271.792 270 271.61 272.41H263.8C264.201 269.02 265.445 265.785 267.42 263ZM284.26 254.12C287.45 254.12 290.13 257.84 291.5 263.33C288.955 263.842 286.366 264.096 283.77 264.09C281.201 264.099 278.637 263.845 276.12 263.33C278 257.87 281.08 254.15 284.26 254.15V254.12ZM283.64 266.74C286.454 266.746 289.262 266.468 292.02 265.91C292.355 268.06 292.502 270.235 292.46 272.41H274.26C274.437 270.217 274.798 268.042 275.34 265.91C278.07 266.48 280.851 266.768 283.64 266.77V266.74ZM302.92 272.41H295.11C295.165 270.02 295.004 267.631 294.63 265.27C296.576 264.726 298.455 263.965 300.23 263C301.951 265.851 302.879 269.11 302.92 272.44V272.41ZM295 275.09H302.81C302.408 278.476 301.163 281.708 299.19 284.49C297.497 283.521 295.694 282.759 293.82 282.22C294.422 279.883 294.817 277.497 295 275.09ZM298.74 260.9C297.269 261.661 295.724 262.271 294.13 262.72C293.539 260.069 292.442 257.556 290.9 255.32C293.955 256.455 296.653 258.381 298.72 260.9H298.74ZM277.55 255.32C275.788 257.53 274.434 260.036 273.55 262.72C272.011 262.277 270.526 261.667 269.12 260.9C271.43 258.386 274.316 256.471 277.53 255.32H277.55ZM267.9 286.62C269.369 285.861 270.91 285.252 272.5 284.8C273.096 287.45 274.192 289.961 275.73 292.2C272.662 291.073 269.952 289.147 267.88 286.62H267.9ZM289.08 292.2C290.842 289.99 292.196 287.484 293.08 284.8C294.617 285.247 296.102 285.857 297.51 286.62C295.189 289.139 292.289 291.055 289.06 292.2H289.08Z" fill="#407BFF"/>
<path opacity="0.6" d="M271.46 220.12L260.2 325.56L275.26 325.79L286.62 220.34L271.46 220.12Z" fill="white"/>
<path opacity="0.6" d="M291.79 220.42L280.43 325.87L286.65 325.96L298.01 220.51L291.79 220.42Z" fill="white"/>
<path opacity="0.3" d="M266.37 218.56C266.635 218.56 266.889 218.455 267.077 218.267C267.264 218.08 267.37 217.825 267.37 217.56C267.37 217.305 267.273 217.059 267.098 216.873C266.924 216.687 266.684 216.575 266.43 216.56C266.164 216.56 265.91 216.665 265.723 216.853C265.535 217.04 265.43 217.295 265.43 217.56C265.429 217.815 265.526 218.061 265.701 218.247C265.876 218.433 266.115 218.545 266.37 218.56Z" fill="white"/>
</svg>