<svg width="500" height="500" viewBox="0 0 500 500" fill="none" xmlns="http://www.w3.org/2000/svg">
<path d="M500 382.4H0V382.65H500V382.4Z" fill="#EBEBEB"/>
<path d="M449.9 398.49H416.78V398.74H449.9V398.49Z" fill="#EBEBEB"/>
<path d="M331.22 401.211H322.53V401.461H331.22V401.211Z" fill="#EBEBEB"/>
<path d="M415.78 389.211H396.59V389.461H415.78V389.211Z" fill="#EBEBEB"/>
<path d="M95.65 390.891H52.46V391.141H95.65V390.891Z" fill="#EBEBEB"/>
<path d="M110.89 390.891H104.56V391.141H110.89V390.891Z" fill="#EBEBEB"/>
<path d="M225.15 395.109H131.47V395.359H225.15V395.109Z" fill="#EBEBEB"/>
<path d="M237 337.8H43.91C42.3974 337.797 40.9476 337.195 39.8789 336.124C38.8102 335.053 38.21 333.603 38.21 332.09V60.66C38.2232 59.156 38.8292 57.718 39.8965 56.6582C40.9637 55.5985 42.406 55.0026 43.91 55H237C238.514 55 239.967 55.6016 241.038 56.6724C242.108 57.7433 242.71 59.1956 242.71 60.71V332.09C242.71 333.604 242.108 335.057 241.038 336.128C239.967 337.198 238.514 337.8 237 337.8ZM43.91 55.2C42.4637 55.2026 41.0775 55.7791 40.0557 56.8027C39.0339 57.8264 38.46 59.2136 38.46 60.66V332.09C38.46 333.536 39.0339 334.924 40.0557 335.947C41.0775 336.971 42.4637 337.547 43.91 337.55H237C238.447 337.547 239.835 336.971 240.858 335.948C241.881 334.924 242.457 333.537 242.46 332.09V60.66C242.457 59.2127 241.881 57.8255 240.858 56.8021C239.835 55.7787 238.447 55.2026 237 55.2H43.91Z" fill="#EBEBEB"/>
<path d="M453.31 337.8H260.21C258.696 337.797 257.246 337.195 256.175 336.125C255.105 335.054 254.503 333.604 254.5 332.09V60.66C254.516 59.1551 255.124 57.7171 256.193 56.6576C257.262 55.5981 258.705 55.0025 260.21 55H453.31C454.812 55.0052 456.252 55.6022 457.317 56.6617C458.382 57.7212 458.987 59.1578 459 60.66V332.09C459 333.601 458.401 335.05 457.335 336.121C456.268 337.191 454.821 337.795 453.31 337.8ZM260.21 55.2C258.763 55.2026 257.375 55.7787 256.352 56.8021C255.329 57.8255 254.753 59.2127 254.75 60.66V332.09C254.753 333.537 255.329 334.924 256.352 335.948C257.375 336.971 258.763 337.547 260.21 337.55H453.31C454.757 337.547 456.145 336.971 457.168 335.948C458.191 334.924 458.767 333.537 458.77 332.09V60.66C458.767 59.2127 458.191 57.8255 457.168 56.8021C456.145 55.7787 454.757 55.2026 453.31 55.2H260.21Z" fill="#EBEBEB"/>
<path d="M75.66 290.59H146.86C148.504 290.59 150.132 290.914 151.651 291.543C153.17 292.172 154.55 293.094 155.713 294.257C156.876 295.419 157.798 296.8 158.427 298.319C159.056 299.838 159.38 301.466 159.38 303.11V367.11C159.38 370.43 158.061 373.615 155.713 375.963C153.365 378.311 150.181 379.63 146.86 379.63H75.66V290.63V290.59Z" fill="#F0F0F0"/>
<path d="M76.25 290.59H75.07C68.1554 290.59 62.55 296.195 62.55 303.11V367.07C62.55 373.984 68.1554 379.59 75.07 379.59H76.25C83.1646 379.59 88.77 373.984 88.77 367.07V303.11C88.77 296.195 83.1646 290.59 76.25 290.59Z" fill="#F5F5F5"/>
<path d="M85.19 379.59H178.12V323.42H85.19V379.59Z" fill="#F0F0F0"/>
<path d="M77.56 382.4H245.05C245.73 382.397 246.381 382.125 246.861 381.644C247.341 381.162 247.61 380.51 247.61 379.83V379.59H146.9L75 379.83C75 380.51 75.2694 381.162 75.7492 381.644C76.229 382.125 76.8801 382.397 77.56 382.4Z" fill="#E0E0E0"/>
<path d="M150.92 253.671H237.38C239.616 253.629 241.836 254.064 243.891 254.948C245.946 255.832 247.788 257.144 249.296 258.796C250.804 260.448 251.941 262.403 252.634 264.53C253.326 266.657 253.556 268.908 253.31 271.131L247.61 336.131H126.23L131.92 271.131C132.404 266.4 134.604 262.011 138.105 258.794C141.607 255.576 146.166 253.754 150.92 253.671Z" fill="#E0E0E0"/>
<path d="M137.26 253.67H225.41C227.537 253.635 229.648 254.053 231.601 254.896C233.555 255.739 235.306 256.987 236.74 258.559C238.174 260.131 239.257 261.99 239.917 264.013C240.578 266.035 240.8 268.175 240.57 270.29L234.8 336.12H113.41L119.18 270.29C119.639 265.788 121.733 261.61 125.065 258.547C128.396 255.485 132.735 253.749 137.26 253.67Z" fill="#F5F5F5"/>
<path d="M92.64 318.289H166.25C168.34 318.289 170.344 319.119 171.822 320.597C173.3 322.075 174.13 324.079 174.13 326.169V333.279C174.131 334.315 173.928 335.34 173.533 336.298C173.138 337.255 172.557 338.125 171.826 338.858C171.094 339.59 170.225 340.172 169.268 340.568C168.311 340.965 167.286 341.169 166.25 341.169H92.64C89.6059 341.169 86.6961 339.964 84.5507 337.818C82.4053 335.673 81.2 332.763 81.2 329.729C81.2 326.695 82.4053 323.785 84.5507 321.64C86.6961 319.494 89.6059 318.289 92.64 318.289Z" fill="#E0E0E0"/>
<path d="M178.53 290.59H249.73C253.051 290.59 256.235 291.909 258.583 294.257C260.931 296.605 262.25 299.789 262.25 303.11V367.11C262.25 370.43 260.931 373.615 258.583 375.963C256.235 378.311 253.051 379.63 249.73 379.63H178.53V290.63V290.59Z" fill="#F0F0F0"/>
<path d="M179.12 290.59H177.94C171.025 290.59 165.42 296.195 165.42 303.11V367.07C165.42 373.984 171.025 379.59 177.94 379.59H179.12C186.035 379.59 191.64 373.984 191.64 367.07V303.11C191.64 296.195 186.035 290.59 179.12 290.59Z" fill="#F5F5F5"/>
<path d="M375.01 241.67H306.56V382.4H375.01V241.67Z" fill="#F0F0F0"/>
<path d="M316.8 371.441V252.631H315.22V371.441H316.8Z" fill="#E6E6E6"/>
<path d="M364.92 252.631H315.22V254.631H364.92V252.631Z" fill="#E6E6E6"/>
<path d="M445.04 241.67H376.59V382.4H445.04V241.67Z" fill="#F0F0F0"/>
<path d="M445.05 382.4H454.11V241.67H445.05V382.4Z" fill="#E0E0E0"/>
<path d="M386.83 371.441V252.631H385.25V371.441H386.83Z" fill="#E6E6E6"/>
<path d="M376.6 382.4V243.27H375.02V382.4H376.6Z" fill="#E6E6E6"/>
<path d="M434.95 252.631H385.25V254.631H434.95V252.631Z" fill="#E6E6E6"/>
<path d="M372.01 272.801H368.61V303.901H372.01V272.801Z" fill="#E0E0E0"/>
<path d="M382.99 272.801H379.59V303.901H382.99V272.801Z" fill="#E0E0E0"/>
<path d="M426.11 94.9199H77.09V219.41H426.11V94.9199Z" fill="#E0E0E0"/>
<path d="M422.91 94.9199H73.89V219.41H422.91V94.9199Z" fill="#F0F0F0"/>
<path d="M412.44 208.941V105.391L84.3599 105.391V208.941H412.44Z" fill="#FAFAFA"/>
<path d="M137.62 208.941L159.36 105.391H207.35L185.61 208.941H137.62Z" fill="white"/>
<path d="M205.86 208.941L227.6 105.391H251.6L229.85 208.941H205.86Z" fill="white"/>
<path d="M352.38 208.941L374.12 105.391H398.12L376.37 208.941H352.38Z" fill="white"/>
<path d="M250 427.56C357.082 427.56 443.89 422.492 443.89 416.24C443.89 409.988 357.082 404.92 250 404.92C142.917 404.92 56.11 409.988 56.11 416.24C56.11 422.492 142.917 427.56 250 427.56Z" fill="#F5F5F5"/>
<path d="M166 115.64C168.52 109.87 146.2 104.64 139.45 122.42C133.33 138.55 123.17 142.67 127.95 153.84C133.12 165.93 162.37 167.38 175.07 153.98C185.37 143.11 174.19 138.53 175.63 128.31C177.07 118.09 174.05 114.76 166 115.64Z" fill="#263238"/>
<path d="M125.34 150.26C124.18 143.96 126.52 141.36 129.48 138.07C133.48 134.011 136.22 128.882 137.37 123.3C137.966 120.252 139.49 117.463 141.733 115.314C143.977 113.166 146.829 111.764 149.9 111.3C156.5 110.08 163.49 112.24 165.34 114.98C165.635 115.366 165.802 115.834 165.82 116.319C165.838 116.804 165.705 117.283 165.44 117.69L164.6 117.15C164.762 116.908 164.841 116.62 164.824 116.33C164.808 116.04 164.698 115.762 164.51 115.54C162.87 113.1 156.21 111.15 150.09 112.29C145.72 113.1 140.09 115.7 138.35 123.52C137.165 129.269 134.341 134.551 130.22 138.73C127.34 141.93 125.22 144.25 126.33 150.07L125.34 150.26Z" fill="#263238"/>
<path d="M111.59 145.47L110.97 143.47C110.542 142.111 109.766 140.887 108.72 139.92L106.72 138.1C106.088 137.515 105.27 137.17 104.41 137.124C103.55 137.079 102.701 137.335 102.01 137.85L99.87 139.45C99.4789 139.742 99.1497 140.109 98.9014 140.53C98.6532 140.95 98.4909 141.416 98.4239 141.9C98.3569 142.383 98.3866 142.876 98.5113 143.348C98.6359 143.82 98.853 144.262 99.15 144.65L100.53 146.45C100.53 146.45 103.77 151.93 108.46 153.83L109.54 152.91C110.573 152.007 111.318 150.821 111.683 149.498C112.047 148.175 112.015 146.775 111.59 145.47Z" fill="#FFC3BD"/>
<path d="M150.46 180.19L149.82 180.68L149.3 181.06L148.3 181.76C147.63 182.2 146.95 182.61 146.3 183.01C144.939 183.792 143.537 184.5 142.1 185.13C139.144 186.434 136.037 187.361 132.85 187.89C129.485 188.456 126.051 188.476 122.68 187.95C120.955 187.679 119.26 187.24 117.62 186.64C117.21 186.51 116.8 186.34 116.4 186.17L115.8 185.92L115.5 185.79L115.17 185.65L114.75 185.45C113.877 185.003 113.072 184.434 112.36 183.76C111.848 183.284 111.376 182.765 110.95 182.21C109.819 180.676 108.903 178.994 108.23 177.21C107.63 175.73 107.17 174.31 106.76 172.92C106.014 170.231 105.41 167.503 104.95 164.75C104.037 159.43 103.525 154.048 103.42 148.65C103.296 147.64 103.562 146.62 104.164 145.799C104.766 144.978 105.658 144.418 106.659 144.232C107.66 144.045 108.694 144.248 109.551 144.798C110.407 145.347 111.022 146.203 111.27 147.19V147.3C113.01 152.09 114.68 157 116.44 161.66C117.35 163.98 118.23 166.29 119.23 168.39C119.71 169.44 120.23 170.44 120.72 171.31C121.054 171.948 121.482 172.531 121.99 173.04C121.99 173.04 121.99 173.04 121.92 172.9C121.69 172.661 121.419 172.465 121.12 172.32L120.93 172.22C120.87 172.22 120.75 172.15 120.82 172.17H120.98L121.29 172.25C121.496 172.314 121.707 172.365 121.92 172.4C122.764 172.569 123.62 172.672 124.48 172.71C126.28 172.765 128.08 172.577 129.83 172.15C131.75 171.666 133.619 170.996 135.41 170.15C136.34 169.73 137.26 169.24 138.16 168.75C138.61 168.5 139.05 168.23 139.47 167.97L140.47 167.33L141.25 166.84C143.007 165.723 145.129 165.33 147.169 165.744C149.21 166.158 151.011 167.347 152.194 169.06C153.376 170.774 153.849 172.879 153.513 174.934C153.177 176.989 152.057 178.833 150.39 180.08L150.46 180.19Z" fill="#FFC3BD"/>
<path d="M168 411.88C174.33 409.79 179.66 405.51 178.59 398C178.12 394.78 188.45 393.52 188.45 393.52C187.28 403.75 188.56 405.52 189.79 407.83C191.02 410.14 190.95 412.97 188.79 413.22C186.23 413.53 185.66 413.22 182.48 413.67C178.76 414.16 176.35 416.1 168.92 416.1C164.91 416.1 166 412.54 168 411.88Z" fill="#29329C"/>
<path d="M187.25 302.609C187.98 251.369 183.25 223.439 183.25 223.439L145.34 225.329C145.34 225.329 150.95 272.209 160.91 306.739C163.57 325.269 169.56 356.609 173.71 377.659C179.868 377.132 185.956 375.98 191.88 374.219C193.33 355.729 193.59 328.999 187.25 302.609Z" fill="#29329C"/>
<path d="M188.07 398.541C188.07 398.541 189.55 388.861 190.55 374.221C185.519 375.972 180.3 377.127 175 377.661C177.16 390.441 178.7 398.581 178.7 398.581C181.731 399.671 185.049 399.657 188.07 398.541Z" fill="#FFC3BD"/>
<path d="M171.64 371.531C171.97 373.291 172.89 377.701 173.8 379.251C173.853 379.34 173.925 379.417 174.012 379.474C174.098 379.531 174.197 379.568 174.3 379.581C181.37 380.471 188.43 379.051 191.3 377.771C191.38 377.739 191.453 377.69 191.513 377.628C191.573 377.566 191.62 377.492 191.65 377.411C192.45 375.291 192.74 370.831 192.83 368.951C192.835 368.849 192.817 368.748 192.777 368.654C192.736 368.56 192.676 368.477 192.598 368.411C192.521 368.344 192.43 368.296 192.331 368.27C192.233 368.244 192.13 368.241 192.03 368.261C185.478 369.475 178.86 370.303 172.21 370.741C172.119 370.751 172.031 370.781 171.952 370.827C171.873 370.874 171.805 370.936 171.751 371.01C171.697 371.085 171.66 371.169 171.641 371.259C171.622 371.349 171.621 371.441 171.64 371.531Z" fill="#263238"/>
<path d="M145.84 165.08C140.22 166.08 131.65 170.83 131.65 170.83C131.65 170.83 127.14 181.63 132.54 189.41C137.86 190.67 140.54 189.64 140.54 189.64L145.84 165.08Z" fill="#263238"/>
<path opacity="0.2" d="M132.54 189.41C137.86 190.67 140.54 189.64 140.54 189.64L140.35 175.07C136.74 179.93 133.73 184.75 132.54 189.41Z" fill="black"/>
<path opacity="0.2" d="M187.05 272.38C182.81 262.01 178.25 253.47 176.5 245.67C173.5 266.88 175.86 286.39 187.27 300.37C187.4 290.05 187.29 280.71 187.05 272.38Z" fill="black"/>
<path d="M245 353.699L229.87 364.459C217.52 348.369 199 323.789 194.52 313.089C183.14 285.939 160.26 226.089 160.26 226.089L189.96 219.189C189.96 219.189 208.7 236.589 220.79 302.249C230.91 316.629 239.43 337.789 245 353.699Z" fill="#29329C"/>
<path d="M244.13 404.7C247.9 397.33 247.95 389.21 243.88 382.81C242.13 380.07 251.02 374.66 251.02 374.66C254.16 384.47 256.72 385.04 258.9 386.56C261.08 388.08 261.3 391.35 259.46 392.46C257.452 393.64 255.742 395.265 254.46 397.21C252.18 400.21 250.9 404.33 247.63 406.9C245.54 408.53 242.47 407.93 244.13 404.7Z" fill="#29329C"/>
<path d="M252.67 379.16C252.67 379.16 250.06 369.98 244.94 356.23C241.073 359.893 236.795 363.094 232.19 365.77C239.42 376.53 244.71 384.26 244.71 384.26C247.784 383.329 250.539 381.564 252.67 379.16Z" fill="#FFC3BD"/>
<path d="M226.6 361.571C227.6 363.031 230.28 366.681 231.75 367.711C231.836 367.771 231.935 367.812 232.039 367.829C232.142 367.847 232.249 367.84 232.35 367.811C239.15 365.711 245 361.501 247.14 359.131C247.2 359.067 247.245 358.991 247.273 358.908C247.301 358.825 247.31 358.738 247.3 358.651C247.16 356.401 245.58 352.211 244.89 350.461C244.852 350.368 244.794 350.285 244.72 350.217C244.646 350.15 244.558 350.1 244.462 350.071C244.366 350.042 244.265 350.036 244.166 350.051C244.067 350.066 243.973 350.104 243.89 350.161C238.433 353.968 232.756 357.451 226.89 360.591C226.801 360.63 226.722 360.688 226.657 360.761C226.593 360.834 226.546 360.92 226.518 361.014C226.49 361.107 226.484 361.205 226.498 361.301C226.512 361.397 226.547 361.489 226.6 361.571Z" fill="#263238"/>
<path d="M137.26 180.001C138.62 188.851 133.35 195.711 141.46 199.791C140.11 206.521 142.11 219.961 145.32 225.291C149.83 227.741 171.89 224.121 189.92 219.181C189.66 211.481 183.33 196.331 185.09 171.111C185.185 169.731 184.989 168.347 184.514 167.048C184.04 165.749 183.297 164.564 182.336 163.571C181.374 162.577 180.214 161.796 178.932 161.28C177.649 160.763 176.272 160.521 174.89 160.571C173.33 160.571 171.67 160.721 169.99 160.871C164.084 161.25 158.212 162.052 152.42 163.271C150.55 163.711 148.62 164.211 146.79 164.731C143.609 165.67 140.882 167.743 139.126 170.556C137.37 173.37 136.706 176.73 137.26 180.001Z" fill="#263238"/>
<path d="M150 173.27C150 173.27 155.65 171.21 158.61 176.27C163.54 173.5 170.47 161.79 169.98 160.9C161.73 163.17 150 173.27 150 173.27Z" fill="white"/>
<path d="M150 173.271C150 173.271 145.71 172.761 144.5 176.561C144.5 169.061 149.56 164.341 151.77 163.461C151 165.421 150 173.271 150 173.271Z" fill="white"/>
<path d="M167.82 141.051C167.19 146.901 167.09 156.301 169.99 160.911C169.99 160.911 158.99 168.441 149.99 173.271C147.16 166.721 151.76 163.461 151.76 163.461C156.05 161.821 156.01 156.331 155.43 152.131L167.82 141.051Z" fill="#FFC3BD"/>
<path opacity="0.2" d="M155.45 152.13L162.45 145.83C162.685 147.006 162.609 148.223 162.23 149.36C161.018 152.638 158.687 155.382 155.65 157.11C155.76 155.448 155.693 153.778 155.45 152.13Z" fill="black"/>
<path d="M170.08 130.18C169.08 139.68 168.93 143.71 164.03 148.41C156.65 155.48 145.42 152.24 143.57 142.66C141.9 134.03 143.73 119.95 153.01 116.52C162.29 113.09 171 120.69 170.08 130.18Z" fill="#FFC3BD"/>
<path d="M168 137.13C166.534 135.726 165.677 133.803 165.613 131.774C165.549 129.746 166.284 127.773 167.66 126.28C170.16 123.75 173.66 128.99 173.66 128.99L168 137.13Z" fill="#263238"/>
<path d="M156.41 132.81C156.41 133.59 155.94 134.2 155.41 134.18C154.88 134.16 154.52 133.51 154.55 132.74C154.58 131.97 155.02 131.35 155.55 131.37C156.08 131.39 156.44 132 156.41 132.81Z" fill="#263238"/>
<path d="M146.87 132.581C146.87 133.351 146.41 133.961 145.87 133.941C145.33 133.921 144.98 133.281 145.01 132.501C145.04 131.721 145.47 131.121 146.01 131.141C146.55 131.161 146.9 131.801 146.87 132.581Z" fill="#263238"/>
<path d="M146.23 131.19L144.39 130.58C144.39 130.58 145.29 132.07 146.23 131.19Z" fill="#263238"/>
<path d="M149.22 132.881C148.447 134.624 147.438 136.253 146.22 137.721C146.604 138.017 147.048 138.226 147.522 138.333C147.995 138.44 148.486 138.443 148.96 138.341L149.22 132.881Z" fill="#ED847E"/>
<path d="M153.35 141.381C152.916 141.442 152.478 141.462 152.04 141.441C151.981 141.438 151.925 141.413 151.884 141.37C151.843 141.327 151.82 141.27 151.82 141.211C151.821 141.181 151.829 141.151 151.841 141.124C151.854 141.096 151.872 141.072 151.894 141.051C151.917 141.031 151.943 141.015 151.971 141.005C152 140.994 152.03 140.99 152.06 140.991C153.023 141.048 153.986 140.879 154.872 140.497C155.757 140.115 156.541 139.531 157.16 138.791C157.176 138.766 157.197 138.745 157.221 138.729C157.246 138.712 157.273 138.701 157.302 138.695C157.331 138.69 157.361 138.69 157.39 138.696C157.419 138.702 157.446 138.714 157.47 138.731C157.495 138.748 157.516 138.77 157.533 138.795C157.549 138.82 157.561 138.849 157.566 138.879C157.572 138.908 157.572 138.939 157.565 138.968C157.559 138.998 157.547 139.026 157.53 139.051C156.493 140.342 154.994 141.178 153.35 141.381Z" fill="#263238"/>
<path d="M171.66 138.14C171.289 138.926 170.754 139.623 170.092 140.185C169.43 140.747 168.655 141.161 167.82 141.4C165.69 141.93 164.7 139.59 165.36 137.25C165.95 135.14 167.78 132.33 169.88 132.84C171.98 133.35 172.69 136.09 171.66 138.14Z" fill="#FFC3BD"/>
<path d="M165.16 116.671C158.428 120.871 150.87 123.569 143 124.581C143 117.751 156.36 110.081 165.16 116.671Z" fill="#263238"/>
<path d="M160 117.5C158.45 123.5 174 134.5 171 145.08C176.08 137.17 172.42 119.37 172.42 119.37C172.42 119.37 159.32 111.08 160 117.5Z" fill="#263238"/>
<path d="M158.4 127.709C158.339 127.701 158.281 127.68 158.229 127.647C158.178 127.614 158.134 127.571 158.1 127.519C157.791 127.037 157.373 126.635 156.88 126.345C156.386 126.055 155.831 125.885 155.26 125.849C155.201 125.852 155.141 125.843 155.085 125.822C155.03 125.801 154.979 125.769 154.936 125.728C154.893 125.687 154.859 125.637 154.835 125.583C154.812 125.528 154.8 125.469 154.8 125.409C154.797 125.349 154.807 125.288 154.828 125.231C154.85 125.174 154.882 125.122 154.925 125.078C154.967 125.034 155.017 124.999 155.073 124.976C155.129 124.952 155.189 124.939 155.25 124.939C155.972 124.971 156.676 125.175 157.302 125.535C157.929 125.896 158.46 126.401 158.85 127.009C158.884 127.059 158.908 127.114 158.92 127.172C158.932 127.231 158.933 127.291 158.922 127.35C158.911 127.408 158.888 127.464 158.855 127.514C158.822 127.564 158.78 127.606 158.73 127.639C158.682 127.672 158.629 127.695 158.572 127.707C158.515 127.719 158.457 127.72 158.4 127.709Z" fill="#263238"/>
<path d="M142.65 127.38C142.533 127.372 142.423 127.322 142.34 127.24C142.298 127.198 142.264 127.148 142.241 127.093C142.218 127.039 142.206 126.98 142.206 126.92C142.206 126.861 142.218 126.802 142.241 126.747C142.264 126.692 142.298 126.642 142.34 126.6C142.839 126.076 143.456 125.679 144.14 125.442C144.823 125.206 145.554 125.136 146.27 125.24C146.387 125.266 146.49 125.338 146.555 125.439C146.621 125.54 146.644 125.662 146.62 125.78C146.608 125.839 146.585 125.895 146.551 125.944C146.517 125.994 146.474 126.036 146.424 126.069C146.373 126.101 146.317 126.124 146.258 126.134C146.199 126.145 146.139 126.143 146.08 126.13C145.512 126.058 144.936 126.12 144.397 126.313C143.858 126.506 143.373 126.824 142.98 127.24C142.893 127.328 142.774 127.379 142.65 127.38Z" fill="#263238"/>
<path d="M155.77 131.42L153.93 130.82C153.93 130.82 154.82 132.31 155.77 131.42Z" fill="#263238"/>
<path opacity="0.2" d="M184.85 176C184.67 181.339 184.847 186.684 185.38 192C180.38 186.72 174.1 176.75 173.69 171.75L184.85 176Z" fill="black"/>
<path d="M217.5 157.221L218.59 150.871L228.46 154.681C228.46 154.681 226.17 160.591 221.96 163.201L220.79 162.461C219.873 161.903 219.098 161.139 218.527 160.229C217.956 159.32 217.604 158.29 217.5 157.221Z" fill="#FFC3BD"/>
<path d="M224.75 147.331L228 149.101C228.71 149.486 229.239 150.137 229.471 150.91C229.703 151.684 229.62 152.518 229.24 153.231L228.47 154.681L218.6 150.871L220.95 148.061C221.403 147.522 222.029 147.155 222.72 147.022C223.412 146.889 224.129 146.998 224.75 147.331Z" fill="#FFC3BD"/>
<path d="M183.09 164.47L184.35 165.77L185.72 167.16C186.65 168.07 187.58 169 188.54 169.88C190.44 171.67 192.4 173.33 194.37 174.88C196.228 176.337 198.201 177.641 200.27 178.78C201.852 179.67 203.573 180.285 205.36 180.6L202.67 181.1C202.01 181.42 202.05 181.56 202.19 181.45C202.46 181.269 202.708 181.058 202.93 180.82C203.662 180.059 204.331 179.239 204.93 178.37C206.29 176.44 207.67 174.25 208.93 171.98C210.19 169.71 211.53 167.38 212.82 164.98L216.67 157.86V157.8C217.121 156.952 217.86 156.291 218.753 155.937C219.647 155.583 220.637 155.558 221.547 155.867C222.458 156.176 223.228 156.799 223.721 157.624C224.215 158.449 224.398 159.422 224.24 160.37C223.78 163.25 223.15 165.97 222.45 168.74C221.75 171.51 221 174.25 220 177C219.02 179.836 217.858 182.605 216.52 185.29C215.744 186.802 214.865 188.259 213.89 189.65C213.274 190.508 212.585 191.311 211.83 192.05C210.712 193.165 209.392 194.058 207.94 194.68C207.228 194.984 206.464 195.15 205.69 195.17H205.25C201.299 195.193 197.388 194.371 193.78 192.76C192.187 192.079 190.632 191.315 189.12 190.47C187.673 189.617 186.277 188.733 184.93 187.82C182.313 185.988 179.821 183.983 177.47 181.82C176.32 180.76 175.18 179.69 174.09 178.56C173.55 178 173 177.44 172.47 176.85C171.94 176.26 171.47 175.72 170.82 174.97C169.383 173.379 168.636 171.282 168.745 169.14C168.854 166.998 169.809 164.987 171.4 163.55C172.991 162.113 175.088 161.366 177.23 161.475C179.372 161.584 181.383 162.539 182.82 164.13L183.09 164.47Z" fill="#FFC3BD"/>
<path d="M175.33 160.621C182.66 160.841 189.95 169.621 189.95 169.621C189.95 169.621 187.13 181.271 179.1 186.291C174.58 182.771 170.75 179.951 170.75 179.951C164.36 170.581 166.49 164.361 175.33 160.621Z" fill="#263238"/>
<path d="M143.86 224.64C144.4 227.77 145.05 230.23 145.26 230.98C145.28 231.06 145.316 231.135 145.366 231.2C145.416 231.265 145.479 231.32 145.55 231.36C146.62 231.95 151.5 234.36 160.46 233.83C170.46 233.29 185.13 227.83 192.74 222.02C192.851 221.934 192.931 221.815 192.967 221.679C193.003 221.544 192.993 221.4 192.94 221.27C192.352 219.967 191.667 218.71 190.89 217.51C190.814 217.395 190.703 217.308 190.573 217.261C190.443 217.214 190.302 217.21 190.17 217.25C186.89 218.25 166.24 224.16 144.49 223.9C144.398 223.901 144.307 223.921 144.223 223.96C144.139 223.999 144.065 224.055 144.005 224.125C143.945 224.196 143.901 224.278 143.876 224.367C143.851 224.456 143.846 224.549 143.86 224.64Z" fill="#29329C"/>
<path opacity="0.3" d="M143.86 224.64C144.4 227.77 145.05 230.23 145.26 230.98C145.28 231.06 145.316 231.135 145.366 231.2C145.416 231.265 145.479 231.32 145.55 231.36C146.62 231.95 151.5 234.36 160.46 233.83C170.46 233.29 185.13 227.83 192.74 222.02C192.851 221.934 192.931 221.815 192.967 221.679C193.003 221.544 192.993 221.4 192.94 221.27C192.352 219.967 191.667 218.71 190.89 217.51C190.814 217.395 190.703 217.308 190.573 217.261C190.443 217.214 190.302 217.21 190.17 217.25C186.89 218.25 166.24 224.16 144.49 223.9C144.398 223.901 144.307 223.921 144.223 223.96C144.139 223.999 144.065 224.055 144.005 224.125C143.945 224.196 143.901 224.278 143.876 224.367C143.851 224.456 143.846 224.549 143.86 224.64Z" fill="white"/>
<path d="M344.27 386.411H212.61C210.175 386.433 207.761 385.952 205.521 384.996C203.281 384.04 201.264 382.632 199.594 380.858C197.925 379.085 196.641 376.986 195.823 374.692C195.005 372.398 194.67 369.96 194.84 367.531L210.84 93.8807C211.205 88.8014 213.462 84.0437 217.165 80.548C220.868 77.0522 225.748 75.0728 230.84 75.0008H362.53C364.965 74.9783 367.379 75.4599 369.618 76.4155C371.858 77.371 373.876 78.7798 375.545 80.5531C377.215 82.3264 378.499 84.4259 379.317 86.7196C380.135 89.0133 380.47 91.4514 380.3 93.8807L364.25 367.531C363.885 372.607 361.631 377.362 357.932 380.857C354.233 384.352 349.358 386.334 344.27 386.411Z" fill="#29329C"/>
<path opacity="0.8" d="M344.27 386.411H212.61C210.175 386.433 207.761 385.952 205.521 384.996C203.281 384.04 201.264 382.632 199.594 380.858C197.925 379.085 196.641 376.986 195.823 374.692C195.005 372.398 194.67 369.96 194.84 367.531L210.84 93.8807C211.205 88.8014 213.462 84.0437 217.165 80.548C220.868 77.0522 225.748 75.0728 230.84 75.0008H362.53C364.965 74.9783 367.379 75.4599 369.618 76.4155C371.858 77.371 373.876 78.7798 375.545 80.5531C377.215 82.3264 378.499 84.4259 379.317 86.7196C380.135 89.0133 380.47 91.4514 380.3 93.8807L364.25 367.531C363.885 372.607 361.631 377.362 357.932 380.857C354.233 384.352 349.358 386.334 344.27 386.411Z" fill="white"/>
<path d="M343.49 380.93H215.49C213.779 380.946 212.083 380.609 210.509 379.938C208.935 379.267 207.517 378.278 206.344 377.033C205.171 375.787 204.268 374.312 203.692 372.701C203.117 371.09 202.881 369.377 203 367.67L219 95.2099C219.256 91.6498 220.835 88.3144 223.426 85.8589C226.016 83.4035 229.431 82.0056 233 81.9399H361C362.711 81.9248 364.407 82.2638 365.981 82.9356C367.556 83.6075 368.974 84.5976 370.147 85.8439C371.32 87.0901 372.222 88.5655 372.798 90.1774C373.373 91.7892 373.609 93.5026 373.49 95.2099L357.49 367.67C357.233 371.229 355.654 374.563 353.064 377.017C350.473 379.471 347.058 380.867 343.49 380.93Z" fill="#29329C"/>
<path d="M342.11 379.469H214.11C212.399 379.484 210.703 379.145 209.128 378.474C207.554 377.802 206.136 376.812 204.963 375.565C203.79 374.319 202.888 372.844 202.312 371.232C201.737 369.62 201.501 367.907 201.62 366.199L217.62 93.7392C217.876 90.1791 219.455 86.8437 222.046 84.3882C224.636 81.9328 228.051 80.5349 231.62 80.4692H359.62C361.331 80.4541 363.027 80.7931 364.601 81.4649C366.176 82.1368 367.594 83.1269 368.767 84.3732C369.94 85.6194 370.842 87.0948 371.418 88.7066C371.993 90.3185 372.229 92.0319 372.11 93.7392L356.11 366.199C355.853 369.759 354.275 373.095 351.684 375.55C349.094 378.006 345.679 379.404 342.11 379.469Z" fill="white"/>
<path opacity="0.1" d="M338.37 369.339H219C217.942 369.349 216.894 369.139 215.921 368.724C214.949 368.309 214.072 367.697 213.347 366.927C212.622 366.157 212.064 365.245 211.709 364.249C211.353 363.253 211.207 362.195 211.28 361.139L218 247.489C218.158 245.284 219.137 243.218 220.744 241.7C222.351 240.181 224.469 239.321 226.68 239.289H346C347.058 239.28 348.106 239.489 349.079 239.904C350.051 240.32 350.928 240.931 351.653 241.701C352.378 242.472 352.936 243.383 353.292 244.379C353.647 245.375 353.793 246.434 353.72 247.489L347.05 361.139C346.892 363.345 345.913 365.411 344.306 366.929C342.699 368.447 340.581 369.307 338.37 369.339Z" fill="#29329C"/>
<path opacity="0.1" d="M311.86 100.679H277.07C276.692 100.683 276.317 100.608 275.969 100.46C275.622 100.312 275.308 100.094 275.049 99.8183C274.79 99.5431 274.59 99.2172 274.463 98.8612C274.336 98.5051 274.284 98.1266 274.31 97.7494C274.365 96.9586 274.716 96.2174 275.292 95.6728C275.868 95.1282 276.627 94.82 277.42 94.8094H312.2C312.582 94.8 312.962 94.8707 313.316 95.0171C313.669 95.1634 313.988 95.382 314.252 95.6589C314.515 95.9359 314.718 96.2649 314.847 96.625C314.976 96.985 315.028 97.368 315 97.7494C314.944 98.5444 314.589 99.2888 314.007 99.8325C313.424 100.376 312.657 100.679 311.86 100.679Z" fill="#29329C"/>
<path opacity="0.1" d="M325.701 210.368C347.123 189.565 348.586 156.322 328.967 136.12C309.349 115.917 276.078 116.404 254.655 137.208C233.232 158.012 231.769 191.254 251.388 211.457C271.007 231.66 304.278 231.172 325.701 210.368Z" fill="#29329C"/>
<path d="M253.4 208.57C249.023 203.91 245.656 198.396 243.51 192.373C241.364 186.35 240.486 179.949 240.93 173.57H241.93C241.497 179.811 242.357 186.075 244.456 191.968C246.555 197.862 249.849 203.258 254.13 207.82L253.4 208.57Z" fill="#29329C"/>
<path d="M339.42 174L338.42 173.94C338.693 169.535 338.357 165.113 337.42 160.8L338.42 160.58C339.376 164.985 339.713 169.502 339.42 174Z" fill="#29329C"/>
<path d="M334.52 152.101C332.073 146.671 328.572 141.781 324.22 137.714C319.868 133.648 314.753 130.485 309.17 128.411L309.52 127.471C315.231 129.588 320.463 132.821 324.911 136.981C329.359 141.141 332.935 146.145 335.43 151.701L334.52 152.101Z" fill="#29329C"/>
<path d="M321.13 205.663C339.8 187.534 341.076 158.566 323.981 140.962C306.887 123.359 277.894 123.786 259.225 141.915C240.556 160.045 239.279 189.013 256.374 206.616C273.469 224.22 302.461 223.793 321.13 205.663Z" fill="#29329C"/>
<path d="M285.09 180C287.29 179.51 288.32 177.63 288.79 175.49C288.84 175.26 288.88 175.04 288.92 174.82V174.62C289.04 173.728 289.107 172.83 289.12 171.93C286.99 171.719 285.012 170.732 283.563 169.158C282.113 167.583 281.294 165.53 281.26 163.39C281.15 159.146 282.091 154.941 284 151.15C283.508 151.214 283.043 151.407 282.65 151.71C282.612 151.739 282.568 151.759 282.522 151.77C282.475 151.78 282.427 151.78 282.38 151.77C282.293 151.755 282.215 151.709 282.16 151.64C282.107 151.565 282.084 151.472 282.097 151.381C282.11 151.29 282.158 151.207 282.23 151.15C282.852 150.68 283.611 150.427 284.39 150.43C284.54 150.19 284.68 149.94 284.83 149.71C284.19 149.71 283.57 149.71 282.97 149.71C283.63 145.09 292.52 141.21 298.58 144.71C301.28 145.25 305.74 149.11 305.74 149.11C305.829 151.569 305.759 154.03 305.53 156.48C305.13 160.66 304.14 165.57 301.73 168.31C302.33 166.908 302.55 165.374 302.37 163.86C301.792 164.431 301.075 164.841 300.29 165.05C300.005 165.663 299.671 166.251 299.29 166.81C298.35 171.1 297.68 176.81 299.11 180.1C300.4 180.18 301.65 180.3 302.84 180.43L303.13 180.48C303.915 180.019 304.67 179.508 305.39 178.95C314.39 171.95 304.84 163.73 307.09 156.2C309.34 148.67 307.44 145.81 301.29 145.57C303.84 141.5 287.64 135 280.52 147.63C274.07 159.08 271.99 164.8 274.31 173.75C275.182 176.675 277.158 179.146 279.82 180.64C280.273 180.516 280.734 180.422 281.2 180.36C282.47 180.24 283.79 180.1 285.09 180Z" fill="#263238"/>
<path d="M271.1 197.6C270.733 196.95 270.399 196.283 270.1 195.6C269.42 197.6 268.75 199.6 268.1 201.6C267.48 203.4 266.89 205.2 266.27 206.92L265.34 209.35L264.94 210.35C264.8 210.62 264.94 210.46 264.94 210.54C264.514 211.036 264.042 211.491 263.53 211.9C263.42 212.01 263.28 212.11 263.16 212.21C265.927 214.076 268.904 215.61 272.03 216.78C272.1 212.21 272.66 207.46 273.26 206.19C269.66 203.69 270.2 201 271.1 197.6Z" fill="#FFC3BD"/>
<path d="M274.6 184.109L274.35 184.459C274.43 184.339 274.52 184.229 274.61 184.119L274.6 184.109Z" fill="#263238"/>
<path d="M272.29 190.81C272.275 188.609 272.943 186.457 274.2 184.65C272.283 187.667 270.706 190.886 269.5 194.25C269.5 194.25 269.68 194.78 270.06 195.61C270.359 196.294 270.693 196.961 271.06 197.61C271.773 195.409 272.187 193.122 272.29 190.81Z" fill="#263238"/>
<path d="M307.15 205.32C305.965 203.578 304.912 201.75 304 199.85C303.7 200.01 303.39 200.17 303.07 200.31C300.07 197.14 297.51 194.58 297.51 194.58C293.77 186.78 296.08 182.34 303.17 180.53C304.27 180.756 305.32 181.18 306.27 181.78C305.335 181.123 304.26 180.691 303.13 180.52L302.84 180.47C301.65 180.34 300.4 180.22 299.11 180.14C299.39 180.87 292.97 190.14 288.94 191.61C287.29 187.45 282.66 187.17 282.66 187.17C282.66 187.17 278.34 186.28 277 189C277.88 183.38 283.29 180.42 285.09 180C283.79 180.11 282.47 180.25 281.2 180.41C280.734 180.472 280.273 180.566 279.82 180.69C277.762 181.254 275.937 182.459 274.61 184.13C274.52 184.24 274.43 184.35 274.35 184.47L274.2 184.66C272.943 186.467 272.275 188.619 272.29 190.82C272.199 193.126 271.799 195.41 271.1 197.61C270.2 200.97 269.66 203.7 273.19 206.2C272.59 207.47 272.03 212.2 271.96 216.79C276.93 218.632 282.19 219.567 287.49 219.55C294.277 219.54 300.982 218.07 307.15 215.24C306.978 211.518 307.008 207.789 307.24 204.07C307.21 204.47 307.17 204.91 307.15 205.32Z" fill="#263238"/>
<path d="M282.66 187.171C282.66 187.171 287.29 187.451 288.94 191.611C292.94 190.091 299.39 180.871 299.11 180.141C299.11 180.141 290 184.561 282.66 187.171Z" fill="white"/>
<path d="M285.11 180C283.31 180.43 277.9 183.39 277.02 189C278.36 186.28 282.68 187.17 282.68 187.17C281.28 181.91 285.11 180 285.11 180Z" fill="white"/>
<path d="M299.29 166.85C298.421 168.11 297.322 169.196 296.05 170.05C295.515 170.434 294.946 170.769 294.35 171.05C293.04 173.152 291.087 174.776 288.78 175.68V175.51C288.31 177.65 287.28 179.51 285.08 180.02C285.08 180.02 281.25 181.94 282.63 187.2C289.98 184.59 299.08 180.2 299.08 180.2C297.68 176.86 298.35 171.14 299.29 166.85Z" fill="#FFC3BD"/>
<path d="M288.81 175.481C288.86 175.251 288.9 175.031 288.94 174.811C288.9 175.001 288.86 175.251 288.81 175.481Z" fill="#263238"/>
<path opacity="0.2" d="M288.81 175.481C288.86 175.251 288.9 175.031 288.94 174.811C288.9 175.001 288.86 175.251 288.81 175.481Z" fill="black"/>
<path d="M289.17 171.92C289.157 172.82 289.09 173.718 288.97 174.61C289.094 173.718 289.161 172.82 289.17 171.92Z" fill="#263238"/>
<path opacity="0.2" d="M289.17 171.92C289.157 172.82 289.09 173.718 288.97 174.61C289.094 173.718 289.161 172.82 289.17 171.92Z" fill="black"/>
<path d="M294.35 171C292.739 171.772 290.947 172.083 289.17 171.9C289.161 172.8 289.094 173.699 288.97 174.59V174.79C288.97 175.01 288.89 175.23 288.84 175.46V175.63C291.124 174.715 293.055 173.093 294.35 171Z" fill="#FFC3BD"/>
<path opacity="0.2" d="M294.35 171C292.739 171.772 290.947 172.083 289.17 171.9C289.161 172.8 289.094 173.699 288.97 174.59V174.79C288.97 175.01 288.89 175.23 288.84 175.46V175.63C291.124 174.715 293.055 173.093 294.35 171Z" fill="black"/>
<path d="M294.35 171C294.946 170.719 295.515 170.384 296.05 170C297.322 169.146 298.421 168.06 299.29 166.8C299.671 166.241 300.005 165.652 300.29 165.04C300.1 165.04 299.91 165.14 299.73 165.16C298.06 165.31 297.59 163.43 298.35 161.75C298.607 161.181 298.944 160.653 299.35 160.18C298.914 158.752 299.02 157.213 299.65 155.86C298.13 152.74 296.52 149.86 296.37 147.77C292.628 148.926 288.745 149.562 284.83 149.66C284.68 149.89 284.54 150.14 284.39 150.38C284.729 150.378 285.066 150.429 285.39 150.53C285.432 150.545 285.471 150.569 285.504 150.599C285.537 150.63 285.563 150.667 285.582 150.708C285.6 150.749 285.611 150.793 285.612 150.838C285.613 150.883 285.606 150.928 285.59 150.97C285.558 151.055 285.495 151.125 285.413 151.164C285.33 151.203 285.236 151.209 285.15 151.18C284.791 151.07 284.411 151.043 284.04 151.1C282.157 154.894 281.24 159.095 281.37 163.33C281.404 165.47 282.223 167.522 283.673 169.097C285.122 170.672 287.1 171.659 289.23 171.87C290.984 172.051 292.754 171.75 294.35 171ZM292.12 151.36C292.665 151.467 293.175 151.705 293.607 152.053C294.039 152.402 294.38 152.85 294.6 153.36C294.639 153.443 294.644 153.539 294.614 153.627C294.584 153.714 294.522 153.787 294.44 153.83C294.357 153.864 294.263 153.864 294.18 153.83C294.135 153.817 294.093 153.794 294.059 153.763C294.024 153.732 293.997 153.693 293.98 153.65C293.798 153.246 293.521 152.892 293.173 152.618C292.825 152.345 292.415 152.16 291.98 152.08C291.89 152.065 291.809 152.016 291.753 151.944C291.697 151.871 291.671 151.78 291.68 151.69C291.684 151.638 291.699 151.589 291.725 151.544C291.75 151.499 291.785 151.461 291.827 151.431C291.869 151.402 291.917 151.382 291.968 151.373C292.018 151.364 292.07 151.366 292.12 151.38V151.36ZM291.77 156.3C291.937 156.425 292.06 156.599 292.123 156.798C292.186 156.997 292.185 157.211 292.12 157.41C292.01 157.99 291.61 158.41 291.23 158.32C290.85 158.23 290.63 157.72 290.74 157.14C290.795 156.846 290.946 156.578 291.17 156.38C290.858 156.215 290.614 155.946 290.48 155.62L291.77 156.3ZM283.57 155.88C283.624 155.59 283.771 155.327 283.99 155.13C283.683 154.956 283.444 154.685 283.31 154.36L284.62 155.03C284.781 155.159 284.901 155.334 284.963 155.532C285.025 155.729 285.028 155.941 284.97 156.14C284.85 156.72 284.46 157.14 284.08 157.06C283.7 156.98 283.46 156.48 283.57 155.9V155.88ZM285.89 160.74C285.519 160.761 285.148 160.702 284.803 160.566C284.457 160.429 284.146 160.219 283.89 159.95C284.961 158.979 285.896 157.869 286.67 156.65L285.89 160.74ZM287.82 163.42C287.776 163.408 287.737 163.379 287.713 163.34C287.689 163.301 287.681 163.255 287.69 163.21C287.7 163.166 287.726 163.128 287.763 163.104C287.801 163.079 287.846 163.071 287.89 163.08C288.612 163.235 289.36 163.218 290.074 163.031C290.788 162.843 291.448 162.49 292 162C292.016 161.983 292.035 161.97 292.055 161.961C292.076 161.952 292.099 161.947 292.121 161.946C292.144 161.946 292.167 161.95 292.188 161.958C292.209 161.966 292.229 161.979 292.245 161.995C292.261 162.01 292.275 162.029 292.284 162.05C292.293 162.071 292.298 162.093 292.298 162.116C292.299 162.139 292.295 162.161 292.286 162.183C292.278 162.204 292.266 162.223 292.25 162.24C291.32 163.095 290.093 163.555 288.83 163.52C288.492 163.517 288.154 163.49 287.82 163.44V163.42Z" fill="#FFC3BD"/>
<path d="M301 159C300.58 158 300.1 156.93 299.61 155.93C298.98 157.283 298.874 158.822 299.31 160.25C299.753 159.692 300.336 159.26 301 159Z" fill="#263238"/>
<path d="M291.15 156.41C290.926 156.609 290.775 156.876 290.72 157.17C290.61 157.75 290.83 158.28 291.21 158.35C291.59 158.42 291.99 158.02 292.1 157.44C292.165 157.242 292.166 157.028 292.103 156.829C292.04 156.63 291.917 156.455 291.75 156.33C291.666 156.394 291.566 156.436 291.461 156.45C291.355 156.464 291.248 156.45 291.15 156.41Z" fill="#263238"/>
<path d="M285 156.171C285.058 155.972 285.055 155.76 284.993 155.563C284.931 155.365 284.811 155.19 284.65 155.061C284.563 155.124 284.462 155.165 284.356 155.181C284.25 155.197 284.141 155.186 284.04 155.151C283.821 155.348 283.674 155.611 283.62 155.901C283.51 156.481 283.73 157.011 284.11 157.091C284.49 157.171 284.83 156.751 285 156.171Z" fill="#263238"/>
<path d="M284.6 155.061L283.29 154.391C283.424 154.716 283.663 154.987 283.97 155.161C284.075 155.199 284.188 155.209 284.298 155.192C284.408 155.174 284.512 155.129 284.6 155.061Z" fill="#263238"/>
<path d="M283.9 159.999C284.156 160.269 284.467 160.479 284.813 160.615C285.158 160.752 285.529 160.811 285.9 160.789L286.69 156.699C285.913 157.92 284.974 159.03 283.9 159.999Z" fill="#ED847E"/>
<path d="M292.23 162C292.196 161.967 292.152 161.949 292.105 161.949C292.058 161.949 292.013 161.967 291.98 162C291.43 162.487 290.774 162.838 290.063 163.026C289.353 163.213 288.609 163.232 287.89 163.08C287.846 163.071 287.801 163.079 287.763 163.104C287.726 163.128 287.7 163.166 287.69 163.21C287.681 163.255 287.689 163.301 287.713 163.341C287.737 163.38 287.776 163.408 287.82 163.42C288.151 163.476 288.485 163.51 288.82 163.52C290.083 163.555 291.31 163.096 292.24 162.24C292.268 162.205 292.283 162.162 292.281 162.118C292.279 162.073 292.261 162.031 292.23 162Z" fill="#263238"/>
<path d="M301 159C300.336 159.261 299.753 159.692 299.31 160.25C298.904 160.723 298.567 161.252 298.31 161.82C297.55 163.5 298.02 165.38 299.69 165.23C299.87 165.23 300.06 165.15 300.25 165.11C301.035 164.901 301.752 164.491 302.33 163.92C302.121 162.226 301.673 160.569 301 159Z" fill="#FFC3BD"/>
<path d="M296.56 146.32C296.62 144.88 297.44 144.53 298.56 144.75C292.5 141.21 283.61 145.09 282.95 149.75C283.55 149.75 284.17 149.75 284.81 149.75C288.725 149.653 292.608 149.017 296.35 147.86C296.292 147.338 296.364 146.809 296.56 146.32Z" fill="#263238"/>
<path d="M296.56 146.32C296.371 146.796 296.299 147.31 296.35 147.82C296.5 149.94 298.11 152.82 299.63 155.91C300.12 156.91 300.63 157.91 301.02 158.98C301.693 160.549 302.141 162.205 302.35 163.9C302.53 165.414 302.31 166.948 301.71 168.35C304.12 165.61 305.11 160.7 305.51 156.52C305.739 154.07 305.809 151.608 305.72 149.15C305.72 149.15 301.26 145.29 298.56 144.75C297.44 144.53 296.62 144.88 296.56 146.32Z" fill="#263238"/>
<path d="M292 152.07C292.435 152.151 292.845 152.336 293.193 152.609C293.542 152.883 293.818 153.237 294 153.64C294.017 153.684 294.044 153.723 294.079 153.754C294.113 153.785 294.155 153.808 294.2 153.82C294.283 153.855 294.377 153.855 294.46 153.82C294.542 153.778 294.604 153.705 294.634 153.617C294.664 153.53 294.659 153.434 294.62 153.35C294.4 152.841 294.059 152.392 293.627 152.044C293.195 151.695 292.685 151.457 292.14 151.35C292.049 151.339 291.956 151.364 291.883 151.42C291.81 151.476 291.763 151.559 291.75 151.65C291.731 151.739 291.746 151.831 291.793 151.909C291.839 151.987 291.913 152.045 292 152.07Z" fill="#263238"/>
<path d="M285.09 151.23C285.176 151.259 285.27 151.253 285.353 151.214C285.435 151.175 285.498 151.105 285.53 151.02C285.546 150.978 285.554 150.933 285.552 150.888C285.551 150.843 285.54 150.799 285.522 150.758C285.503 150.717 285.477 150.68 285.444 150.65C285.411 150.619 285.372 150.595 285.33 150.58C285.006 150.479 284.669 150.428 284.33 150.43C283.551 150.427 282.792 150.68 282.17 151.15C282.098 151.207 282.05 151.29 282.037 151.381C282.024 151.472 282.047 151.565 282.1 151.64C282.155 151.708 282.233 151.755 282.32 151.77C282.367 151.78 282.415 151.78 282.462 151.769C282.508 151.759 282.552 151.739 282.59 151.71C282.983 151.407 283.449 151.214 283.94 151.15C284.324 151.087 284.718 151.115 285.09 151.23Z" fill="#263238"/>
<path d="M291.15 156.41C291.248 156.45 291.355 156.464 291.461 156.45C291.566 156.436 291.666 156.395 291.75 156.33L290.44 155.66C290.581 155.986 290.832 156.251 291.15 156.41Z" fill="#263238"/>
<path d="M307.15 205.32C307.15 204.91 307.21 204.47 307.23 204.05C306.67 203.16 306.1 202.26 305.51 201.37L304.36 199.66L304 199.85C304.912 201.75 305.965 203.578 307.15 205.32Z" fill="#263238"/>
<path opacity="0.2" d="M307.15 205.32C307.15 204.91 307.21 204.47 307.23 204.05C306.67 203.16 306.1 202.26 305.51 201.37L304.36 199.66L304 199.85C304.912 201.75 305.965 203.578 307.15 205.32Z" fill="black"/>
<path d="M310.12 213.6V213.76C314.108 211.605 317.783 208.913 321.04 205.76C320.494 204.147 319.853 202.567 319.12 201.03C318.15 198.939 317.072 196.899 315.89 194.92C314.89 193.2 313.83 191.56 312.74 189.92C311.74 192.01 308.9 197.04 304.39 199.63L305.54 201.34C306.13 202.23 306.7 203.13 307.26 204.02C307.75 204.8 308.26 205.59 308.67 206.37C309.44 207.72 310.16 209.08 310.67 210.37L310.57 211.05C310.45 211.88 310.3 212.73 310.12 213.6Z" fill="#FFC3BD"/>
<path d="M297.51 194.579C297.51 194.579 300.07 197.139 303.07 200.309C303.39 200.169 303.7 200.009 304 199.849L304.36 199.659C308.87 197.069 311.69 192.039 312.71 189.949C313 189.359 313.15 188.999 313.15 188.999C313.15 188.999 310.25 184.199 306.27 181.779C305.32 181.179 304.27 180.756 303.17 180.529C296.08 182.339 293.77 186.779 297.51 194.579Z" fill="#263238"/>
<path d="M345.46 94.27H359.55C359.935 94.2635 360.303 94.113 360.583 93.8484C360.862 93.5837 361.033 93.2239 361.06 92.84C361.072 92.6571 361.047 92.4736 360.985 92.301C360.923 92.1284 360.826 91.9705 360.7 91.8371C360.575 91.7038 360.422 91.5979 360.254 91.5261C360.085 91.4543 359.903 91.4182 359.72 91.42H345.62C345.237 91.4263 344.87 91.5753 344.59 91.8379C344.311 92.1005 344.14 92.4578 344.11 92.84C344.096 93.0246 344.121 93.21 344.183 93.3845C344.244 93.559 344.342 93.7186 344.469 93.8532C344.596 93.9878 344.75 94.0944 344.921 94.1662C345.091 94.2379 345.275 94.2733 345.46 94.27Z" fill="#29329C"/>
<path d="M345.17 99.1804H359.26C359.645 99.1739 360.013 99.0234 360.293 98.7588C360.572 98.4941 360.743 98.1343 360.77 97.7504C360.784 97.5667 360.759 97.3821 360.698 97.2083C360.637 97.0345 360.54 96.8753 360.414 96.7409C360.288 96.6064 360.136 96.4996 359.966 96.4273C359.797 96.3549 359.614 96.3185 359.43 96.3204H345.34C344.953 96.3244 344.582 96.4737 344.301 96.7387C344.019 97.0036 343.848 97.3647 343.82 97.7504C343.809 97.9343 343.836 98.1185 343.899 98.2916C343.962 98.4647 344.06 98.6232 344.186 98.7571C344.312 98.8911 344.465 98.9977 344.634 99.0705C344.803 99.1433 344.986 99.1807 345.17 99.1804Z" fill="#29329C"/>
<path d="M231.18 99.1804H245.27C245.656 99.1741 246.026 99.024 246.307 98.7595C246.588 98.495 246.76 98.1352 246.79 97.7504C246.802 97.5661 246.777 97.3813 246.714 97.2075C246.652 97.0337 246.554 96.8747 246.427 96.7404C246.301 96.6062 246.148 96.4995 245.978 96.4273C245.808 96.355 245.625 96.3186 245.44 96.3204H231.35C230.964 96.3246 230.595 96.4742 230.315 96.7394C230.035 97.0045 229.865 97.3656 229.84 97.7504C229.828 97.9338 229.853 98.1177 229.915 98.2909C229.977 98.464 230.074 98.6225 230.199 98.7566C230.325 98.8908 230.477 98.9976 230.646 99.0705C230.814 99.1434 230.996 99.1808 231.18 99.1804Z" fill="#29329C"/>
<path d="M344.88 104.081H359C359.387 104.077 359.758 103.927 360.039 103.662C360.321 103.398 360.492 103.036 360.52 102.651C360.531 102.467 360.504 102.283 360.441 102.109C360.378 101.936 360.28 101.778 360.154 101.644C360.028 101.51 359.875 101.403 359.706 101.331C359.537 101.258 359.354 101.22 359.17 101.221H345.05C344.664 101.227 344.294 101.377 344.013 101.642C343.732 101.906 343.56 102.266 343.53 102.651C343.518 102.835 343.543 103.02 343.606 103.194C343.668 103.367 343.766 103.526 343.893 103.661C344.019 103.795 344.172 103.902 344.342 103.974C344.512 104.046 344.695 104.083 344.88 104.081Z" fill="#29329C"/>
<path d="M326.36 283.489H241.12C239.528 283.504 237.95 283.189 236.486 282.565C235.021 281.94 233.702 281.02 232.611 279.861C231.519 278.702 230.68 277.33 230.144 275.83C229.609 274.331 229.39 272.737 229.5 271.149C229.74 267.83 231.215 264.721 233.635 262.437C236.054 260.152 239.243 258.858 242.57 258.809H327.81C329.402 258.794 330.98 259.109 332.444 259.733C333.908 260.358 335.228 261.278 336.319 262.437C337.411 263.596 338.25 264.969 338.786 266.468C339.321 267.967 339.54 269.561 339.43 271.149C339.19 274.468 337.715 277.577 335.295 279.861C332.875 282.146 329.687 283.44 326.36 283.489Z" fill="white"/>
<path d="M324.42 316.661H239.17C237.578 316.672 236.001 316.356 234.537 315.73C233.073 315.103 231.755 314.182 230.664 313.022C229.573 311.863 228.733 310.491 228.197 308.992C227.662 307.492 227.441 305.899 227.55 304.311C227.797 300.997 229.275 297.896 231.694 295.617C234.113 293.339 237.297 292.049 240.62 292.001H325.87C327.462 291.986 329.04 292.3 330.504 292.925C331.968 293.549 333.288 294.47 334.379 295.629C335.471 296.788 336.31 298.16 336.846 299.659C337.381 301.159 337.6 302.752 337.49 304.34C337.243 307.655 335.765 310.758 333.346 313.037C330.928 315.317 327.743 316.61 324.42 316.661Z" fill="white"/>
<path d="M322.47 349.819H237.23C235.638 349.834 234.06 349.52 232.596 348.895C231.132 348.271 229.812 347.35 228.721 346.191C227.629 345.032 226.79 343.66 226.254 342.161C225.719 340.661 225.5 339.067 225.61 337.479C225.85 334.159 227.325 331.05 229.744 328.763C232.164 326.477 235.352 325.181 238.68 325.129H323.92C325.512 325.116 327.09 325.432 328.555 326.057C330.019 326.683 331.338 327.604 332.43 328.764C333.521 329.924 334.361 331.297 334.896 332.797C335.431 334.296 335.65 335.891 335.54 337.479C335.3 340.798 333.825 343.907 331.405 346.191C328.986 348.476 325.797 349.77 322.47 349.819Z" fill="white"/>
<path d="M247.742 275.573C250.337 273.053 250.517 269.028 248.143 266.583C245.769 264.139 241.74 264.2 239.145 266.72C236.55 269.24 236.371 273.265 238.745 275.71C241.119 278.154 245.147 278.093 247.742 275.573Z" fill="#29329C"/>
<path d="M242.69 298.3L243.53 301.47C243.579 301.645 243.683 301.798 243.828 301.906C243.973 302.015 244.149 302.073 244.33 302.07H247.66C247.848 302.072 248.03 302.135 248.178 302.25C248.327 302.365 248.434 302.526 248.482 302.707C248.531 302.888 248.519 303.081 248.448 303.255C248.377 303.429 248.252 303.575 248.09 303.67L245.28 305.67C245.12 305.777 244.998 305.93 244.93 306.109C244.862 306.289 244.851 306.485 244.9 306.67L245.74 309.84C245.79 310.022 245.782 310.215 245.719 310.393C245.655 310.571 245.539 310.724 245.385 310.834C245.231 310.943 245.047 311.002 244.858 311.003C244.67 311.004 244.485 310.947 244.33 310.84L241.75 308.84C241.604 308.737 241.429 308.682 241.25 308.682C241.071 308.682 240.896 308.737 240.75 308.84L237.94 310.84C237.793 310.957 237.61 311.022 237.422 311.023C237.234 311.024 237.051 310.962 236.902 310.847C236.754 310.732 236.648 310.57 236.602 310.387C236.556 310.205 236.573 310.012 236.65 309.84L237.86 306.67C237.934 306.498 237.949 306.307 237.902 306.126C237.855 305.944 237.749 305.784 237.6 305.67L235.02 303.67C234.878 303.548 234.777 303.385 234.731 303.204C234.685 303.022 234.696 302.831 234.763 302.656C234.83 302.481 234.949 302.331 235.104 302.226C235.259 302.121 235.443 302.067 235.63 302.07H238.96C239.149 302.07 239.333 302.013 239.489 301.906C239.644 301.799 239.763 301.647 239.83 301.47L241 298.3C241.053 298.117 241.164 297.957 241.317 297.842C241.469 297.728 241.654 297.666 241.845 297.666C242.036 297.666 242.221 297.728 242.373 297.842C242.526 297.957 242.637 298.117 242.69 298.3Z" fill="#29329C"/>
<path d="M245 334.119L244.47 343.019C244.445 343.393 244.279 343.742 244.006 343.998C243.734 344.254 243.374 344.398 243 344.399H235.21C235.038 344.389 234.869 344.345 234.715 344.268C234.56 344.192 234.422 344.086 234.309 343.955C234.196 343.824 234.111 343.673 234.058 343.508C234.005 343.344 233.985 343.171 234 342.999L234.65 331.919C234.673 331.546 234.836 331.195 235.107 330.937C235.378 330.679 235.736 330.534 236.11 330.529H241.71L245 334.119Z" fill="#29329C"/>
<path d="M241.66 330.55L245.03 334.12H242.84C242.662 334.121 242.485 334.086 242.322 334.017C242.158 333.947 242.01 333.844 241.888 333.714C241.766 333.585 241.672 333.431 241.612 333.263C241.552 333.096 241.528 332.917 241.54 332.74L241.66 330.55ZM240.77 328.1L240.63 330.49L240.5 332.68C240.483 332.999 240.53 333.318 240.638 333.618C240.746 333.919 240.913 334.195 241.13 334.43C241.35 334.662 241.615 334.846 241.909 334.972C242.204 335.097 242.52 335.161 242.84 335.16H247.42L245.78 333.41L242.42 329.84L240.77 328.1Z" fill="white"/>
<path opacity="0.2" d="M323.5 269.84H259.71C259.452 269.842 259.196 269.791 258.959 269.689C258.721 269.588 258.507 269.439 258.33 269.251C258.152 269.064 258.016 268.841 257.928 268.599C257.84 268.356 257.804 268.098 257.82 267.84C257.862 267.301 258.104 266.798 258.498 266.428C258.892 266.058 259.41 265.848 259.95 265.84H323.73C323.988 265.838 324.244 265.889 324.481 265.991C324.719 266.092 324.933 266.241 325.11 266.429C325.288 266.616 325.424 266.838 325.512 267.081C325.6 267.324 325.636 267.582 325.62 267.84C325.58 268.378 325.34 268.881 324.948 269.251C324.556 269.621 324.039 269.831 323.5 269.84Z" fill="#29329C"/>
<path opacity="0.2" d="M311.41 276.481H259.33C259.071 276.482 258.815 276.431 258.577 276.33C258.339 276.229 258.125 276.08 257.947 275.892C257.768 275.705 257.631 275.483 257.542 275.24C257.453 274.997 257.415 274.739 257.43 274.481C257.472 273.942 257.714 273.438 258.108 273.068C258.502 272.699 259.02 272.489 259.56 272.481H311.64C311.899 272.477 312.156 272.528 312.395 272.628C312.633 272.729 312.848 272.878 313.027 273.066C313.205 273.253 313.343 273.476 313.431 273.72C313.519 273.963 313.557 274.222 313.54 274.481C313.496 275.019 313.253 275.521 312.86 275.89C312.466 276.26 311.95 276.47 311.41 276.481Z" fill="#29329C"/>
<path opacity="0.2" d="M321.4 305.619H303.8C303.259 305.625 302.74 305.834 302.345 306.204C301.951 306.575 301.71 307.08 301.67 307.619C301.653 307.877 301.69 308.135 301.778 308.378C301.866 308.621 302.002 308.843 302.18 309.031C302.357 309.218 302.571 309.367 302.809 309.469C303.046 309.57 303.302 309.621 303.56 309.619H321.16C321.701 309.613 322.22 309.404 322.614 309.034C323.009 308.664 323.25 308.159 323.29 307.619C323.306 307.362 323.27 307.103 323.182 306.86C323.094 306.618 322.958 306.396 322.78 306.208C322.603 306.02 322.389 305.871 322.151 305.77C321.914 305.669 321.658 305.617 321.4 305.619Z" fill="#29329C"/>
<path opacity="0.2" d="M293.51 305.619H257.62C257.079 305.625 256.56 305.834 256.166 306.205C255.771 306.575 255.53 307.08 255.49 307.619C255.472 307.877 255.508 308.136 255.595 308.38C255.682 308.623 255.819 308.846 255.996 309.034C256.174 309.222 256.389 309.371 256.627 309.472C256.865 309.572 257.121 309.623 257.38 309.619H293.28C293.82 309.611 294.338 309.401 294.732 309.031C295.126 308.662 295.368 308.158 295.41 307.619C295.427 307.361 295.39 307.102 295.301 306.858C295.213 306.615 295.075 306.392 294.897 306.204C294.718 306.016 294.503 305.868 294.265 305.767C294.026 305.666 293.769 305.616 293.51 305.619Z" fill="#29329C"/>
<path opacity="0.2" d="M310.09 299H258C257.459 299.006 256.94 299.215 256.546 299.585C256.151 299.956 255.91 300.46 255.87 301C255.854 301.258 255.89 301.516 255.978 301.759C256.066 302.002 256.202 302.224 256.38 302.411C256.557 302.599 256.771 302.748 257.009 302.849C257.246 302.951 257.502 303.002 257.76 303H309.84C310.38 302.992 310.898 302.782 311.292 302.412C311.686 302.042 311.928 301.539 311.97 301C311.986 300.743 311.95 300.486 311.863 300.244C311.776 300.002 311.64 299.78 311.464 299.592C311.287 299.405 311.075 299.256 310.838 299.154C310.602 299.052 310.347 298.999 310.09 299Z" fill="#29329C"/>
<path opacity="0.2" d="M319.45 338.779H255.67C255.13 338.79 254.614 339 254.22 339.37C253.827 339.739 253.584 340.241 253.54 340.779C253.523 341.038 253.56 341.297 253.649 341.54C253.737 341.784 253.875 342.007 254.053 342.194C254.232 342.382 254.447 342.531 254.685 342.632C254.924 342.732 255.181 342.783 255.44 342.779H319.22C319.759 342.771 320.276 342.561 320.668 342.191C321.06 341.821 321.3 341.317 321.34 340.779C321.356 340.522 321.32 340.263 321.232 340.021C321.144 339.778 321.008 339.556 320.83 339.368C320.653 339.18 320.439 339.031 320.201 338.93C319.964 338.829 319.708 338.777 319.45 338.779Z" fill="#29329C"/>
<path opacity="0.2" d="M308.14 332.15H256.06C255.52 332.159 255.002 332.368 254.608 332.738C254.214 333.108 253.972 333.612 253.93 334.15C253.913 334.408 253.95 334.666 254.038 334.909C254.126 335.152 254.262 335.374 254.44 335.562C254.617 335.749 254.831 335.898 255.069 336C255.306 336.101 255.562 336.152 255.82 336.15H307.91C308.449 336.142 308.966 335.932 309.358 335.562C309.75 335.192 309.99 334.688 310.03 334.15C310.046 333.893 310.01 333.635 309.922 333.392C309.834 333.149 309.698 332.927 309.52 332.739C309.343 332.552 309.129 332.402 308.891 332.301C308.654 332.2 308.398 332.149 308.14 332.15Z" fill="#29329C"/>
</svg>
