<svg width="305" height="326" viewBox="0 0 305 326" fill="none" xmlns="http://www.w3.org/2000/svg">
<path d="M84.0225 61.75H79.5059L88.5391 83.2129V91.6318H92.3691V83.2852L101.547 61.75H97.0303L90.4541 77.9736L84.0225 61.75ZM94.3926 58.498C96.8255 58.498 99.0296 58.8594 101.005 59.582C102.98 60.3047 104.654 61.2923 106.027 62.5449C107.424 63.7975 108.496 65.2669 109.243 66.9531C109.99 68.6152 110.363 70.3857 110.363 72.2646V94.2334C110.363 96.1123 109.99 97.8949 109.243 99.5811C108.496 101.243 107.424 102.701 106.027 103.953C104.654 105.206 102.98 106.193 101.005 106.916C99.0296 107.639 96.8255 108 94.3926 108H83.2637C80.8307 108 78.6266 107.639 76.6514 106.916C74.6761 106.193 72.9899 105.206 71.5928 103.953C70.2197 102.701 69.1598 101.243 68.4131 99.5811C67.6663 97.8949 67.293 96.1123 67.293 94.2334V72.2646C67.293 70.3857 67.6663 68.6152 68.4131 66.9531C69.1598 65.2669 70.2197 63.7975 71.5928 62.5449C72.9899 61.2923 74.6761 60.3047 76.6514 59.582C78.6266 58.8594 80.8307 58.498 83.2637 58.498H94.3926ZM137.174 58.498C139.607 58.498 141.811 58.8594 143.786 59.582C145.761 60.3047 147.436 61.2923 148.809 62.5449C150.206 63.7975 151.278 65.2669 152.024 66.9531C152.771 68.6152 153.145 70.3857 153.145 72.2646V94.2334C153.145 96.1123 152.771 97.8949 152.024 99.5811C151.278 101.243 150.206 102.701 148.809 103.953C147.436 105.206 145.761 106.193 143.786 106.916C141.811 107.639 139.607 108 137.174 108H126.045C123.612 108 121.408 107.639 119.433 106.916C117.457 106.193 115.771 105.206 114.374 103.953C113.001 102.701 111.941 101.243 111.194 99.5811C110.448 97.8949 110.074 96.1123 110.074 94.2334V72.2646C110.074 70.3857 110.448 68.6152 111.194 66.9531C111.941 65.2669 113.001 63.7975 114.374 62.5449C115.771 61.2923 117.457 60.3047 119.433 59.582C121.408 58.8594 123.612 58.498 126.045 58.498H137.174ZM144.617 67.6035L144.111 64.5684L141.835 62.2559L138.113 61.75H128.43L124.744 62.2559L122.432 64.5684L121.998 67.6035V85.8145L122.432 88.9219L124.816 91.1982L128.43 91.6318H138.113L141.835 91.1982L144.111 88.9219L144.617 85.8145V67.6035ZM140.281 87.4404L137.896 87.8018H128.646L126.298 87.4404L125.756 85.2725V67.9648L126.117 65.9775L128.646 65.5801H137.896L140.426 65.9775L140.787 68.1094V85.417L140.281 87.4404ZM179.955 58.498C182.388 58.498 184.592 58.8594 186.567 59.582C188.543 60.3047 190.217 61.2923 191.59 62.5449C192.987 63.7975 194.059 65.2669 194.806 66.9531C195.552 68.6152 195.926 70.3857 195.926 72.2646V94.2334C195.926 96.1123 195.552 97.8949 194.806 99.5811C194.059 101.243 192.987 102.701 191.59 103.953C190.217 105.206 188.543 106.193 186.567 106.916C184.592 107.639 182.388 108 179.955 108H168.826C166.393 108 164.189 107.639 162.214 106.916C160.239 106.193 158.552 105.206 157.155 103.953C155.782 102.701 154.722 101.243 153.976 99.5811C153.229 97.8949 152.855 96.1123 152.855 94.2334V72.2646C152.855 70.3857 153.229 68.6152 153.976 66.9531C154.722 65.2669 155.782 63.7975 157.155 62.5449C158.552 61.2923 160.239 60.3047 162.214 59.582C164.189 58.8594 166.393 58.498 168.826 58.498H179.955ZM187.182 61.75H183.352V85.417C183.303 85.7301 183.219 86.0674 183.099 86.4287C183.002 86.79 182.906 87.1273 182.81 87.4404L180.461 87.8018H171.211L168.826 87.4404L168.32 85.2725V61.75H164.562V85.8145L164.996 88.9219L167.345 91.1982L170.994 91.6318H180.678L184.363 91.1982L186.676 88.9219L187.182 85.8145V61.75ZM222.736 58.498C225.169 58.498 227.373 58.8594 229.349 59.582C231.324 60.3047 232.998 61.2923 234.371 62.5449C235.768 63.7975 236.84 65.2669 237.587 66.9531C238.334 68.6152 238.707 70.3857 238.707 72.2646V94.2334C238.707 96.1123 238.334 97.8949 237.587 99.5811C236.84 101.243 235.768 102.701 234.371 103.953C232.998 105.206 231.324 106.193 229.349 106.916C227.373 107.639 225.169 108 222.736 108H211.607C209.174 108 206.97 107.639 204.995 106.916C203.02 106.193 201.334 105.206 199.937 103.953C198.563 102.701 197.504 101.243 196.757 99.5811C196.01 97.8949 195.637 96.1123 195.637 94.2334V72.2646C195.637 70.3857 196.01 68.6152 196.757 66.9531C197.504 65.2669 198.563 63.7975 199.937 62.5449C201.334 61.2923 203.02 60.3047 204.995 59.582C206.97 58.8594 209.174 58.498 211.607 58.498H222.736ZM224.579 82.707V91.6318H228.409V82.3096L227.145 78.9854L223.025 77.5039L227 75.5889L228.12 72.3369V68.3262L227.687 65.291L225.302 62.2559L221.688 61.75H208.211V91.6318H212.077V79.5996H221.472L224.037 80.7559L224.579 82.707ZM221.472 65.5801L224.037 66.7002L224.29 68.7959V72.626L223.748 74.6133L221.472 75.7334H212.077V65.5801H221.472ZM51.6113 142.498C54.0443 142.498 56.2484 142.859 58.2236 143.582C60.1989 144.305 61.873 145.292 63.2461 146.545C64.6432 147.798 65.7152 149.267 66.4619 150.953C67.2087 152.615 67.582 154.386 67.582 156.265V178.233C67.582 180.112 67.2087 181.895 66.4619 183.581C65.7152 185.243 64.6432 186.701 63.2461 187.953C61.873 189.206 60.1989 190.193 58.2236 190.916C56.2484 191.639 54.0443 192 51.6113 192H40.4824C38.0495 192 35.8454 191.639 33.8701 190.916C31.8949 190.193 30.2087 189.206 28.8115 187.953C27.4385 186.701 26.3786 185.243 25.6318 183.581C24.8851 181.895 24.5117 180.112 24.5117 178.233V156.265C24.5117 154.386 24.8851 152.615 25.6318 150.953C26.3786 149.267 27.4385 147.798 28.8115 146.545C30.2087 145.292 31.8949 144.305 33.8701 143.582C35.8454 142.859 38.0495 142.498 40.4824 142.498H51.6113ZM59.127 151.604L58.6211 148.568L56.3447 146.256L52.623 145.75H36.5078V175.632H52.623L56.3447 175.198L58.6211 172.922L59.127 169.814V151.604ZM54.791 171.44L52.4062 171.802H40.2656V149.58H52.4062L54.9355 149.978L55.2969 152.109V169.417L54.791 171.44ZM100.138 171.802H85.7207V162.624H97.7891V158.83H85.7207V149.58H99.6318V145.75H81.9629V175.632H100.138V171.802ZM94.3926 142.498C96.8255 142.498 99.0296 142.859 101.005 143.582C102.98 144.305 104.654 145.292 106.027 146.545C107.424 147.798 108.496 149.267 109.243 150.953C109.99 152.615 110.363 154.386 110.363 156.265V178.233C110.363 180.112 109.99 181.895 109.243 183.581C108.496 185.243 107.424 186.701 106.027 187.953C104.654 189.206 102.98 190.193 101.005 190.916C99.0296 191.639 96.8255 192 94.3926 192H83.2637C80.8307 192 78.6266 191.639 76.6514 190.916C74.6761 190.193 72.9899 189.206 71.5928 187.953C70.2197 186.701 69.1598 185.243 68.4131 183.581C67.6663 181.895 67.293 180.112 67.293 178.233V156.265C67.293 154.386 67.6663 152.615 68.4131 150.953C69.1598 149.267 70.2197 147.798 71.5928 146.545C72.9899 145.292 74.6761 144.305 76.6514 143.582C78.6266 142.859 80.8307 142.498 83.2637 142.498H94.3926ZM137.174 142.498C139.607 142.498 141.811 142.859 143.786 143.582C145.761 144.305 147.436 145.292 148.809 146.545C150.206 147.798 151.278 149.267 152.024 150.953C152.771 152.615 153.145 154.386 153.145 156.265V178.233C153.145 180.112 152.771 181.895 152.024 183.581C151.278 185.243 150.206 186.701 148.809 187.953C147.436 189.206 145.761 190.193 143.786 190.916C141.811 191.639 139.607 192 137.174 192H126.045C123.612 192 121.408 191.639 119.433 190.916C117.457 190.193 115.771 189.206 114.374 187.953C113.001 186.701 111.941 185.243 111.194 183.581C110.448 181.895 110.074 180.112 110.074 178.233V156.265C110.074 154.386 110.448 152.615 111.194 150.953C111.941 149.267 113.001 147.798 114.374 146.545C115.771 145.292 117.457 144.305 119.433 143.582C121.408 142.859 123.612 142.498 126.045 142.498H137.174ZM143.967 164.322L143.461 161.215L141.148 158.938L137.391 158.541H129.297L127.093 158.107C126.972 157.698 126.888 157.337 126.84 157.023C126.792 156.686 126.707 156.337 126.587 155.976V152.182L127.093 150.05L129.478 149.58H138.655L142.052 150.267L142.919 146.328L138.728 145.75H129.225L125.611 146.256L123.263 148.568L122.793 151.604V156.554L123.263 159.589L125.611 161.865L129.225 162.335H137.391L139.595 162.696C139.667 163.058 139.751 163.395 139.848 163.708C139.944 164.021 140.028 164.346 140.101 164.684V169.417C140.052 169.73 139.968 170.067 139.848 170.429C139.751 170.79 139.667 171.127 139.595 171.44L137.246 171.802H128.285L124.744 171.224L123.841 175.126L128.068 175.632H137.463L141.148 175.198L143.461 172.922L143.967 169.814V164.322ZM165.936 171.802V175.632H186.82V171.802H178.329V149.58H186.82V145.75H165.936V149.58H174.463V171.802H165.936ZM179.955 142.498C182.388 142.498 184.592 142.859 186.567 143.582C188.543 144.305 190.217 145.292 191.59 146.545C192.987 147.798 194.059 149.267 194.806 150.953C195.552 152.615 195.926 154.386 195.926 156.265V178.233C195.926 180.112 195.552 181.895 194.806 183.581C194.059 185.243 192.987 186.701 191.59 187.953C190.217 189.206 188.543 190.193 186.567 190.916C184.592 191.639 182.388 192 179.955 192H168.826C166.393 192 164.189 191.639 162.214 190.916C160.239 190.193 158.552 189.206 157.155 187.953C155.782 186.701 154.722 185.243 153.976 183.581C153.229 181.895 152.855 180.112 152.855 178.233V156.265C152.855 154.386 153.229 152.615 153.976 150.953C154.722 149.267 155.782 147.798 157.155 146.545C158.552 145.292 160.239 144.305 162.214 143.582C164.189 142.859 166.393 142.498 168.826 142.498H179.955ZM214.715 149.508H224.109L227.831 150.122L228.554 146.256L224.362 145.75H214.643L210.957 146.328L208.645 148.641L208.139 151.676V169.814L208.645 172.922L211.029 175.198L214.643 175.632H223.676L227.325 175.198L229.674 172.922L230.18 169.814V160.312H219.701V164.178H226.35V169.272C226.229 169.658 226.145 170.019 226.097 170.356C226.049 170.694 225.964 171.055 225.844 171.44L223.459 171.802H214.715L212.511 171.44L212.005 169.128V152.037L212.366 150.05L214.715 149.508ZM222.736 142.498C225.169 142.498 227.373 142.859 229.349 143.582C231.324 144.305 232.998 145.292 234.371 146.545C235.768 147.798 236.84 149.267 237.587 150.953C238.334 152.615 238.707 154.386 238.707 156.265V178.233C238.707 180.112 238.334 181.895 237.587 183.581C236.84 185.243 235.768 186.701 234.371 187.953C232.998 189.206 231.324 190.193 229.349 190.916C227.373 191.639 225.169 192 222.736 192H211.607C209.174 192 206.97 191.639 204.995 190.916C203.02 190.193 201.334 189.206 199.937 187.953C198.563 186.701 197.504 185.243 196.757 183.581C196.01 181.895 195.637 180.112 195.637 178.233V156.265C195.637 154.386 196.01 152.615 196.757 150.953C197.504 149.267 198.563 147.798 199.937 146.545C201.334 145.292 203.02 144.305 204.995 143.582C206.97 142.859 209.174 142.498 211.607 142.498H222.736ZM272.238 151.531L271.732 148.496L269.42 146.184L265.734 145.75H256.701L250.197 146.653V175.632H254.027V149.978L256.846 149.508H265.518L268.011 149.905L268.372 152.037V175.632H272.238V151.531ZM265.518 142.498C267.951 142.498 270.155 142.859 272.13 143.582C274.105 144.305 275.779 145.292 277.152 146.545C278.549 147.798 279.621 149.267 280.368 150.953C281.115 152.615 281.488 154.386 281.488 156.265V178.233C281.488 180.112 281.115 181.895 280.368 183.581C279.621 185.243 278.549 186.701 277.152 187.953C275.779 189.206 274.105 190.193 272.13 190.916C270.155 191.639 267.951 192 265.518 192H254.389C251.956 192 249.752 191.639 247.776 190.916C245.801 190.193 244.115 189.206 242.718 187.953C241.345 186.701 240.285 185.243 239.538 183.581C238.791 181.895 238.418 180.112 238.418 178.233V156.265C238.418 154.386 238.791 152.615 239.538 150.953C240.285 149.267 241.345 147.798 242.718 146.545C244.115 145.292 245.801 144.305 247.776 143.582C249.752 142.859 251.956 142.498 254.389 142.498H265.518ZM101.908 229.75H98.1504V242.396H83.1191V229.75H79.2891V259.632H83.1191V246.19H98.1504V259.632H101.908V229.75ZM94.3926 226.498C96.8255 226.498 99.0296 226.859 101.005 227.582C102.98 228.305 104.654 229.292 106.027 230.545C107.424 231.798 108.496 233.267 109.243 234.953C109.99 236.615 110.363 238.386 110.363 240.265V262.233C110.363 264.112 109.99 265.895 109.243 267.581C108.496 269.243 107.424 270.701 106.027 271.953C104.654 273.206 102.98 274.193 101.005 274.916C99.0296 275.639 96.8255 276 94.3926 276H83.2637C80.8307 276 78.6266 275.639 76.6514 274.916C74.6761 274.193 72.9899 273.206 71.5928 271.953C70.2197 270.701 69.1598 269.243 68.4131 267.581C67.6663 265.895 67.293 264.112 67.293 262.233V240.265C67.293 238.386 67.6663 236.615 68.4131 234.953C69.1598 233.267 70.2197 231.798 71.5928 230.545C72.9899 229.292 74.6761 228.305 76.6514 227.582C78.6266 226.859 80.8307 226.498 83.2637 226.498H94.3926ZM142.919 255.802H128.502V246.624H140.57V242.83H128.502V233.58H142.413V229.75H124.744V259.632H142.919V255.802ZM137.174 226.498C139.607 226.498 141.811 226.859 143.786 227.582C145.761 228.305 147.436 229.292 148.809 230.545C150.206 231.798 151.278 233.267 152.024 234.953C152.771 236.615 153.145 238.386 153.145 240.265V262.233C153.145 264.112 152.771 265.895 152.024 267.581C151.278 269.243 150.206 270.701 148.809 271.953C147.436 273.206 145.761 274.193 143.786 274.916C141.811 275.639 139.607 276 137.174 276H126.045C123.612 276 121.408 275.639 119.433 274.916C117.457 274.193 115.771 273.206 114.374 271.953C113.001 270.701 111.941 269.243 111.194 267.581C110.448 265.895 110.074 264.112 110.074 262.233V240.265C110.074 238.386 110.448 236.615 111.194 234.953C111.941 233.267 113.001 231.798 114.374 230.545C115.771 229.292 117.457 228.305 119.433 227.582C121.408 226.859 123.612 226.498 126.045 226.498H137.174ZM179.955 226.498C182.388 226.498 184.592 226.859 186.567 227.582C188.543 228.305 190.217 229.292 191.59 230.545C192.987 231.798 194.059 233.267 194.806 234.953C195.552 236.615 195.926 238.386 195.926 240.265V262.233C195.926 264.112 195.552 265.895 194.806 267.581C194.059 269.243 192.987 270.701 191.59 271.953C190.217 273.206 188.543 274.193 186.567 274.916C184.592 275.639 182.388 276 179.955 276H168.826C166.393 276 164.189 275.639 162.214 274.916C160.239 274.193 158.552 273.206 157.155 271.953C155.782 270.701 154.722 269.243 153.976 267.581C153.229 265.895 152.855 264.112 152.855 262.233V240.265C152.855 238.386 153.229 236.615 153.976 234.953C154.722 233.267 155.782 231.798 157.155 230.545C158.552 229.292 160.239 228.305 162.214 227.582C164.189 226.859 166.393 226.498 168.826 226.498H179.955ZM181.798 250.707V259.632H185.628V250.31L184.363 246.985L180.244 245.504L184.219 243.589L185.339 240.337V236.326L184.905 233.291L182.521 230.256L178.907 229.75H165.43V259.632H169.296V247.6H178.69L181.256 248.756L181.798 250.707ZM178.69 233.58L181.256 234.7L181.509 236.796V240.626L180.967 242.613L178.69 243.733H169.296V233.58H178.69ZM228.481 255.802H214.064V246.624H226.133V242.83H214.064V233.58H227.976V229.75H210.307V259.632H228.481V255.802ZM222.736 226.498C225.169 226.498 227.373 226.859 229.349 227.582C231.324 228.305 232.998 229.292 234.371 230.545C235.768 231.798 236.84 233.267 237.587 234.953C238.334 236.615 238.707 238.386 238.707 240.265V262.233C238.707 264.112 238.334 265.895 237.587 267.581C236.84 269.243 235.768 270.701 234.371 271.953C232.998 273.206 231.324 274.193 229.349 274.916C227.373 275.639 225.169 276 222.736 276H211.607C209.174 276 206.97 275.639 204.995 274.916C203.02 274.193 201.334 273.206 199.937 271.953C198.563 270.701 197.504 269.243 196.757 267.581C196.01 265.895 195.637 264.112 195.637 262.233V240.265C195.637 238.386 196.01 236.615 196.757 234.953C197.504 233.267 198.563 231.798 199.937 230.545C201.334 229.292 203.02 228.305 204.995 227.582C206.97 226.859 209.174 226.498 211.607 226.498H222.736Z" fill="black"/>
</svg>
