<svg width="21" height="22" viewBox="0 0 21 22" fill="none" xmlns="http://www.w3.org/2000/svg">
<path d="M19.0798 9.53485H18.375V9.49854H10.5V12.9985H15.4451C14.7236 15.036 12.7851 16.4985 10.5 16.4985C7.60069 16.4985 5.25 14.1478 5.25 11.2485C5.25 8.34922 7.60069 5.99854 10.5 5.99854C11.8383 5.99854 13.0559 6.50341 13.9829 7.3281L16.4579 4.85316C14.8951 3.39672 12.8048 2.49854 10.5 2.49854C5.66781 2.49854 1.75 6.41635 1.75 11.2485C1.75 16.0807 5.66781 19.9985 10.5 19.9985C15.3322 19.9985 19.25 16.0807 19.25 11.2485C19.25 10.6618 19.1896 10.0892 19.0798 9.53485Z" fill="#FFC107"/>
<path d="M2.75889 7.17585L5.6337 9.28416C6.41158 7.35829 8.29545 5.99854 10.5 5.99854C11.8383 5.99854 13.0559 6.50341 13.983 7.3281L16.4579 4.85316C14.8951 3.39672 12.8048 2.49854 10.5 2.49854C7.13914 2.49854 4.22451 4.39597 2.75889 7.17585Z" fill="#FF3D00"/>
<path d="M10.5 19.9986C12.7601 19.9986 14.8137 19.1337 16.3664 17.7271L13.6583 15.4355C12.7503 16.126 11.6407 16.4995 10.5 16.4986C8.2241 16.4986 6.29166 15.0474 5.56366 13.0222L2.71029 15.2207C4.15841 18.0543 7.09929 19.9986 10.5 19.9986Z" fill="#4CAF50"/>
<path d="M19.0798 9.53485H18.375V9.49854H10.5V12.9985H15.4451C15.1 13.9682 14.4783 14.8155 13.657 15.4358L13.6583 15.435L16.3664 17.7266C16.1748 17.9007 19.25 15.6235 19.25 11.2485C19.25 10.6618 19.1896 10.0892 19.0798 9.53485Z" fill="#1976D2"/>
</svg>
