<svg width="21" height="21" viewBox="0 0 21 21" fill="none" xmlns="http://www.w3.org/2000/svg">
<path d="M20.0228 17.7138V10.54C20.0228 10.0409 19.921 9.54701 19.7235 9.08864C19.526 8.63028 19.237 8.21706 18.8742 7.8743L12.1156 1.48697C11.7752 1.16515 11.3246 0.98584 10.8561 0.98584C10.3877 0.98584 9.93701 1.16515 9.59662 1.48697L2.83804 7.8743C2.47524 8.21706 2.18624 8.63028 1.98874 9.08864C1.79124 9.54701 1.6894 10.0409 1.68945 10.54V17.7138C1.68945 18.2 1.88261 18.6663 2.22642 19.0102C2.57024 19.354 3.03656 19.5471 3.52279 19.5471H18.1895C18.6757 19.5471 19.142 19.354 19.4858 19.0102C19.8296 18.6663 20.0228 18.2 20.0228 17.7138Z" stroke="white" stroke-width="1.5" stroke-linecap="round" stroke-linejoin="round"/>
</svg>
