<svg width="20" height="19" viewBox="0 0 20 19" fill="none" xmlns="http://www.w3.org/2000/svg">
<path d="M10.0647 4.69298C7.40453 4.69298 5.25766 6.83986 5.25766 9.50001C5.25766 12.1602 7.40453 14.307 10.0647 14.307C12.7248 14.307 14.8717 12.1602 14.8717 9.50001C14.8717 6.83986 12.7248 4.69298 10.0647 4.69298ZM10.0647 12.6242C8.34437 12.6242 6.94047 11.2203 6.94047 9.50001C6.94047 7.7797 8.34437 6.37579 10.0647 6.37579C11.785 6.37579 13.1889 7.7797 13.1889 9.50001C13.1889 11.2203 11.785 12.6242 10.0647 12.6242ZM15.0686 3.37579C14.4475 3.37579 13.9459 3.87736 13.9459 4.49845C13.9459 5.11954 14.4475 5.62111 15.0686 5.62111C15.6897 5.62111 16.1912 5.12189 16.1912 4.49845C16.1914 4.35097 16.1625 4.2049 16.1062 4.06861C16.0498 3.93232 15.9671 3.80849 15.8628 3.7042C15.7586 3.59992 15.6347 3.51723 15.4984 3.46088C15.3621 3.40452 15.2161 3.37561 15.0686 3.37579ZM19.435 9.50001C19.435 8.20626 19.4467 6.92423 19.3741 5.63283C19.3014 4.13283 18.9592 2.80158 17.8623 1.7047C16.7631 0.605482 15.4342 0.265639 13.9342 0.192982C12.6405 0.120326 11.3584 0.132045 10.067 0.132045C8.77328 0.132045 7.49125 0.120326 6.19984 0.192982C4.69984 0.265639 3.36859 0.607826 2.27172 1.7047C1.1725 2.80392 0.832655 4.13283 0.759999 5.63283C0.687343 6.92658 0.699061 8.20861 0.699061 9.50001C0.699061 10.7914 0.687343 12.0758 0.759999 13.3672C0.832655 14.8672 1.17484 16.1985 2.27172 17.2953C3.37094 18.3945 4.69984 18.7344 6.19984 18.807C7.49359 18.8797 8.77562 18.868 10.067 18.868C11.3608 18.868 12.6428 18.8797 13.9342 18.807C15.4342 18.7344 16.7655 18.3922 17.8623 17.2953C18.9616 16.1961 19.3014 14.8672 19.3741 13.3672C19.4491 12.0758 19.435 10.7938 19.435 9.50001ZM17.3725 15.0266C17.2014 15.4531 16.9952 15.7719 16.6647 16.1C16.3342 16.4305 16.0178 16.6367 15.5912 16.8078C14.3584 17.2977 11.4311 17.1875 10.0647 17.1875C8.69828 17.1875 5.76859 17.2977 4.53578 16.8102C4.10922 16.6391 3.79047 16.4328 3.46234 16.1024C3.13187 15.7719 2.92562 15.4555 2.75453 15.0289C2.26703 13.7938 2.37719 10.8664 2.37719 9.50001C2.37719 8.13361 2.26703 5.20392 2.75453 3.97111C2.92562 3.54454 3.13187 3.22579 3.46234 2.89767C3.79281 2.56954 4.10922 2.36095 4.53578 2.18986C5.76859 1.70236 8.69828 1.81251 10.0647 1.81251C11.4311 1.81251 14.3608 1.70236 15.5936 2.18986C16.0202 2.36095 16.3389 2.5672 16.667 2.89767C16.9975 3.22814 17.2038 3.54454 17.3748 3.97111C17.8623 5.20392 17.7522 8.13361 17.7522 9.50001C17.7522 10.8664 17.8623 13.7938 17.3725 15.0266Z" fill="white"/>
</svg>
