<svg width="21" height="21" viewBox="0 0 21 21" fill="none" xmlns="http://www.w3.org/2000/svg">
<path fill-rule="evenodd" clip-rule="evenodd" d="M7.4937 7.469H11.2077V9.319C11.7427 8.255 13.1147 7.299 15.1757 7.299C19.1267 7.299 20.0647 9.417 20.0647 13.303V20.5H16.0647V14.188C16.0647 11.975 15.5297 10.727 14.1677 10.727C12.2787 10.727 11.4937 12.072 11.4937 14.187V20.5H7.4937V7.469ZM0.634697 20.33H4.6347V7.299H0.634697V20.33ZM5.2077 3.05C5.20785 3.38528 5.14135 3.71724 5.01208 4.02659C4.88282 4.33594 4.69335 4.61651 4.4547 4.852C3.9711 5.33262 3.31651 5.60165 2.6347 5.6C1.95409 5.59954 1.30101 5.3312 0.816697 4.853C0.578909 4.61671 0.390083 4.33582 0.261041 4.02643C0.131999 3.71704 0.0652764 3.38522 0.0646973 3.05C0.0646973 2.373 0.334697 1.725 0.817697 1.247C1.30158 0.768158 1.95494 0.499701 2.6357 0.5C3.3177 0.5 3.9717 0.769 4.4547 1.247C4.9367 1.725 5.2077 2.373 5.2077 3.05Z" fill="white"/>
</svg>
