<svg width="23" height="23" viewBox="0 0 23 23" fill="none" xmlns="http://www.w3.org/2000/svg">
<path d="M20.4062 12V20.75C20.4062 21.1561 20.2449 21.5456 19.9578 21.8328C19.6706 22.1199 19.2811 22.2812 18.875 22.2812H2.25C1.84389 22.2812 1.45441 22.1199 1.16724 21.8328C0.880078 21.5456 0.71875 21.1561 0.71875 20.75V4.125C0.71875 3.71889 0.880078 3.32941 1.16724 3.04224C1.45441 2.75508 1.84389 2.59375 2.25 2.59375H11C11.174 2.59375 11.341 2.66289 11.464 2.78596C11.5871 2.90903 11.6562 3.07595 11.6562 3.25C11.6562 3.42405 11.5871 3.59097 11.464 3.71404C11.341 3.83711 11.174 3.90625 11 3.90625H2.25C2.19198 3.90625 2.13634 3.9293 2.09532 3.97032C2.0543 4.01134 2.03125 4.06698 2.03125 4.125V20.75C2.03125 20.808 2.0543 20.8637 2.09532 20.9047C2.13634 20.9457 2.19198 20.9688 2.25 20.9688H18.875C18.933 20.9688 18.9887 20.9457 19.0297 20.9047C19.0707 20.8637 19.0938 20.808 19.0938 20.75V12C19.0938 11.826 19.1629 11.659 19.286 11.536C19.409 11.4129 19.576 11.3438 19.75 11.3438C19.924 11.3438 20.091 11.4129 20.214 11.536C20.3371 11.659 20.4062 11.826 20.4062 12ZM22.1562 4.5625C22.1562 5.298 21.9382 6.01698 21.5295 6.62853C21.1209 7.24007 20.5401 7.71671 19.8606 7.99818C19.1811 8.27964 18.4334 8.35328 17.712 8.2098C16.9906 8.06631 16.328 7.71213 15.8079 7.19205C15.2879 6.67198 14.9337 6.00936 14.7902 5.28799C14.6467 4.56663 14.7204 3.81891 15.0018 3.1394C15.2833 2.45988 15.7599 1.87909 16.3715 1.47047C16.983 1.06185 17.702 0.84375 18.4375 0.84375C19.4229 0.846635 20.3671 1.23936 21.0639 1.93613C21.7606 2.63291 22.1534 3.57711 22.1562 4.5625ZM20.8438 4.5625C20.8438 4.08659 20.7026 3.62136 20.4382 3.22566C20.1738 2.82995 19.798 2.52154 19.3583 2.33942C18.9186 2.15729 18.4348 2.10964 17.9681 2.20249C17.5013 2.29533 17.0725 2.5245 16.736 2.86102C16.3995 3.19754 16.1703 3.6263 16.0775 4.09306C15.9846 4.55983 16.0323 5.04365 16.2144 5.48333C16.3965 5.92302 16.705 6.29882 17.1007 6.56322C17.4964 6.82763 17.9616 6.96875 18.4375 6.96875C19.0748 6.96587 19.6852 6.71143 20.1358 6.2608C20.5864 5.81016 20.8409 5.19979 20.8438 4.5625Z" fill="black"/>
</svg>
