<svg width="19" height="15" viewBox="0 0 19 15" fill="none" xmlns="http://www.w3.org/2000/svg">
<path d="M15.8123 0.333618C16.5417 0.333618 17.2412 0.623349 17.7569 1.13907C18.2726 1.6548 18.5623 2.35427 18.5623 3.08362V11.8836C18.5623 12.613 18.2726 13.3124 17.7569 13.8282C17.2412 14.3439 16.5417 14.6336 15.8123 14.6336H3.71234C2.983 14.6336 2.28352 14.3439 1.7678 13.8282C1.25207 13.3124 0.962341 12.613 0.962341 11.8836V3.08362C0.962341 2.35427 1.25207 1.6548 1.7678 1.13907C2.28352 0.623349 2.983 0.333618 3.71234 0.333618H15.8123ZM17.4623 4.69072L10.0417 9.05772C9.97159 9.09891 9.89317 9.12402 9.81214 9.13125C9.7311 9.13848 9.64948 9.12764 9.57314 9.09952L9.48294 9.05772L2.06234 4.69292V11.8836C2.06234 12.3212 2.23618 12.7409 2.54562 13.0503C2.85505 13.3598 3.27473 13.5336 3.71234 13.5336H15.8123C16.2499 13.5336 16.6696 13.3598 16.9791 13.0503C17.2885 12.7409 17.4623 12.3212 17.4623 11.8836V4.69072ZM15.8123 1.43362H3.71234C3.27473 1.43362 2.85505 1.60746 2.54562 1.91689C2.23618 2.22633 2.06234 2.64601 2.06234 3.08362V3.41582L9.76234 7.94562L17.4623 3.41362V3.08362C17.4623 2.64601 17.2885 2.22633 16.9791 1.91689C16.6696 1.60746 16.2499 1.43362 15.8123 1.43362Z" fill="white"/>
</svg>
