<svg width="24" height="24" viewBox="0 0 24 24" fill="none" xmlns="http://www.w3.org/2000/svg">
<path fill-rule="evenodd" clip-rule="evenodd" d="M19.9997 0.666748C20.7069 0.666748 21.3852 0.9477 21.8853 1.4478C22.3854 1.94789 22.6663 2.62617 22.6663 3.33341V16.6667C22.6663 17.374 22.3854 18.0523 21.8853 18.5524C21.3852 19.0525 20.7069 19.3334 19.9997 19.3334L16.001 19.3321L12.9423 22.3907C12.7128 22.6203 12.4073 22.7582 12.0832 22.7786C11.7592 22.799 11.4389 22.7004 11.1823 22.5014L11.057 22.3907L7.99834 19.3321L3.99967 19.3334C3.29243 19.3334 2.61415 19.0525 2.11406 18.5524C1.61396 18.0523 1.33301 17.374 1.33301 16.6667V3.33341C1.33301 2.62617 1.61396 1.94789 2.11406 1.4478C2.61415 0.9477 3.29243 0.666748 3.99967 0.666748H19.9997Z" stroke="#222B4A" stroke-linecap="round" stroke-linejoin="round"/>
<path fill-rule="evenodd" clip-rule="evenodd" d="M11.9983 11.3334C12.665 11.3334 13.3317 10.6667 13.3317 10.0001C13.3317 9.33341 12.665 8.66675 11.9983 8.66675C11.3317 8.66675 10.6663 9.33341 10.6663 10.0001C10.6663 10.6667 11.3317 11.3334 11.9983 11.3334ZM6.66501 11.3334C7.33167 11.3334 7.99834 10.6667 7.99834 10.0001C7.99834 9.33341 7.33167 8.66675 6.66501 8.66675C5.99834 8.66675 5.33301 9.33341 5.33301 10.0001C5.33301 10.6667 5.99834 11.3334 6.66501 11.3334ZM17.3317 11.3334C17.9983 11.3334 18.665 10.6667 18.665 10.0001C18.665 9.33341 17.9983 8.66675 17.3317 8.66675C16.665 8.66675 15.9997 9.33341 15.9997 10.0001C15.9997 10.6667 16.665 11.3334 17.3317 11.3334Z" fill="#222B4A"/>
</svg>
