<svg width="19" height="19" viewBox="0 0 19 19" fill="none" xmlns="http://www.w3.org/2000/svg">
<path d="M16.6373 18.8711H16.5204C3.01107 18.0942 1.09294 6.69547 0.824816 3.21672C0.803212 2.94624 0.83519 2.67416 0.918918 2.41606C1.00265 2.15797 1.13648 1.91893 1.31275 1.71264C1.48902 1.50636 1.70426 1.33688 1.94614 1.21392C2.18802 1.09096 2.45178 1.01694 2.72232 0.996094H6.51044C6.78583 0.995828 7.05494 1.07826 7.28294 1.23271C7.51093 1.38715 7.6873 1.6065 7.78919 1.86234L8.83419 4.43359C8.93481 4.68353 8.95978 4.95752 8.906 5.22153C8.85222 5.48554 8.72206 5.72793 8.53169 5.91859L7.06732 7.39672C7.29606 8.69661 7.91857 9.89487 8.85062 10.8294C9.78267 11.7639 10.9793 12.3896 12.2786 12.6217L13.7704 11.1436C13.964 10.9553 14.2086 10.8282 14.4739 10.7781C14.7392 10.728 15.0134 10.757 15.2623 10.8617L17.8542 11.8998C18.1062 12.005 18.3212 12.1827 18.4718 12.4104C18.6224 12.6382 18.7017 12.9056 18.6998 13.1786V16.8086C18.6998 17.3556 18.4825 17.8802 18.0957 18.267C17.7089 18.6538 17.1843 18.8711 16.6373 18.8711ZM2.88732 2.37109C2.70498 2.37109 2.53011 2.44353 2.40118 2.57246C2.27225 2.70139 2.19982 2.87626 2.19982 3.05859V3.11359C2.51607 7.18359 4.54419 16.8086 16.5961 17.4961C16.6864 17.5017 16.7769 17.4894 16.8625 17.4599C16.948 17.4304 17.0269 17.3843 17.0946 17.3243C17.1623 17.2642 17.2175 17.1914 17.257 17.11C17.2965 17.0286 17.3196 16.9402 17.3248 16.8498V13.1786L14.7329 12.1405L12.7598 14.0998L12.4298 14.0586C6.44857 13.3092 5.63732 7.32797 5.63732 7.26609L5.59607 6.93609L7.54857 4.96297L6.51732 2.37109H2.88732Z" fill="white"/>
</svg>
