<svg width="22" height="17" viewBox="0 0 22 17" fill="none" xmlns="http://www.w3.org/2000/svg">
<path d="M21.5647 8.43435C21.5647 8.38279 21.5647 8.32419 21.5624 8.25623C21.56 8.06638 21.5553 7.8531 21.5506 7.62576C21.5319 6.97185 21.4991 6.32029 21.4475 5.70623C21.3772 4.86013 21.2741 4.15466 21.1334 3.62498C20.985 3.0722 20.6942 2.56806 20.2899 2.16294C19.8856 1.75781 19.382 1.4659 18.8295 1.31638C18.1663 1.13826 16.8678 1.0281 15.0397 0.960132C14.1702 0.927319 13.2397 0.906225 12.3092 0.894507C11.9834 0.889819 11.6811 0.887476 11.4092 0.885132H10.7202C10.4483 0.887476 10.1459 0.889819 9.82017 0.894507C8.8897 0.906225 7.95923 0.927319 7.0897 0.960132C5.26157 1.03044 3.96079 1.1406 3.29985 1.31638C2.7472 1.46554 2.24345 1.75732 1.8391 2.1625C1.43474 2.56768 1.14398 3.07202 0.995947 3.62498C0.852979 4.15466 0.752197 4.86013 0.681885 5.70623C0.630322 6.32029 0.59751 6.97185 0.57876 7.62576C0.571728 7.8531 0.569385 8.06638 0.567041 8.25623C0.567041 8.32419 0.564697 8.38279 0.564697 8.43435V8.5656C0.564697 8.61716 0.564697 8.67576 0.567041 8.74373C0.569385 8.93357 0.574072 9.14685 0.57876 9.37419C0.59751 10.0281 0.630322 10.6797 0.681885 11.2937C0.752197 12.1398 0.855322 12.8453 0.995947 13.375C1.29595 14.4976 2.1772 15.3836 3.29985 15.6836C3.96079 15.8617 5.26157 15.9719 7.0897 16.0398C7.95923 16.0726 8.8897 16.0937 9.82017 16.1054C10.1459 16.1101 10.4483 16.1125 10.7202 16.1148H11.4092C11.6811 16.1125 11.9834 16.1101 12.3092 16.1054C13.2397 16.0937 14.1702 16.0726 15.0397 16.0398C16.8678 15.9695 18.1686 15.8594 18.8295 15.6836C19.9522 15.3836 20.8334 14.5 21.1334 13.375C21.2764 12.8453 21.3772 12.1398 21.4475 11.2937C21.4991 10.6797 21.5319 10.0281 21.5506 9.37419C21.5577 9.14685 21.56 8.93357 21.5624 8.74373C21.5624 8.67576 21.5647 8.61716 21.5647 8.5656V8.43435ZM19.8772 8.55623C19.8772 8.60544 19.8772 8.65935 19.8749 8.72263C19.8725 8.90544 19.8678 9.10701 19.8631 9.32498C19.8467 9.94841 19.8139 10.5718 19.7647 11.1508C19.7014 11.9054 19.6124 12.5242 19.5022 12.939C19.3569 13.4804 18.9303 13.9094 18.3913 14.0523C17.8991 14.1836 16.6592 14.289 14.9741 14.3523C14.1209 14.3851 13.2022 14.4062 12.2858 14.4179C11.9647 14.4226 11.667 14.425 11.3999 14.425H10.7295L9.8436 14.4179C8.9272 14.4062 8.01079 14.3851 7.15532 14.3523C5.47017 14.2867 4.22798 14.1836 3.73813 14.0523C3.19907 13.907 2.77251 13.4804 2.6272 12.939C2.51704 12.5242 2.42798 11.9054 2.3647 11.1508C2.31548 10.5718 2.28501 9.94841 2.26626 9.32498C2.25923 9.10701 2.25688 8.9031 2.25454 8.72263C2.25454 8.65935 2.2522 8.6031 2.2522 8.55623V8.44373C2.2522 8.39451 2.2522 8.3406 2.25454 8.27732C2.25688 8.09451 2.26157 7.89294 2.26626 7.67498C2.28267 7.05154 2.31548 6.4281 2.3647 5.84919C2.42798 5.09451 2.51704 4.47576 2.6272 4.06091C2.77251 3.51951 3.19907 3.0906 3.73813 2.94763C4.23032 2.81638 5.47017 2.71091 7.15532 2.64763C8.00845 2.61482 8.9272 2.59373 9.8436 2.58201C10.1647 2.57732 10.4624 2.57498 10.7295 2.57498H11.3999L12.2858 2.58201C13.2022 2.59373 14.1186 2.61482 14.9741 2.64763C16.6592 2.71326 17.9014 2.81638 18.3913 2.94763C18.9303 3.09294 19.3569 3.51951 19.5022 4.06091C19.6124 4.47576 19.7014 5.09451 19.7647 5.84919C19.8139 6.4281 19.8444 7.05154 19.8631 7.67498C19.8702 7.89294 19.8725 8.09685 19.8749 8.27732C19.8749 8.3406 19.8772 8.39685 19.8772 8.44373V8.55623ZM8.97876 11.6406L14.4163 8.47654L8.97876 5.35935V11.6406Z" fill="white"/>
</svg>
