<svg width="86" height="87" viewBox="0 0 86 87" fill="none" xmlns="http://www.w3.org/2000/svg">
<path fill-rule="evenodd" clip-rule="evenodd" d="M0.339844 43.4701C0.339844 32.156 4.83435 21.3053 12.8346 13.305C20.8349 5.30472 31.6856 0.810211 42.9997 0.810211C54.3138 0.810211 65.1645 5.30472 73.1648 13.305C81.165 21.3053 85.6595 32.156 85.6595 43.4701C85.6595 54.7842 81.165 65.6349 73.1648 73.6351C65.1645 81.6354 54.3138 86.1299 42.9997 86.1299C31.6856 86.1299 20.8349 81.6354 12.8346 73.6351C4.83435 65.6349 0.339844 54.7842 0.339844 43.4701H0.339844ZM40.5652 61.7285L65.1259 31.0248L60.6893 27.4755L39.7462 53.6459L24.9119 41.2859L21.2716 45.6542L40.5652 61.7342V61.7285Z" fill="#00E86B"/>
</svg>
