<?xml version="1.0" standalone="no"?>
<!DOCTYPE svg PUBLIC "-//W3C//DTD SVG 1.1//EN" "http://www.w3.org/Graphics/SVG/1.1/DTD/svg11.dtd">
<svg xmlns="http://www.w3.org/2000/svg" width="14" height="14" viewBox="0 0 14 14" fill="none">
<g clip-path="url(#clip0_1156_765)">
<path d="M7 10.02V11.03M7 5.00997V5.94997M7 13.49C10.5 13.49 13 12.25 13 9.48997C13 6.48997 11.5 4.48997 8.5 2.98997L9.68 1.46997C9.73995 1.37024 9.77246 1.25644 9.77425 1.14009C9.77604 1.02374 9.74704 0.908993 9.69018 0.807468C9.63333 0.705943 9.55065 0.621254 9.45051 0.561984C9.35038 0.502714 9.23636 0.47097 9.12 0.469971H4.88C4.76364 0.47097 4.64962 0.502714 4.54949 0.561984C4.44935 0.621254 4.36667 0.705943 4.30982 0.807468C4.25296 0.908993 4.22396 1.02374 4.22575 1.14009C4.22754 1.25644 4.26005 1.37024 4.32 1.46997L5.5 2.99997C2.5 4.50997 1 6.50997 1 9.50997C1 12.25 3.5 13.49 7 13.49Z" stroke="#0094FF" stroke-linecap="round" stroke-linejoin="round"/>
<path d="M5.99957 9.55998C6.12159 9.70481 6.27516 9.81977 6.4485 9.89604C6.62184 9.97232 6.81035 10.0079 6.99957 9.99998C7.28878 10.0197 7.57436 9.92651 7.79629 9.74002C8.01821 9.55353 8.15918 9.28826 8.18957 8.99998C8.15918 8.7117 8.01821 8.44643 7.79629 8.25994C7.57436 8.07345 7.28878 7.98026 6.99957 7.99998C6.71036 8.01969 6.42478 7.92651 6.20286 7.74002C5.98093 7.55353 5.83996 7.28826 5.80957 6.99998C5.83752 6.71069 5.97781 6.44389 6.20032 6.25691C6.42282 6.06993 6.70979 5.97768 6.99957 5.99998C7.18546 5.9886 7.37155 6.01858 7.54446 6.08774C7.71738 6.15691 7.87281 6.26355 7.99957 6.39998" stroke="#0094FF" stroke-linecap="round" stroke-linejoin="round"/>
</g>
<defs>
<clipPath id="clip0_1156_765">
<rect width="14" height="14" fill="white"/>
</clipPath>
</defs>
</svg>